<?xml version="1.0" encoding="UTF-8" standalone="no"?>
<!DOCTYPE svg PUBLIC "-//W3C//DTD SVG 1.1//EN"
 "http://www.w3.org/Graphics/SVG/1.1/DTD/svg11.dtd">
<!-- Generated by graphviz version 5.0.0 (20220707.1540)
 -->
<!-- Title: dependencies Pages: 1 -->
<svg width="352pt" height="247pt"
 viewBox="0.00 0.00 352.00 246.80" xmlns="http://www.w3.org/2000/svg" xmlns:xlink="http://www.w3.org/1999/xlink">
<g id="graph0" class="graph" transform="scale(1 1) rotate(0) translate(4 242.8)">
<title>dependencies</title>
<polygon fill="white" stroke="transparent" points="-4,4 -4,-242.8 348,-242.8 348,4 -4,4"/>
<text text-anchor="middle" x="172" y="-8.2" font-family="sans-serif" font-size="14.00">dependencies</text>
<g id="clust1" class="cluster">
<title>cluster_ConsoleModule</title>
<polygon fill="none" stroke="black" stroke-dasharray="1,5" points="8,-32.8 8,-230.8 336,-230.8 336,-32.8 8,-32.8"/>
</g>
<g id="clust5" class="cluster">
<title>cluster_ConsoleModule_exports</title>
<polygon fill="none" stroke="black" points="95,-170.8 95,-222.8 241,-222.8 241,-170.8 95,-170.8"/>
</g>
<g id="clust7" class="cluster">
<title>cluster_ConsoleModule_providers</title>
<polygon fill="none" stroke="black" points="168,-40.8 168,-92.8 328,-92.8 328,-40.8 168,-40.8"/>
</g>
<g id="clust2" class="cluster">
<title>cluster_ConsoleModule_declarations</title>
<polygon fill="none" stroke="black" points="16,-40.8 16,-92.8 160,-92.8 160,-40.8 16,-40.8"/>
</g>
<!-- ConsoleComponent -->
<g id="node1" class="node">
<title>ConsoleComponent</title>
<polygon fill="#ffffb3" stroke="black" points="151.72,-84.8 24.28,-84.8 24.28,-48.8 151.72,-48.8 151.72,-84.8"/>
<text text-anchor="middle" x="88" y="-62.6" font-family="Times,serif" font-size="14.00">ConsoleComponent</text>
</g>
<!-- ConsoleModule -->
<g id="node2" class="node">
<title>ConsoleModule</title>
<polygon fill="#8dd3c7" stroke="black" points="220.94,-149.8 217.94,-153.8 196.94,-153.8 193.94,-149.8 115.06,-149.8 115.06,-113.8 220.94,-113.8 220.94,-149.8"/>
<text text-anchor="middle" x="168" y="-127.6" font-family="Times,serif" font-size="14.00">ConsoleModule</text>
</g>
<!-- ConsoleComponent&#45;&gt;ConsoleModule -->
<g id="edge1" class="edge">
<title>ConsoleComponent&#45;&gt;ConsoleModule</title>
<path fill="none" stroke="black" d="M133.44,-84.91C133.44,-84.91 133.44,-103.79 133.44,-103.79"/>
<polygon fill="black" stroke="black" points="129.94,-103.79 133.44,-113.79 136.94,-103.79 129.94,-103.79"/>
</g>
<!-- ConsoleComponent  -->
<g id="node3" class="node">
<title>ConsoleComponent </title>
<polygon fill="#fb8072" stroke="black" points="233.22,-214.8 102.78,-214.8 102.78,-178.8 233.22,-178.8 233.22,-214.8"/>
<text text-anchor="middle" x="168" y="-192.6" font-family="Times,serif" font-size="14.00">ConsoleComponent </text>
</g>
<!-- ConsoleModule&#45;&gt;ConsoleComponent  -->
<g id="edge2" class="edge">
<title>ConsoleModule&#45;&gt;ConsoleComponent </title>
<path fill="none" stroke="black" stroke-dasharray="5,2" d="M168,-149.91C168,-149.91 168,-168.79 168,-168.79"/>
<polygon fill="black" stroke="black" points="164.5,-168.79 168,-178.79 171.5,-168.79 164.5,-168.79"/>
</g>
<!-- ConsoleService -->
<g id="node4" class="node">
<title>ConsoleService</title>
<ellipse fill="#fdb462" stroke="black" cx="248" cy="-66.8" rx="71.79" ry="18"/>
<text text-anchor="middle" x="248" y="-62.6" font-family="Times,serif" font-size="14.00">ConsoleService</text>
</g>
<!-- ConsoleService&#45;&gt;ConsoleModule -->
<g id="edge3" class="edge">
<title>ConsoleService&#45;&gt;ConsoleModule</title>
<path fill="none" stroke="black" d="M198.54,-79.95C198.54,-79.95 198.54,-103.49 198.54,-103.49"/>
<polygon fill="black" stroke="black" points="195.04,-103.49 198.54,-113.49 202.04,-103.49 195.04,-103.49"/>
</g>
</g>
</svg>
