<?xml version="1.0" encoding="UTF-8" standalone="no"?>
<!DOCTYPE svg PUBLIC "-//W3C//DTD SVG 1.1//EN"
 "http://www.w3.org/Graphics/SVG/1.1/DTD/svg11.dtd">
<!-- Generated by graphviz version 5.0.0 (20220707.1540)
 -->
<!-- Title: dependencies Pages: 1 -->
<svg width="761pt" height="174pt"
 viewBox="0.00 0.00 761.00 173.80" xmlns="http://www.w3.org/2000/svg" xmlns:xlink="http://www.w3.org/1999/xlink">
<g id="graph0" class="graph" transform="scale(1 1) rotate(0) translate(4 169.8)">
<title>dependencies</title>
<polygon fill="white" stroke="transparent" points="-4,4 -4,-169.8 757,-169.8 757,4 -4,4"/>
<text text-anchor="middle" x="376.5" y="-8.2" font-family="sans-serif" font-size="14.00">dependencies</text>
<g id="clust1" class="cluster">
<title>cluster_PipeRunnerModule</title>
<polygon fill="none" stroke="black" stroke-dasharray="1,5" points="8,-32.8 8,-157.8 745,-157.8 745,-32.8 8,-32.8"/>
</g>
<g id="clust5" class="cluster">
<title>cluster_PipeRunnerModule_imports</title>
<polygon fill="none" stroke="black" points="417,-40.8 417,-92.8 737,-92.8 737,-40.8 417,-40.8"/>
</g>
<g id="clust2" class="cluster">
<title>cluster_PipeRunnerModule_declarations</title>
<polygon fill="none" stroke="black" points="16,-40.8 16,-92.8 409,-92.8 409,-40.8 16,-40.8"/>
</g>
<!-- PipeRunnerComponent -->
<g id="node1" class="node">
<title>PipeRunnerComponent</title>
<polygon fill="#ffffb3" stroke="black" points="400.94,-84.8 253.06,-84.8 253.06,-48.8 400.94,-48.8 400.94,-84.8"/>
<text text-anchor="middle" x="327" y="-62.6" font-family="Times,serif" font-size="14.00">PipeRunnerComponent</text>
</g>
<!-- PipeRunnerModule -->
<g id="node3" class="node">
<title>PipeRunnerModule</title>
<polygon fill="#8dd3c7" stroke="black" points="471.66,-149.8 468.66,-153.8 447.66,-153.8 444.66,-149.8 346.34,-149.8 346.34,-113.8 471.66,-113.8 471.66,-149.8"/>
<text text-anchor="middle" x="409" y="-127.6" font-family="Times,serif" font-size="14.00">PipeRunnerModule</text>
</g>
<!-- PipeRunnerComponent&#45;&gt;PipeRunnerModule -->
<g id="edge1" class="edge">
<title>PipeRunnerComponent&#45;&gt;PipeRunnerModule</title>
<path fill="none" stroke="black" d="M373.44,-84.91C373.44,-84.91 373.44,-103.79 373.44,-103.79"/>
<polygon fill="black" stroke="black" points="369.94,-103.79 373.44,-113.79 376.94,-103.79 369.94,-103.79"/>
</g>
<!-- PipelineActionPreviewComponent -->
<g id="node2" class="node">
<title>PipelineActionPreviewComponent</title>
<polygon fill="#ffffb3" stroke="black" points="235.69,-84.8 24.31,-84.8 24.31,-48.8 235.69,-48.8 235.69,-84.8"/>
<text text-anchor="middle" x="130" y="-62.6" font-family="Times,serif" font-size="14.00">PipelineActionPreviewComponent</text>
</g>
<!-- PipelineActionPreviewComponent&#45;&gt;PipeRunnerModule -->
<g id="edge2" class="edge">
<title>PipelineActionPreviewComponent&#45;&gt;PipeRunnerModule</title>
<path fill="none" stroke="black" d="M130,-84.91C130,-104.14 130,-131.8 130,-131.8 130,-131.8 336.04,-131.8 336.04,-131.8"/>
<polygon fill="black" stroke="black" points="336.04,-135.3 346.04,-131.8 336.04,-128.3 336.04,-135.3"/>
</g>
<!-- StorageManagerModule -->
<g id="node4" class="node">
<title>StorageManagerModule</title>
<polygon fill="#8dd3c7" stroke="black" points="729.07,-84.8 726.07,-88.8 705.07,-88.8 702.07,-84.8 576.93,-84.8 576.93,-48.8 729.07,-48.8 729.07,-84.8"/>
<text text-anchor="middle" x="653" y="-62.6" font-family="Times,serif" font-size="14.00">StorageManagerModule</text>
</g>
<!-- StorageManagerModule&#45;&gt;PipeRunnerModule -->
<g id="edge3" class="edge">
<title>StorageManagerModule&#45;&gt;PipeRunnerModule</title>
<path fill="none" stroke="black" d="M653,-84.91C653,-104.14 653,-131.8 653,-131.8 653,-131.8 481.84,-131.8 481.84,-131.8"/>
<polygon fill="black" stroke="black" points="481.84,-128.3 471.84,-131.8 481.84,-135.3 481.84,-128.3"/>
</g>
<!-- VisualizationModule -->
<g id="node5" class="node">
<title>VisualizationModule</title>
<polygon fill="#8dd3c7" stroke="black" points="559.2,-84.8 556.2,-88.8 535.2,-88.8 532.2,-84.8 424.8,-84.8 424.8,-48.8 559.2,-48.8 559.2,-84.8"/>
<text text-anchor="middle" x="492" y="-62.6" font-family="Times,serif" font-size="14.00">VisualizationModule</text>
</g>
<!-- VisualizationModule&#45;&gt;PipeRunnerModule -->
<g id="edge4" class="edge">
<title>VisualizationModule&#45;&gt;PipeRunnerModule</title>
<path fill="none" stroke="black" d="M448.36,-84.91C448.36,-84.91 448.36,-103.79 448.36,-103.79"/>
<polygon fill="black" stroke="black" points="444.86,-103.79 448.36,-113.79 451.86,-103.79 444.86,-103.79"/>
</g>
</g>
</svg>
