<?xml version="1.0" encoding="UTF-8" standalone="no"?>
<!DOCTYPE svg PUBLIC "-//W3C//DTD SVG 1.1//EN"
 "http://www.w3.org/Graphics/SVG/1.1/DTD/svg11.dtd">
<!-- Generated by graphviz version 5.0.0 (20220707.1540)
 -->
<!-- Title: dependencies Pages: 1 -->
<svg width="1295pt" height="174pt"
 viewBox="0.00 0.00 1295.00 173.80" xmlns="http://www.w3.org/2000/svg" xmlns:xlink="http://www.w3.org/1999/xlink">
<g id="graph0" class="graph" transform="scale(1 1) rotate(0) translate(4 169.8)">
<title>dependencies</title>
<polygon fill="white" stroke="transparent" points="-4,4 -4,-169.8 1291,-169.8 1291,4 -4,4"/>
<text text-anchor="middle" x="643.5" y="-8.2" font-family="sans-serif" font-size="14.00">dependencies</text>
<g id="clust1" class="cluster">
<title>cluster_PipeRunnerModule</title>
<polygon fill="none" stroke="black" stroke-dasharray="1,5" points="8,-32.8 8,-157.8 1279,-157.8 1279,-32.8 8,-32.8"/>
</g>
<g id="clust7" class="cluster">
<title>cluster_PipeRunnerModule_imports</title>
<polygon fill="none" stroke="black" points="827,-40.8 827,-92.8 1271,-92.8 1271,-40.8 827,-40.8"/>
</g>
<g id="clust2" class="cluster">
<title>cluster_PipeRunnerModule_declarations</title>
<polygon fill="none" stroke="black" points="16,-40.8 16,-92.8 819,-92.8 819,-40.8 16,-40.8"/>
</g>
<!-- PipeRunnerComponent -->
<g id="node1" class="node">
<title>PipeRunnerComponent</title>
<polygon fill="#ffffb3" stroke="black" points="810.94,-84.8 663.06,-84.8 663.06,-48.8 810.94,-48.8 810.94,-84.8"/>
<text text-anchor="middle" x="737" y="-62.6" font-family="Times,serif" font-size="14.00">PipeRunnerComponent</text>
</g>
<!-- PipeRunnerModule -->
<g id="node5" class="node">
<title>PipeRunnerModule</title>
<polygon fill="#8dd3c7" stroke="black" points="799.66,-149.8 796.66,-153.8 775.66,-153.8 772.66,-149.8 674.34,-149.8 674.34,-113.8 799.66,-113.8 799.66,-149.8"/>
<text text-anchor="middle" x="737" y="-127.6" font-family="Times,serif" font-size="14.00">PipeRunnerModule</text>
</g>
<!-- PipeRunnerComponent&#45;&gt;PipeRunnerModule -->
<g id="edge1" class="edge">
<title>PipeRunnerComponent&#45;&gt;PipeRunnerModule</title>
<path fill="none" stroke="black" d="M737,-84.91C737,-84.91 737,-103.79 737,-103.79"/>
<polygon fill="black" stroke="black" points="733.5,-103.79 737,-113.79 740.5,-103.79 733.5,-103.79"/>
</g>
<!-- PipeRunnerOptionsBarComponent -->
<g id="node2" class="node">
<title>PipeRunnerOptionsBarComponent</title>
<polygon fill="#ffffb3" stroke="black" points="644.99,-84.8 433.01,-84.8 433.01,-48.8 644.99,-48.8 644.99,-84.8"/>
<text text-anchor="middle" x="539" y="-62.6" font-family="Times,serif" font-size="14.00">PipeRunnerOptionsBarComponent</text>
</g>
<!-- PipeRunnerOptionsBarComponent&#45;&gt;PipeRunnerModule -->
<g id="edge2" class="edge">
<title>PipeRunnerOptionsBarComponent&#45;&gt;PipeRunnerModule</title>
<path fill="none" stroke="black" d="M539,-84.83C539,-101.2 539,-122.8 539,-122.8 539,-122.8 664.08,-122.8 664.08,-122.8"/>
<polygon fill="black" stroke="black" points="664.08,-126.3 674.08,-122.8 664.08,-119.3 664.08,-126.3"/>
</g>
<!-- PipelineActionPreviewComponent -->
<g id="node3" class="node">
<title>PipelineActionPreviewComponent</title>
<polygon fill="#ffffb3" stroke="black" points="414.69,-84.8 203.31,-84.8 203.31,-48.8 414.69,-48.8 414.69,-84.8"/>
<text text-anchor="middle" x="309" y="-62.6" font-family="Times,serif" font-size="14.00">PipelineActionPreviewComponent</text>
</g>
<!-- PipelineActionPreviewComponent&#45;&gt;PipeRunnerModule -->
<g id="edge3" class="edge">
<title>PipelineActionPreviewComponent&#45;&gt;PipeRunnerModule</title>
<path fill="none" stroke="black" d="M309,-84.91C309,-104.14 309,-131.8 309,-131.8 309,-131.8 664.31,-131.8 664.31,-131.8"/>
<polygon fill="black" stroke="black" points="664.31,-135.3 674.31,-131.8 664.31,-128.3 664.31,-135.3"/>
</g>
<!-- SelectPipelineComponent -->
<g id="node4" class="node">
<title>SelectPipelineComponent</title>
<polygon fill="#ffffb3" stroke="black" points="185.92,-84.8 24.08,-84.8 24.08,-48.8 185.92,-48.8 185.92,-84.8"/>
<text text-anchor="middle" x="105" y="-62.6" font-family="Times,serif" font-size="14.00">SelectPipelineComponent</text>
</g>
<!-- SelectPipelineComponent&#45;&gt;PipeRunnerModule -->
<g id="edge4" class="edge">
<title>SelectPipelineComponent&#45;&gt;PipeRunnerModule</title>
<path fill="none" stroke="black" d="M105,-85.09C105,-107.01 105,-140.8 105,-140.8 105,-140.8 664.09,-140.8 664.09,-140.8"/>
<polygon fill="black" stroke="black" points="664.09,-144.3 674.09,-140.8 664.09,-137.3 664.09,-144.3"/>
</g>
<!-- ConsoleModule -->
<g id="node6" class="node">
<title>ConsoleModule</title>
<polygon fill="#8dd3c7" stroke="black" points="1262.94,-84.8 1259.94,-88.8 1238.94,-88.8 1235.94,-84.8 1157.06,-84.8 1157.06,-48.8 1262.94,-48.8 1262.94,-84.8"/>
<text text-anchor="middle" x="1210" y="-62.6" font-family="Times,serif" font-size="14.00">ConsoleModule</text>
</g>
<!-- ConsoleModule&#45;&gt;PipeRunnerModule -->
<g id="edge5" class="edge">
<title>ConsoleModule&#45;&gt;PipeRunnerModule</title>
<path fill="none" stroke="black" d="M1210,-85.09C1210,-107.01 1210,-140.8 1210,-140.8 1210,-140.8 809.81,-140.8 809.81,-140.8"/>
<polygon fill="black" stroke="black" points="809.81,-137.3 799.81,-140.8 809.81,-144.3 809.81,-137.3"/>
</g>
<!-- StorageManagerModule -->
<g id="node7" class="node">
<title>StorageManagerModule</title>
<polygon fill="#8dd3c7" stroke="black" points="1139.07,-84.8 1136.07,-88.8 1115.07,-88.8 1112.07,-84.8 986.93,-84.8 986.93,-48.8 1139.07,-48.8 1139.07,-84.8"/>
<text text-anchor="middle" x="1063" y="-62.6" font-family="Times,serif" font-size="14.00">StorageManagerModule</text>
</g>
<!-- StorageManagerModule&#45;&gt;PipeRunnerModule -->
<g id="edge6" class="edge">
<title>StorageManagerModule&#45;&gt;PipeRunnerModule</title>
<path fill="none" stroke="black" d="M1063,-84.91C1063,-104.14 1063,-131.8 1063,-131.8 1063,-131.8 809.86,-131.8 809.86,-131.8"/>
<polygon fill="black" stroke="black" points="809.86,-128.3 799.86,-131.8 809.86,-135.3 809.86,-128.3"/>
</g>
<!-- VisualizationModule -->
<g id="node8" class="node">
<title>VisualizationModule</title>
<polygon fill="#8dd3c7" stroke="black" points="969.2,-84.8 966.2,-88.8 945.2,-88.8 942.2,-84.8 834.8,-84.8 834.8,-48.8 969.2,-48.8 969.2,-84.8"/>
<text text-anchor="middle" x="902" y="-62.6" font-family="Times,serif" font-size="14.00">VisualizationModule</text>
</g>
<!-- VisualizationModule&#45;&gt;PipeRunnerModule -->
<g id="edge7" class="edge">
<title>VisualizationModule&#45;&gt;PipeRunnerModule</title>
<path fill="none" stroke="black" d="M902,-84.83C902,-101.2 902,-122.8 902,-122.8 902,-122.8 809.85,-122.8 809.85,-122.8"/>
<polygon fill="black" stroke="black" points="809.85,-119.3 799.85,-122.8 809.85,-126.3 809.85,-119.3"/>
</g>
</g>
</svg>
