<?xml version="1.0" encoding="UTF-8" standalone="no"?>
<!DOCTYPE svg PUBLIC "-//W3C//DTD SVG 1.1//EN"
 "http://www.w3.org/Graphics/SVG/1.1/DTD/svg11.dtd">
<!-- Generated by graphviz version 5.0.0 (20220707.1540)
 -->
<!-- Title: dependencies Pages: 1 -->
<svg width="761pt" height="174pt"
 viewBox="0.00 0.00 761.00 173.80" xmlns="http://www.w3.org/2000/svg" xmlns:xlink="http://www.w3.org/1999/xlink">
<g id="graph0" class="graph" transform="scale(1 1) rotate(0) translate(4 169.8)">
<title>dependencies</title>
<polygon fill="white" stroke="transparent" points="-4,4 -4,-169.8 757,-169.8 757,4 -4,4"/>
<text text-anchor="middle" x="376.5" y="-8.2" font-family="sans-serif" font-size="14.00">dependencies</text>
<g id="clust1" class="cluster">
<title>cluster_PipeRunnerModule</title>
<polygon fill="none" stroke="black" stroke-dasharray="1,5" points="8,-32.8 8,-157.8 745,-157.8 745,-32.8 8,-32.8"/>
</g>
<g id="clust2" class="cluster">
<title>cluster_PipeRunnerModule_declarations</title>
<polygon fill="none" stroke="black" points="344,-40.8 344,-92.8 737,-92.8 737,-40.8 344,-40.8"/>
</g>
<g id="clust5" class="cluster">
<title>cluster_PipeRunnerModule_imports</title>
<polygon fill="none" stroke="black" points="16,-40.8 16,-92.8 336,-92.8 336,-40.8 16,-40.8"/>
</g>
<!-- PipeRunnerComponent -->
<g id="node1" class="node">
<title>PipeRunnerComponent</title>
<polygon fill="#ffffb3" stroke="black" points="728.94,-84.8 581.06,-84.8 581.06,-48.8 728.94,-48.8 728.94,-84.8"/>
<text text-anchor="middle" x="655" y="-62.6" font-family="Times,serif" font-size="14.00">PipeRunnerComponent</text>
</g>
<!-- PipeRunnerModule -->
<g id="node3" class="node">
<title>PipeRunnerModule</title>
<polygon fill="#8dd3c7" stroke="black" points="417.66,-149.8 414.66,-153.8 393.66,-153.8 390.66,-149.8 292.34,-149.8 292.34,-113.8 417.66,-113.8 417.66,-149.8"/>
<text text-anchor="middle" x="355" y="-127.6" font-family="Times,serif" font-size="14.00">PipeRunnerModule</text>
</g>
<!-- PipeRunnerComponent&#45;&gt;PipeRunnerModule -->
<g id="edge1" class="edge">
<title>PipeRunnerComponent&#45;&gt;PipeRunnerModule</title>
<path fill="none" stroke="black" d="M655,-84.91C655,-104.14 655,-131.8 655,-131.8 655,-131.8 427.89,-131.8 427.89,-131.8"/>
<polygon fill="black" stroke="black" points="427.89,-128.3 417.89,-131.8 427.89,-135.3 427.89,-128.3"/>
</g>
<!-- PipelineActionPreviewComponent -->
<g id="node2" class="node">
<title>PipelineActionPreviewComponent</title>
<polygon fill="#ffffb3" stroke="black" points="563.69,-84.8 352.31,-84.8 352.31,-48.8 563.69,-48.8 563.69,-84.8"/>
<text text-anchor="middle" x="458" y="-62.6" font-family="Times,serif" font-size="14.00">PipelineActionPreviewComponent</text>
</g>
<!-- PipelineActionPreviewComponent&#45;&gt;PipeRunnerModule -->
<g id="edge2" class="edge">
<title>PipelineActionPreviewComponent&#45;&gt;PipeRunnerModule</title>
<path fill="none" stroke="black" d="M385.12,-84.91C385.12,-84.91 385.12,-103.79 385.12,-103.79"/>
<polygon fill="black" stroke="black" points="381.62,-103.79 385.12,-113.79 388.62,-103.79 381.62,-103.79"/>
</g>
<!-- StorageManagerModule -->
<g id="node4" class="node">
<title>StorageManagerModule</title>
<polygon fill="#8dd3c7" stroke="black" points="328.07,-84.8 325.07,-88.8 304.07,-88.8 301.07,-84.8 175.93,-84.8 175.93,-48.8 328.07,-48.8 328.07,-84.8"/>
<text text-anchor="middle" x="252" y="-62.6" font-family="Times,serif" font-size="14.00">StorageManagerModule</text>
</g>
<!-- StorageManagerModule&#45;&gt;PipeRunnerModule -->
<g id="edge3" class="edge">
<title>StorageManagerModule&#45;&gt;PipeRunnerModule</title>
<path fill="none" stroke="black" d="M310.1,-84.91C310.1,-84.91 310.1,-103.79 310.1,-103.79"/>
<polygon fill="black" stroke="black" points="306.6,-103.79 310.1,-113.79 313.6,-103.79 306.6,-103.79"/>
</g>
<!-- VisualizationModule -->
<g id="node5" class="node">
<title>VisualizationModule</title>
<polygon fill="#8dd3c7" stroke="black" points="158.2,-84.8 155.2,-88.8 134.2,-88.8 131.2,-84.8 23.8,-84.8 23.8,-48.8 158.2,-48.8 158.2,-84.8"/>
<text text-anchor="middle" x="91" y="-62.6" font-family="Times,serif" font-size="14.00">VisualizationModule</text>
</g>
<!-- VisualizationModule&#45;&gt;PipeRunnerModule -->
<g id="edge4" class="edge">
<title>VisualizationModule&#45;&gt;PipeRunnerModule</title>
<path fill="none" stroke="black" d="M91,-84.91C91,-104.14 91,-131.8 91,-131.8 91,-131.8 282.1,-131.8 282.1,-131.8"/>
<polygon fill="black" stroke="black" points="282.1,-135.3 292.1,-131.8 282.1,-128.3 282.1,-135.3"/>
</g>
</g>
</svg>
