<?xml version="1.0" encoding="UTF-8" standalone="no"?>
<!DOCTYPE svg PUBLIC "-//W3C//DTD SVG 1.1//EN"
 "http://www.w3.org/Graphics/SVG/1.1/DTD/svg11.dtd">
<!-- Generated by graphviz version 5.0.0 (20220707.1540)
 -->
<!-- Title: dependencies Pages: 1 -->
<svg width="360pt" height="247pt"
 viewBox="0.00 0.00 360.00 246.80" xmlns="http://www.w3.org/2000/svg" xmlns:xlink="http://www.w3.org/1999/xlink">
<g id="graph0" class="graph" transform="scale(1 1) rotate(0) translate(4 242.8)">
<title>dependencies</title>
<polygon fill="white" stroke="transparent" points="-4,4 -4,-242.8 356,-242.8 356,4 -4,4"/>
<text text-anchor="middle" x="176" y="-8.2" font-family="sans-serif" font-size="14.00">dependencies</text>
<g id="clust1" class="cluster">
<title>cluster_SharedModule</title>
<polygon fill="none" stroke="black" stroke-dasharray="1,5" points="8,-32.8 8,-230.8 344,-230.8 344,-32.8 8,-32.8"/>
</g>
<g id="clust2" class="cluster">
<title>cluster_SharedModule_declarations</title>
<polygon fill="none" stroke="black" points="20,-40.8 20,-92.8 333,-92.8 333,-40.8 20,-40.8"/>
</g>
<g id="clust6" class="cluster">
<title>cluster_SharedModule_exports</title>
<polygon fill="none" stroke="black" points="16,-170.8 16,-222.8 336,-222.8 336,-170.8 16,-170.8"/>
</g>
<!-- AnimatedCounterDirective -->
<g id="node1" class="node">
<title>AnimatedCounterDirective</title>
<polygon fill="#ffffb3" stroke="black" points="325.39,-84.8 156.61,-84.8 156.61,-48.8 325.39,-48.8 325.39,-84.8"/>
<text text-anchor="middle" x="241" y="-62.6" font-family="Times,serif" font-size="14.00">AnimatedCounterDirective</text>
</g>
<!-- SharedModule -->
<g id="node3" class="node">
<title>SharedModule</title>
<polygon fill="#8dd3c7" stroke="black" points="133.43,-149.8 130.43,-153.8 109.43,-153.8 106.43,-149.8 34.57,-149.8 34.57,-113.8 133.43,-113.8 133.43,-149.8"/>
<text text-anchor="middle" x="84" y="-127.6" font-family="Times,serif" font-size="14.00">SharedModule</text>
</g>
<!-- AnimatedCounterDirective&#45;&gt;SharedModule -->
<g id="edge1" class="edge">
<title>AnimatedCounterDirective&#45;&gt;SharedModule</title>
<path fill="none" stroke="black" d="M269.07,-84.82C269.07,-102.17 269.07,-125.8 269.07,-125.8 269.07,-125.8 143.59,-125.8 143.59,-125.8"/>
<polygon fill="black" stroke="black" points="143.59,-122.3 133.59,-125.8 143.59,-129.3 143.59,-122.3"/>
</g>
<!-- ErrorComponent -->
<g id="node2" class="node">
<title>ErrorComponent</title>
<polygon fill="#ffffb3" stroke="black" points="138.37,-84.8 27.63,-84.8 27.63,-48.8 138.37,-48.8 138.37,-84.8"/>
<text text-anchor="middle" x="83" y="-62.6" font-family="Times,serif" font-size="14.00">ErrorComponent</text>
</g>
<!-- ErrorComponent&#45;&gt;SharedModule -->
<g id="edge2" class="edge">
<title>ErrorComponent&#45;&gt;SharedModule</title>
<path fill="none" stroke="black" d="M84,-84.91C84,-84.91 84,-103.79 84,-103.79"/>
<polygon fill="black" stroke="black" points="80.5,-103.79 84,-113.79 87.5,-103.79 80.5,-103.79"/>
</g>
<!-- AnimatedCounterDirective  -->
<g id="node4" class="node">
<title>AnimatedCounterDirective </title>
<polygon fill="#fb8072" stroke="black" points="327.89,-214.8 156.11,-214.8 156.11,-178.8 327.89,-178.8 327.89,-214.8"/>
<text text-anchor="middle" x="242" y="-192.6" font-family="Times,serif" font-size="14.00">AnimatedCounterDirective </text>
</g>
<!-- SharedModule&#45;&gt;AnimatedCounterDirective  -->
<g id="edge3" class="edge">
<title>SharedModule&#45;&gt;AnimatedCounterDirective </title>
<path fill="none" stroke="black" stroke-dasharray="5,2" d="M133.48,-137.8C169.84,-137.8 212.93,-137.8 212.93,-137.8 212.93,-137.8 212.93,-168.78 212.93,-168.78"/>
<polygon fill="black" stroke="black" points="209.43,-168.78 212.93,-178.78 216.43,-168.78 209.43,-168.78"/>
</g>
<!-- ErrorComponent  -->
<g id="node5" class="node">
<title>ErrorComponent </title>
<polygon fill="#fb8072" stroke="black" points="138.37,-214.8 23.63,-214.8 23.63,-178.8 138.37,-178.8 138.37,-214.8"/>
<text text-anchor="middle" x="81" y="-192.6" font-family="Times,serif" font-size="14.00">ErrorComponent </text>
</g>
<!-- SharedModule&#45;&gt;ErrorComponent  -->
<g id="edge4" class="edge">
<title>SharedModule&#45;&gt;ErrorComponent </title>
<path fill="none" stroke="black" stroke-dasharray="5,2" d="M84,-149.91C84,-149.91 84,-168.79 84,-168.79"/>
<polygon fill="black" stroke="black" points="80.5,-168.79 84,-178.79 87.5,-168.79 80.5,-168.79"/>
</g>
</g>
</svg>
