<?xml version="1.0" encoding="UTF-8" standalone="no"?>
<!DOCTYPE svg PUBLIC "-//W3C//DTD SVG 1.1//EN"
 "http://www.w3.org/Graphics/SVG/1.1/DTD/svg11.dtd">
<!-- Generated by graphviz version 5.0.0 (20220707.1540)
 -->
<!-- Title: dependencies Pages: 1 -->
<svg width="677pt" height="174pt"
 viewBox="0.00 0.00 677.00 173.80" xmlns="http://www.w3.org/2000/svg" xmlns:xlink="http://www.w3.org/1999/xlink">
<g id="graph0" class="graph" transform="scale(1 1) rotate(0) translate(4 169.8)">
<title>dependencies</title>
<polygon fill="white" stroke="transparent" points="-4,4 -4,-169.8 673,-169.8 673,4 -4,4"/>
<text text-anchor="middle" x="334.5" y="-8.2" font-family="sans-serif" font-size="14.00">dependencies</text>
<g id="clust1" class="cluster">
<title>cluster_ProcessBuilderWrapperModule</title>
<polygon fill="none" stroke="black" stroke-dasharray="1,5" points="8,-32.8 8,-157.8 661,-157.8 661,-32.8 8,-32.8"/>
</g>
<g id="clust5" class="cluster">
<title>cluster_ProcessBuilderWrapperModule_imports</title>
<polygon fill="none" stroke="black" points="493,-40.8 493,-92.8 653,-92.8 653,-40.8 493,-40.8"/>
</g>
<g id="clust2" class="cluster">
<title>cluster_ProcessBuilderWrapperModule_declarations</title>
<polygon fill="none" stroke="black" points="16,-40.8 16,-92.8 485,-92.8 485,-40.8 16,-40.8"/>
</g>
<!-- MethodQuickInteractionComponent -->
<g id="node1" class="node">
<title>MethodQuickInteractionComponent</title>
<polygon fill="#ffffb3" stroke="black" points="476.73,-84.8 257.27,-84.8 257.27,-48.8 476.73,-48.8 476.73,-84.8"/>
<text text-anchor="middle" x="367" y="-62.6" font-family="Times,serif" font-size="14.00">MethodQuickInteractionComponent</text>
</g>
<!-- ProcessBuilderWrapperModule -->
<g id="node3" class="node">
<title>ProcessBuilderWrapperModule</title>
<polygon fill="#8dd3c7" stroke="black" points="463.78,-149.8 460.78,-153.8 439.78,-153.8 436.78,-149.8 270.22,-149.8 270.22,-113.8 463.78,-113.8 463.78,-149.8"/>
<text text-anchor="middle" x="367" y="-127.6" font-family="Times,serif" font-size="14.00">ProcessBuilderWrapperModule</text>
</g>
<!-- MethodQuickInteractionComponent&#45;&gt;ProcessBuilderWrapperModule -->
<g id="edge1" class="edge">
<title>MethodQuickInteractionComponent&#45;&gt;ProcessBuilderWrapperModule</title>
<path fill="none" stroke="black" d="M367,-84.91C367,-84.91 367,-103.79 367,-103.79"/>
<polygon fill="black" stroke="black" points="363.5,-103.79 367,-113.79 370.5,-103.79 363.5,-103.79"/>
</g>
<!-- ProcessBuilderWrapperComponent -->
<g id="node2" class="node">
<title>ProcessBuilderWrapperComponent</title>
<polygon fill="#ffffb3" stroke="black" points="239.56,-84.8 24.44,-84.8 24.44,-48.8 239.56,-48.8 239.56,-84.8"/>
<text text-anchor="middle" x="132" y="-62.6" font-family="Times,serif" font-size="14.00">ProcessBuilderWrapperComponent</text>
</g>
<!-- ProcessBuilderWrapperComponent&#45;&gt;ProcessBuilderWrapperModule -->
<g id="edge2" class="edge">
<title>ProcessBuilderWrapperComponent&#45;&gt;ProcessBuilderWrapperModule</title>
<path fill="none" stroke="black" d="M132,-84.91C132,-104.14 132,-131.8 132,-131.8 132,-131.8 260.06,-131.8 260.06,-131.8"/>
<polygon fill="black" stroke="black" points="260.06,-135.3 270.06,-131.8 260.06,-128.3 260.06,-135.3"/>
</g>
<!-- ProcessBuilderModule -->
<g id="node4" class="node">
<title>ProcessBuilderModule</title>
<polygon fill="#8dd3c7" stroke="black" points="645.32,-84.8 642.32,-88.8 621.32,-88.8 618.32,-84.8 500.68,-84.8 500.68,-48.8 645.32,-48.8 645.32,-84.8"/>
<text text-anchor="middle" x="573" y="-62.6" font-family="Times,serif" font-size="14.00">ProcessBuilderModule</text>
</g>
<!-- ProcessBuilderModule&#45;&gt;ProcessBuilderWrapperModule -->
<g id="edge3" class="edge">
<title>ProcessBuilderModule&#45;&gt;ProcessBuilderWrapperModule</title>
<path fill="none" stroke="black" d="M573,-84.91C573,-104.14 573,-131.8 573,-131.8 573,-131.8 473.67,-131.8 473.67,-131.8"/>
<polygon fill="black" stroke="black" points="473.67,-128.3 463.67,-131.8 473.67,-135.3 473.67,-128.3"/>
</g>
</g>
</svg>
