<?xml version="1.0" encoding="UTF-8" standalone="no"?>
<!DOCTYPE svg PUBLIC "-//W3C//DTD SVG 1.1//EN"
 "http://www.w3.org/Graphics/SVG/1.1/DTD/svg11.dtd">
<!-- Generated by graphviz version 5.0.0 (20220707.1540)
 -->
<!-- Title: dependencies Pages: 1 -->
<svg width="677pt" height="174pt"
 viewBox="0.00 0.00 677.00 173.80" xmlns="http://www.w3.org/2000/svg" xmlns:xlink="http://www.w3.org/1999/xlink">
<g id="graph0" class="graph" transform="scale(1 1) rotate(0) translate(4 169.8)">
<title>dependencies</title>
<polygon fill="white" stroke="transparent" points="-4,4 -4,-169.8 673,-169.8 673,4 -4,4"/>
<text text-anchor="middle" x="334.5" y="-8.2" font-family="sans-serif" font-size="14.00">dependencies</text>
<g id="clust1" class="cluster">
<title>cluster_ProcessBuilderWrapperModule</title>
<polygon fill="none" stroke="black" stroke-dasharray="1,5" points="8,-32.8 8,-157.8 661,-157.8 661,-32.8 8,-32.8"/>
</g>
<g id="clust2" class="cluster">
<title>cluster_ProcessBuilderWrapperModule_declarations</title>
<polygon fill="none" stroke="black" points="184,-40.8 184,-92.8 653,-92.8 653,-40.8 184,-40.8"/>
</g>
<g id="clust5" class="cluster">
<title>cluster_ProcessBuilderWrapperModule_imports</title>
<polygon fill="none" stroke="black" points="16,-40.8 16,-92.8 176,-92.8 176,-40.8 16,-40.8"/>
</g>
<!-- MethodQuickInteractionComponent -->
<g id="node1" class="node">
<title>MethodQuickInteractionComponent</title>
<polygon fill="#ffffb3" stroke="black" points="644.73,-84.8 425.27,-84.8 425.27,-48.8 644.73,-48.8 644.73,-84.8"/>
<text text-anchor="middle" x="535" y="-62.6" font-family="Times,serif" font-size="14.00">MethodQuickInteractionComponent</text>
</g>
<!-- ProcessBuilderWrapperModule -->
<g id="node3" class="node">
<title>ProcessBuilderWrapperModule</title>
<polygon fill="#8dd3c7" stroke="black" points="396.78,-149.8 393.78,-153.8 372.78,-153.8 369.78,-149.8 203.22,-149.8 203.22,-113.8 396.78,-113.8 396.78,-149.8"/>
<text text-anchor="middle" x="300" y="-127.6" font-family="Times,serif" font-size="14.00">ProcessBuilderWrapperModule</text>
</g>
<!-- MethodQuickInteractionComponent&#45;&gt;ProcessBuilderWrapperModule -->
<g id="edge1" class="edge">
<title>MethodQuickInteractionComponent&#45;&gt;ProcessBuilderWrapperModule</title>
<path fill="none" stroke="black" d="M535,-84.91C535,-104.14 535,-131.8 535,-131.8 535,-131.8 406.94,-131.8 406.94,-131.8"/>
<polygon fill="black" stroke="black" points="406.94,-128.3 396.94,-131.8 406.94,-135.3 406.94,-128.3"/>
</g>
<!-- ProcessBuilderWrapperComponent -->
<g id="node2" class="node">
<title>ProcessBuilderWrapperComponent</title>
<polygon fill="#ffffb3" stroke="black" points="407.56,-84.8 192.44,-84.8 192.44,-48.8 407.56,-48.8 407.56,-84.8"/>
<text text-anchor="middle" x="300" y="-62.6" font-family="Times,serif" font-size="14.00">ProcessBuilderWrapperComponent</text>
</g>
<!-- ProcessBuilderWrapperComponent&#45;&gt;ProcessBuilderWrapperModule -->
<g id="edge2" class="edge">
<title>ProcessBuilderWrapperComponent&#45;&gt;ProcessBuilderWrapperModule</title>
<path fill="none" stroke="black" d="M300,-84.91C300,-84.91 300,-103.79 300,-103.79"/>
<polygon fill="black" stroke="black" points="296.5,-103.79 300,-113.79 303.5,-103.79 296.5,-103.79"/>
</g>
<!-- ProcessBuilderModule -->
<g id="node4" class="node">
<title>ProcessBuilderModule</title>
<polygon fill="#8dd3c7" stroke="black" points="168.32,-84.8 165.32,-88.8 144.32,-88.8 141.32,-84.8 23.68,-84.8 23.68,-48.8 168.32,-48.8 168.32,-84.8"/>
<text text-anchor="middle" x="96" y="-62.6" font-family="Times,serif" font-size="14.00">ProcessBuilderModule</text>
</g>
<!-- ProcessBuilderModule&#45;&gt;ProcessBuilderWrapperModule -->
<g id="edge3" class="edge">
<title>ProcessBuilderModule&#45;&gt;ProcessBuilderWrapperModule</title>
<path fill="none" stroke="black" d="M96,-84.91C96,-104.14 96,-131.8 96,-131.8 96,-131.8 193.08,-131.8 193.08,-131.8"/>
<polygon fill="black" stroke="black" points="193.08,-135.3 203.08,-131.8 193.08,-128.3 193.08,-135.3"/>
</g>
</g>
</svg>
