<?xml version="1.0" standalone="no"?>
<!DOCTYPE svg PUBLIC "-//W3C//DTD SVG 1.1//EN" "http://www.w3.org/Graphics/SVG/1.1/DTD/svg11.dtd">
<svg xmlns="http://www.w3.org/2000/svg">
<defs >
<font id="BebasNeue" horiz-adv-x="387" ><font-face
    font-family="Bebas Neue"
    units-per-em="1000"
    panose-1="2 11 6 6 2 2 2 5 2 1"
    ascent="900"
    descent="-300"
    alphabetic="0" />
<glyph unicode=" " glyph-name="space" horiz-adv-x="160" />
<glyph unicode="!" glyph-name="exclam" horiz-adv-x="210" d="M50 408V700H160V408L146 185H64L50 408ZM52 106H158V0H52V106Z" />
<glyph unicode="&quot;" glyph-name="quotedbl" horiz-adv-x="336" d="M38 700H150L123 474H64L38 700ZM186 700H298L271 474H212L186 700Z" />
<glyph unicode="#" glyph-name="numbersign" horiz-adv-x="412" d="M65 200H16L24 278H73L92 461H42L50 539H100L117 700H204L187 539H258L275 700H362L345 539H396L388 461H337L318 278H369L361 200H310L289 0H202L223 200H152L131 0H44L65 200ZM231 278L250
461H179L160 278H231Z" />
<glyph unicode="$" glyph-name="dollar" horiz-adv-x="400" d="M155 15Q97 27 67 70T36 180V226H140V173Q140 112 197 112Q254 112 254 175Q254 214 234 245T160 319Q93 372 66 418T39 522Q39 587 68 629T155 684V745H245V684Q303 672 333 630T363 520V500H259V527Q259
589 204 589Q149 589 149 529Q149 493 169 463T243 389Q310 335 337 289T364 182Q364 114 334 71T245 15V-55H155V15Z" />
<glyph unicode="%" glyph-name="percent" horiz-adv-x="589" d="M89 311T62 340T35 423V598Q35 652 62 681T141 710Q193 710 220 681T247 598V423Q247 369 220 340T141 311Q89 311 62 340ZM395 700H465L194 0H124L395 700ZM177 374T177 418V603Q177 647 141 647Q105
647 105 603V418Q105 374 141 374Q177 374 177 418ZM396 -10T369 19T342 102V277Q342 331 369 360T448 389Q500 389 527 360T554 277V102Q554 48 527 19T448 -10Q396 -10 369 19ZM484 53T484 97V282Q484 326 448 326Q412 326 412 282V97Q412 53 448 53Q484 53 484
97Z" />
<glyph unicode="&amp;" glyph-name="ampersand" horiz-adv-x="417" d="M96 -10T65 31T34 150V223Q34 278 53 315T115 369V371Q76 387 58 422T39 514V527Q39 612 80 656T203 700H329V600H205Q178 600 164 584T149 532V489Q149 449 165 432T215 415H258V493H366V415H397V315H366V85Q366
55 368 37T378 0H268Q260 22 258 55H256Q238 22 215 6T156 -10Q96 -10 65 31ZM249 90T258 153V315H216Q178 315 161 295T144 226V155Q144 120 158 105T197 90Q249 90 258 153Z" />
<glyph unicode="&apos;" glyph-name="quotesingle" horiz-adv-x="188" d="M38 700H150L123 474H64L38 700Z" />
<glyph unicode="(" glyph-name="parenleft" horiz-adv-x="276" d="M124 -50T89 -15T53 103V597Q53 680 88 715T207 750H241V660H214Q187 660 175 647T163 597V103Q163 67 175 54T214 40H241V-50H207Q124 -50 89 -15Z" />
<glyph unicode=")" glyph-name="parenright" horiz-adv-x="276" d="M35 40H62Q89 40 101 53T113 103V597Q113 633 101 646T62 660H35V750H69Q152 750 187 715T223 597V103Q223 20 188 -15T69 -50H35V40Z" />
<glyph unicode="*" glyph-name="asterisk" horiz-adv-x="422" d="M62 380L168 492L15 525L43 610L186 542L166 700H256L236 542L379 610L407 525L254 492L360 380L288 327L211 462L134 327L62 380Z" />
<glyph unicode="+" glyph-name="plus" horiz-adv-x="400" d="M161 311H27V389H161V524H239V389H373V311H239V174H161V311Z" />
<glyph unicode="," glyph-name="comma" horiz-adv-x="188" d="M77 0H41V106H147V11L92 -120H41L77 0Z" />
<glyph unicode="-" glyph-name="hyphen" horiz-adv-x="270" d="M25 400H245V300H25V400Z" />
<glyph unicode="." glyph-name="period" horiz-adv-x="188" d="M41 106H147V0H41V106Z" />
<glyph unicode="/" glyph-name="slash" horiz-adv-x="389" d="M285 700H380L104 0H9L285 700Z" />
<glyph unicode="0" glyph-name="zero" horiz-adv-x="400" d="M119 -10T76 36T33 166V534Q33 618 76 664T200 710Q281 710 324 664T367 534V166Q367 82 324 36T200 -10Q119 -10 76 36ZM257 90T257 159V541Q257 610 200 610Q143 610 143 541V159Q143 90 200 90Q257
90 257 159Z" />
<glyph unicode="1" glyph-name="one" horiz-adv-x="400" d="M195 534H80V612Q127 612 155 620T201 646T231 700H305V0H195V534Z" />
<glyph unicode="2" glyph-name="two" horiz-adv-x="400" d="M39 76Q39 151 63 204T149 323Q210 388 233 434T257 530Q257 575 243 592T200 610Q143 610 143 541V466H39V534Q39 619 81 664T203 710Q283 710 325 665T367 534Q367 470 337 409T231 269Q182 217 165
185T148 115V100H357V0H39V76Z" />
<glyph unicode="3" glyph-name="three" horiz-adv-x="400" d="M116 -10T75 35T33 164V221H137V159Q137 90 194 90Q222 90 236 107T251 169V226Q251 274 234 294T179 315H142V415H182Q215 415 231 432T248 489V540Q248 576 233 593T193 610Q140 610 140 545V499H36V536Q36
620 77 665T197 710Q276 710 317 666T358 537V512Q358 455 339 421T280 371V369Q323 353 342 317T361 225V163Q361 79 320 35T197 -10Q116 -10 75 35Z" />
<glyph unicode="4" glyph-name="four" horiz-adv-x="400" d="M225 127H15V227L215 700H335V227H387V127H335V0H225V127ZM225 227V500H223L115 227H225Z" />
<glyph unicode="5" glyph-name="five" horiz-adv-x="400" d="M122 -10T80 35T38 166V221H142V158Q142 90 199 90Q256 90 256 158V315Q256 384 199 384Q142 384 142 315V309H38L58 700H348V600H156L147 433H149Q180 484 244 484Q304 484 335 443T366 324V166Q366
81 324 36T202 -10Q122 -10 80 35Z" />
<glyph unicode="6" glyph-name="six" horiz-adv-x="400" d="M122 -10T79 36T36 166V528Q36 710 204 710Q284 710 326 665T368 534V521H264V541Q264 610 207 610Q176 610 161 591T146 524V390H148Q177 451 248 451Q308 451 339 410T370 291V166Q370 82 327 36T203
-10Q122 -10 79 36ZM260 90T260 158V282Q260 351 203 351Q146 351 146 282V158Q146 90 203 90Q260 90 260 158Z" />
<glyph unicode="7" glyph-name="seven" horiz-adv-x="400" d="M256 600H34V700H364V604L192 0H80L256 600Z" />
<glyph unicode="8" glyph-name="eight" horiz-adv-x="400" d="M117 -10T73 34T28 163V225Q28 277 45 312T100 368V370Q65 389 49 422T32 508V537Q32 621 75 665T200 710Q281 710 324 666T368 537V508Q368 408 300 370V368Q338 348 355 313T372 225V163Q372 79
328 35T200 -10Q117 -10 73 34ZM258 415T258 485V540Q258 610 200 610Q142 610 142 540V485Q142 415 200 415Q258 415 258 485ZM262 90T262 169V236Q262 315 200 315Q138 315 138 236V169Q138 90 200 90Q262 90 262 169Z" />
<glyph unicode="9" glyph-name="nine" horiz-adv-x="400" d="M116 -10T74 35T32 166V179H136V159Q136 90 193 90Q224 90 239 109T254 176V310H252Q223 249 152 249Q92 249 61 290T30 409V534Q30 618 73 664T197 710Q278 710 321 664T364 534V172Q364 -10 196 -10Q116
-10 74 35ZM254 349T254 418V542Q254 610 197 610Q140 610 140 542V418Q140 349 197 349Q254 349 254 418Z" />
<glyph unicode=":" glyph-name="colon" horiz-adv-x="188" d="M41 487H147V381H41V487ZM41 106H147V0H41V106Z" />
<glyph unicode=";" glyph-name="semicolon" horiz-adv-x="188" d="M41 487H147V381H41V487ZM77 0H41V106H147V11L86 -120H35L77 0Z" />
<glyph unicode="&lt;" glyph-name="less" horiz-adv-x="400" d="M40 313V387L346 519V439L135 350L346 261V181L40 313Z" />
<glyph unicode="=" glyph-name="equal" horiz-adv-x="400" d="M37 470H363V392H37V470ZM37 308H363V230H37V308Z" />
<glyph unicode="&gt;" glyph-name="greater" horiz-adv-x="400" d="M54 261L265 350L54 439V519L360 387V313L54 181V261Z" />
<glyph unicode="?" glyph-name="question" horiz-adv-x="363" d="M117 227Q117 264 128 297T171 375Q207 426 220 463T233 541Q233 577 219 593T178 610Q151 610 137 594T123 541V465H19V534Q19 619 60 664T180 710Q260 710 301 665T343 534Q343 488 327 446T270
350Q238 307 226 279T213 223V185H117V227ZM112 106H218V0H112V106Z" />
<glyph unicode="@" glyph-name="at" horiz-adv-x="696" d="M183 -60T104 33T25 290Q25 417 66 519T191 680T394 740Q542 740 607 660T672 446Q672 334 641 264T566 164T477 133Q396 133 390 199H388Q373 168 350 154T294 139Q249 139 225 170T200 259Q200 271
202 293L213 394Q230 542 333 542Q395 542 415 481H417L426 538H519L490 259L489 243Q489 224 509 224Q548 224 568 292T589 444Q589 542 540 598T390 655Q258 655 189 557T119 285Q119 161 177 93T352 24Q412 24 460 39T559 92L551 -4Q504 -35 455 -47T346 -60Q183
-60 104 33ZM391 232T398 295L408 390L409 402Q409 424 397 435T365 446Q340 446 326 432T308 383L299 298L298 283Q298 257 309 245T342 232Q391 232 398 295Z" />
<glyph unicode="A" glyph-name="A" horiz-adv-x="401" d="M126 700H275L389 0H279L259 139V137H134L114 0H12L126 700ZM246 232L197 578H195L147 232H246Z" />
<glyph unicode="B" glyph-name="B" horiz-adv-x="404" d="M41 700H207Q292 700 331 661T370 539V511Q370 457 353 423T299 374V372Q381 344 381 226V166Q381 85 339 43T214 0H41V700ZM194 415Q227 415 243 432T260 489V528Q260 566 247 583T204 600H151V415H194ZM214
100Q243 100 257 115T271 169V230Q271 278 255 296T200 315H151V100H214Z" />
<glyph unicode="C" glyph-name="C" horiz-adv-x="383" d="M117 -10T76 35T34 162V538Q34 620 75 665T196 710Q275 710 316 665T358 538V464H254V545Q254 610 199 610Q144 610 144 545V154Q144 90 199 90Q254 90 254 154V261H358V162Q358 80 317 35T196 -10Q117
-10 76 35Z" />
<glyph unicode="D" glyph-name="D" horiz-adv-x="406" d="M41 700H209Q291 700 332 656T373 527V173Q373 88 332 44T209 0H41V700ZM207 100Q234 100 248 116T263 168V532Q263 568 249 584T207 600H151V100H207Z" />
<glyph unicode="E" glyph-name="E" horiz-adv-x="363" d="M41 700H341V600H151V415H302V315H151V100H341V0H41V700Z" />
<glyph unicode="F" glyph-name="F" horiz-adv-x="344" d="M41 700H332V600H151V405H293V305H151V0H41V700Z" />
<glyph unicode="G" glyph-name="G" horiz-adv-x="391" d="M117 -10T75 35T33 166V534Q33 619 75 664T197 710Q277 710 319 665T361 534V474H257V541Q257 610 200 610Q143 610 143 541V158Q143 90 200 90Q257 90 257 158V295H202V395H361V166Q361 81 319 36T197
-10Q117 -10 75 35Z" />
<glyph unicode="H" glyph-name="H" horiz-adv-x="420" d="M41 700H151V415H269V700H379V0H269V315H151V0H41V700Z" />
<glyph unicode="I" glyph-name="I" horiz-adv-x="192" d="M41 700H151V0H41V700Z" />
<glyph unicode="J" glyph-name="J" horiz-adv-x="265" d="M37 -4T16 0V100Q32 96 52 96Q85 96 101 112T117 163V700H227V166Q227 80 188 38T67 -4Q37 -4 16 0Z" />
<glyph unicode="K" glyph-name="K" horiz-adv-x="414" d="M41 700H151V405L291 700H401L270 443L403 0H288L195 312L151 223V0H41V700Z" />
<glyph unicode="L" glyph-name="L" horiz-adv-x="344" d="M41 700H151V100H332V0H41V700Z" />
<glyph unicode="M" glyph-name="M" horiz-adv-x="538" d="M41 700H198L268 199H270L340 700H497V0H393V530H391L311 0H219L139 530H137V0H41V700Z" />
<glyph unicode="N" glyph-name="N" horiz-adv-x="427" d="M41 700H179L286 281H288V700H386V0H273L141 511H139V0H41V700Z" />
<glyph unicode="O" glyph-name="O" horiz-adv-x="400" d="M119 -10T76 36T33 166V534Q33 618 76 664T200 710Q281 710 324 664T367 534V166Q367 82 324 36T200 -10Q119 -10 76 36ZM257 90T257 159V541Q257 610 200 610Q143 610 143 541V159Q143 90 200 90Q257
90 257 159Z" />
<glyph unicode="P" glyph-name="P" horiz-adv-x="386" d="M41 700H203Q285 700 326 656T367 527V458Q367 373 326 329T203 285H151V0H41V700ZM203 385Q230 385 243 400T257 451V534Q257 570 244 585T203 600H151V385H203Z" />
<glyph unicode="Q" glyph-name="Q" horiz-adv-x="400" d="M290 -65T273 2Q242 -10 200 -10Q119 -10 76 36T33 166V534Q33 618 76 664T200 710Q281 710 324 664T367 534V166Q367 96 336 51Q342 41 351 38T377 35H394V-65H365Q290 -65 273 2ZM257 90T257 159V541Q257
610 200 610Q143 610 143 541V159Q143 90 200 90Q257 90 257 159Z" />
<glyph unicode="R" glyph-name="R" horiz-adv-x="403" d="M41 700H204Q289 700 328 661T367 539V496Q367 387 295 358V356Q335 344 351 307T368 208V85Q368 55 370 37T380 0H268Q262 17 260 32T258 86V214Q258 262 243 281T189 300H151V0H41V700ZM191 400Q224
400 240 417T257 474V528Q257 566 244 583T201 600H151V400H191Z" />
<glyph unicode="S" glyph-name="S" horiz-adv-x="372" d="M104 -10T63 35T22 166V206H126V158Q126 90 183 90Q211 90 225 106T240 160Q240 204 220 237T146 318Q78 378 51 426T24 536Q24 619 66 664T188 710Q267 710 307 665T348 534V505H244V541Q244 577 230
593T189 610Q134 610 134 543Q134 505 154 472T229 392Q298 332 324 283T350 168Q350 82 308 36T184 -10Q104 -10 63 35Z" />
<glyph unicode="T" glyph-name="T" horiz-adv-x="364" d="M127 600H12V700H352V600H237V0H127V600Z" />
<glyph unicode="U" glyph-name="U" horiz-adv-x="402" d="M121 -10T79 35T37 166V700H147V158Q147 122 161 106T203 90Q230 90 244 106T259 158V700H365V166Q365 81 323 36T201 -10Q121 -10 79 35Z" />
<glyph unicode="V" glyph-name="V" horiz-adv-x="382" d="M12 700H123L195 157H197L269 700H370L264 0H118L12 700Z" />
<glyph unicode="W" glyph-name="W" horiz-adv-x="557" d="M15 700H121L170 162H172L224 700H344L396 162H398L447 700H542L471 0H334L284 472H282L232 0H86L15 700Z" />
<glyph unicode="X" glyph-name="X" horiz-adv-x="406" d="M138 358L17 700H133L207 474H209L285 700H389L268 358L395 0H279L199 244H197L115 0H11L138 358Z" />
<glyph unicode="Y" glyph-name="Y" horiz-adv-x="394" d="M142 298L9 700H126L201 443H203L278 700H385L252 298V0H142V298Z" />
<glyph unicode="Z" glyph-name="Z" horiz-adv-x="362" d="M19 98L223 600H29V700H341V602L137 100H341V0H19V98Z" />
<glyph unicode="[" glyph-name="bracketleft" horiz-adv-x="276" d="M59 750H241V660H169V40H241V-50H59V750Z" />
<glyph unicode="\" glyph-name="backslash" horiz-adv-x="389" d="M9 700H104L380 0H285L9 700Z" />
<glyph unicode="]" glyph-name="bracketright" horiz-adv-x="276" d="M35 40H107V660H35V750H217V-50H35V40Z" />
<glyph unicode="^" glyph-name="asciicircum" horiz-adv-x="400" d="M162 700H236L379 430H289L199 600L109 430H19L162 700Z" />
<glyph unicode="_" glyph-name="underscore" horiz-adv-x="300" d="M0 -10H300V-90H0V-10Z" />
<glyph unicode="`" glyph-name="grave" horiz-adv-x="500" d="M120 862H240L310 747H227L120 862Z" />
<glyph unicode="a" glyph-name="a" horiz-adv-x="401" d="M126 700H275L389 0H279L259 139V137H134L114 0H12L126 700ZM246 232L197 578H195L147 232H246Z" />
<glyph unicode="b" glyph-name="b" horiz-adv-x="404" d="M41 700H207Q292 700 331 661T370 539V511Q370 457 353 423T299 374V372Q381 344 381 226V166Q381 85 339 43T214 0H41V700ZM194 415Q227 415 243 432T260 489V528Q260 566 247 583T204 600H151V415H194ZM214
100Q243 100 257 115T271 169V230Q271 278 255 296T200 315H151V100H214Z" />
<glyph unicode="c" glyph-name="c" horiz-adv-x="383" d="M117 -10T76 35T34 162V538Q34 620 75 665T196 710Q275 710 316 665T358 538V464H254V545Q254 610 199 610Q144 610 144 545V154Q144 90 199 90Q254 90 254 154V261H358V162Q358 80 317 35T196 -10Q117
-10 76 35Z" />
<glyph unicode="d" glyph-name="d" horiz-adv-x="406" d="M41 700H209Q291 700 332 656T373 527V173Q373 88 332 44T209 0H41V700ZM207 100Q234 100 248 116T263 168V532Q263 568 249 584T207 600H151V100H207Z" />
<glyph unicode="e" glyph-name="e" horiz-adv-x="363" d="M41 700H341V600H151V415H302V315H151V100H341V0H41V700Z" />
<glyph unicode="f" glyph-name="f" horiz-adv-x="344" d="M41 700H332V600H151V405H293V305H151V0H41V700Z" />
<glyph unicode="g" glyph-name="g" horiz-adv-x="391" d="M117 -10T75 35T33 166V534Q33 619 75 664T197 710Q277 710 319 665T361 534V474H257V541Q257 610 200 610Q143 610 143 541V158Q143 90 200 90Q257 90 257 158V295H202V395H361V166Q361 81 319 36T197
-10Q117 -10 75 35Z" />
<glyph unicode="h" glyph-name="h" horiz-adv-x="420" d="M41 700H151V415H269V700H379V0H269V315H151V0H41V700Z" />
<glyph unicode="i" glyph-name="i" horiz-adv-x="192" d="M41 700H151V0H41V700Z" />
<glyph unicode="j" glyph-name="j" horiz-adv-x="265" d="M37 -4T16 0V100Q32 96 52 96Q85 96 101 112T117 163V700H227V166Q227 80 188 38T67 -4Q37 -4 16 0Z" />
<glyph unicode="k" glyph-name="k" horiz-adv-x="414" d="M41 700H151V405L291 700H401L270 443L403 0H288L195 312L151 223V0H41V700Z" />
<glyph unicode="l" glyph-name="l" horiz-adv-x="344" d="M41 700H151V100H332V0H41V700Z" />
<glyph unicode="m" glyph-name="m" horiz-adv-x="538" d="M41 700H198L268 199H270L340 700H497V0H393V530H391L311 0H219L139 530H137V0H41V700Z" />
<glyph unicode="n" glyph-name="n" horiz-adv-x="427" d="M41 700H179L286 281H288V700H386V0H273L141 511H139V0H41V700Z" />
<glyph unicode="o" glyph-name="o" horiz-adv-x="400" d="M119 -10T76 36T33 166V534Q33 618 76 664T200 710Q281 710 324 664T367 534V166Q367 82 324 36T200 -10Q119 -10 76 36ZM257 90T257 159V541Q257 610 200 610Q143 610 143 541V159Q143 90 200 90Q257
90 257 159Z" />
<glyph unicode="p" glyph-name="p" horiz-adv-x="386" d="M41 700H203Q285 700 326 656T367 527V458Q367 373 326 329T203 285H151V0H41V700ZM203 385Q230 385 243 400T257 451V534Q257 570 244 585T203 600H151V385H203Z" />
<glyph unicode="q" glyph-name="q" horiz-adv-x="400" d="M290 -65T273 2Q242 -10 200 -10Q119 -10 76 36T33 166V534Q33 618 76 664T200 710Q281 710 324 664T367 534V166Q367 96 336 51Q342 41 351 38T377 35H394V-65H365Q290 -65 273 2ZM257 90T257 159V541Q257
610 200 610Q143 610 143 541V159Q143 90 200 90Q257 90 257 159Z" />
<glyph unicode="r" glyph-name="r" horiz-adv-x="403" d="M41 700H204Q289 700 328 661T367 539V496Q367 387 295 358V356Q335 344 351 307T368 208V85Q368 55 370 37T380 0H268Q262 17 260 32T258 86V214Q258 262 243 281T189 300H151V0H41V700ZM191 400Q224
400 240 417T257 474V528Q257 566 244 583T201 600H151V400H191Z" />
<glyph unicode="s" glyph-name="s" horiz-adv-x="372" d="M104 -10T63 35T22 166V206H126V158Q126 90 183 90Q211 90 225 106T240 160Q240 204 220 237T146 318Q78 378 51 426T24 536Q24 619 66 664T188 710Q267 710 307 665T348 534V505H244V541Q244 577 230
593T189 610Q134 610 134 543Q134 505 154 472T229 392Q298 332 324 283T350 168Q350 82 308 36T184 -10Q104 -10 63 35Z" />
<glyph unicode="t" glyph-name="t" horiz-adv-x="364" d="M127 600H12V700H352V600H237V0H127V600Z" />
<glyph unicode="u" glyph-name="u" horiz-adv-x="402" d="M121 -10T79 35T37 166V700H147V158Q147 122 161 106T203 90Q230 90 244 106T259 158V700H365V166Q365 81 323 36T201 -10Q121 -10 79 35Z" />
<glyph unicode="v" glyph-name="v" horiz-adv-x="382" d="M12 700H123L195 157H197L269 700H370L264 0H118L12 700Z" />
<glyph unicode="w" glyph-name="w" horiz-adv-x="557" d="M15 700H121L170 162H172L224 700H344L396 162H398L447 700H542L471 0H334L284 472H282L232 0H86L15 700Z" />
<glyph unicode="x" glyph-name="x" horiz-adv-x="406" d="M138 358L17 700H133L207 474H209L285 700H389L268 358L395 0H279L199 244H197L115 0H11L138 358Z" />
<glyph unicode="y" glyph-name="y" horiz-adv-x="394" d="M142 298L9 700H126L201 443H203L278 700H385L252 298V0H142V298Z" />
<glyph unicode="z" glyph-name="z" horiz-adv-x="362" d="M19 98L223 600H29V700H341V602L137 100H341V0H19V98Z" />
<glyph unicode="{" glyph-name="braceleft" horiz-adv-x="276" d="M146 -50T115 -22T84 61V245Q84 280 71 292T21 305V395Q58 395 71 407T84 455V639Q84 694 115 722T195 750H251V660H235Q208 660 195 645T182 589V439Q182 369 121 351V349Q182 331 182 261V111Q182
71 195 56T235 40H251V-50H195Q146 -50 115 -22Z" />
<glyph unicode="|" glyph-name="bar" horiz-adv-x="500" d="M205 800H295V-200H205V800Z" />
<glyph unicode="}" glyph-name="braceright" horiz-adv-x="276" d="M25 40H41Q68 40 81 55T94 111V261Q94 331 155 349V351Q94 369 94 439V589Q94 629 81 644T41 660H25V750H81Q130 750 161 722T192 639V455Q192 420 205 408T255 395V305Q218 305 205 293T192
245V61Q192 6 161 -22T81 -50H25V40Z" />
<glyph unicode="~" glyph-name="asciitilde" horiz-adv-x="400" d="M12 320Q43 373 69 396T133 420Q150 420 165 414T207 391Q234 374 244 369T266 363Q283 363 295 375T331 423L388 380Q357 327 331 304T267 280Q250 280 235 286T193 309Q166 326 156 331T134
337Q117 337 105 325T69 277L12 320Z" />
<glyph unicode="&#xa0;" glyph-name="uni00A0" horiz-adv-x="160" />
<glyph unicode="&#xa1;" glyph-name="exclamdown" horiz-adv-x="210" d="M52 700H158V594H52V700ZM50 292L64 515H146L160 292V0H50V292Z" />
<glyph unicode="&#xa2;" glyph-name="cent" horiz-adv-x="400" d="M262 444V483Q262 548 207 548Q152 548 152 483V216Q152 152 207 152Q262 152 262 216V281H366V224Q366 155 336 112T248 56V-20H158V57Q101 69 72 112T42 224V476Q42 545 71 588T158 643V710H248V644Q306
632 336 589T366 476V444H262Z" />
<glyph unicode="&#xa3;" glyph-name="sterling" horiz-adv-x="400" d="M35 94Q80 115 105 154T130 238Q130 255 127 270H35V355H109Q84 401 73 425T53 480T45 551Q45 622 87 666T207 710Q287 710 328 665T369 534V493H265V541Q265 577 251 593T210 610Q183 610
169 594T155 541Q155 502 166 467T196 390L211 355H333V270H230Q230 218 216 177T161 100H362V0H35V94Z" />
<glyph unicode="&#xa4;" glyph-name="currency" horiz-adv-x="400" d="M31 230L89 283Q71 312 71 350Q71 389 89 417L31 470L80 519L133 460Q163 479 200 479Q237 479 267 460L320 519L369 470L311 417Q329 389 329 350Q329 312 311 283L369 230L320 181L267 240Q237
221 200 221Q163 221 133 240L80 181L31 230ZM224 297T238 311T253 350Q253 374 239 388T200 403Q176 403 162 389T147 350Q147 326 161 312T200 297Q224 297 238 311Z" />
<glyph unicode="&#xa5;" glyph-name="yen" horiz-adv-x="400" d="M145 112H56V181H145V254H56V323H138L11 700H128L204 439H206L282 700H389L262 323H348V254H255V181H348V112H255V0H145V112Z" />
<glyph unicode="&#xa6;" glyph-name="brokenbar" horiz-adv-x="500" d="M205 800H295V400H205V800ZM205 200H295V-200H205V200Z" />
<glyph unicode="&#xa7;" glyph-name="section" horiz-adv-x="400" d="M119 -107T77 -68T34 36V76H138V51Q138 21 153 3T198 -16Q227 -16 242 1T258 47Q258 74 240 91T172 126Q88 155 56 194T23 291Q23 334 41 369T98 425V427Q61 454 47 486T32 561Q32 626 75 668T200
710Q281 710 323 671T366 567V537H262V552Q262 582 247 600T202 619Q173 619 158 602T142 556Q142 529 160 512T228 477Q312 448 344 409T377 312Q377 269 359 234T302 177V175Q340 148 354 117T368 42Q368 -23 325 -65T200 -107Q119 -107 77 -68ZM242 228T257
248T272 297Q272 331 251 350T190 383Q158 375 143 355T128 306Q128 272 149 253T210 220Q242 228 257 248Z" />
<glyph unicode="&#xa8;" glyph-name="dieresis" horiz-adv-x="500" d="M124 849H222V747H124V849ZM278 849H376V747H278V849Z" />
<glyph unicode="&#xa9;" glyph-name="copyright" horiz-adv-x="738" d="M270 -10T191 37T66 166T21 350Q21 452 66 534T190 663T369 710Q468 710 547 663T672 534T717 350Q717 248 672 166T548 37T369 -10Q270 -10 191 37ZM448 60T511 97T609 200T645 350Q645
433 610 499T511 603T369 640Q290 640 227 603T129 500T93 350Q93 267 128 201T227 97T369 60Q448 60 511 97ZM309 130T281 161T252 252V446Q252 506 280 538T365 570Q421 570 449 538T478 446V410H406V452Q406 500 367 500Q328 500 328 452V248Q328 201 367 201Q406
201 406 248V308H478V252Q478 193 450 162T365 130Q309 130 281 161Z" />
<glyph unicode="&#xaa;" glyph-name="ordfeminine" horiz-adv-x="280" d="M69 333T50 358T30 429V433Q30 494 64 523T172 556V609Q172 646 142 646Q124 646 116 636T108 603V590H42V599Q42 710 143 710Q192 710 217 681T242 599V338H183L180 386H178Q154 333 108
333Q69 333 50 358ZM165 397T172 433V504Q135 502 118 488T100 444V435Q100 397 133 397Q165 397 172 433ZM30 282H242V214H30V282Z" />
<glyph unicode="&#xab;" glyph-name="guillemotleft" horiz-adv-x="336" d="M14 346L91 456H171L114 346L171 230H91L14 346ZM163 346L239 456H319L263 346L319 230H239L163 346Z" />
<glyph unicode="&#xac;" glyph-name="logicalnot" horiz-adv-x="400" d="M290 311H22V389H368V174H290V311Z" />
<glyph unicode="&#xad;" glyph-name="uni00AD" horiz-adv-x="270" d="M25 400H245V300H25V400Z" />
<glyph unicode="&#xae;" glyph-name="registered" horiz-adv-x="738" d="M270 -10T191 37T66 166T21 350Q21 452 66 534T190 663T369 710Q468 710 547 663T672 534T717 350Q717 248 672 166T548 37T369 -10Q270 -10 191 37ZM448 60T511 97T609 200T645 350Q645
433 610 499T511 603T369 640Q290 640 227 603T129 500T93 350Q93 267 128 201T227 97T369 60Q448 60 511 97ZM259 564H375Q433 564 460 537T488 452V443Q488 373 436 350V348Q464 336 476 311T488 246V195Q488 156 497 136H419Q415 147 414 157T412 196V247Q412
281 400 295T361 309H335V136H259V564ZM366 379Q388 379 400 390T412 430V443Q412 469 403 481T371 494H335V379H366Z" />
<glyph unicode="&#xaf;" glyph-name="overscore" horiz-adv-x="500" d="M135 834H365V756H135V834Z" />
<glyph unicode="&#xb0;" glyph-name="degree" horiz-adv-x="400" d="M147 456T110 493T73 583Q73 636 110 673T200 710Q253 710 290 673T327 583Q327 530 290 493T200 456Q147 456 110 493ZM222 531T237 546T253 583Q253 605 238 620T200 636Q178 636 163 621T148
583Q148 561 163 546T200 531Q222 531 237 546Z" />
<glyph unicode="&#xb1;" glyph-name="plusminus" horiz-adv-x="400" d="M36 242H160V352H36V430H160V544H238V430H362V352H238V242H362V164H36V242Z" />
<glyph unicode="&#xb2;" glyph-name="uni00B2" horiz-adv-x="282" d="M38 401Q38 449 53 483T107 560Q146 600 161 630T176 695Q176 719 168 730T140 742Q104 742 104 698V657H38V694Q38 748 64 776T142 805Q193 805 219 777T246 697Q246 654 227 616T160 526Q129
492 118 472T107 426V414H240V351H38V401Z" />
<glyph unicode="&#xb3;" glyph-name="uni00B3" horiz-adv-x="282" d="M87 341T61 370T34 453V490H100V448Q100 404 136 404Q154 404 163 415T172 455V495Q172 526 162 538T127 551H103V614H130Q172 614 172 662V691Q172 719 163 730T136 742Q100 742 100 698V671H34V693Q34
747 60 776T138 805Q189 805 215 776T242 693V674Q242 639 230 618T193 585V583Q242 562 242 490V453Q242 399 216 370T138 341Q87 341 61 370Z" />
<glyph unicode="&#xb4;" glyph-name="acute" horiz-adv-x="500" d="M260 862H380L273 747H190L260 862Z" />
<glyph unicode="&#xb5;" glyph-name="uni00B5" horiz-adv-x="405" d="M41 500H151V149Q151 92 203 92Q230 92 245 108T261 161V500H371V0H271V52Q256 26 231 11T175 -4H151V-160H41V500Z" />
<glyph unicode="&#xb6;" glyph-name="paragraph" horiz-adv-x="449" d="M174 305Q132 305 99 327T46 388T26 476V527Q26 609 76 654T210 700H398V-97H316V620H256V-97H174V305Z" />
<glyph unicode="&#xb7;" glyph-name="middot" horiz-adv-x="188" d="M41 403H147V297H41V403Z" />
<glyph unicode="&#xb8;" glyph-name="cedilla" horiz-adv-x="500" d="M201 -147T176 -134T151 -89V-79H225V-87Q225 -97 231 -102T247 -107Q261 -107 267 -102T273 -83Q273 -69 264 -63T236 -57H231V14H280V-39Q314 -39 331 -50T349 -86Q349 -123 324 -135T247
-147Q201 -147 176 -134Z" />
<glyph unicode="&#xb9;" glyph-name="uni00B9" horiz-adv-x="282" d="M132 690H58V739Q101 739 121 751T156 795H202V351H132V690Z" />
<glyph unicode="&#xba;" glyph-name="ordmasculine" horiz-adv-x="282" d="M90 333T63 362T35 444V599Q35 652 62 681T141 710Q192 710 219 681T247 599V444Q247 391 220 362T141 333Q90 333 63 362ZM177 397T177 440V603Q177 646 141 646Q123 646 114 636T105
603V440Q105 417 114 407T141 397Q177 397 177 440ZM35 282H247V214H35V282Z" />
<glyph unicode="&#xbb;" glyph-name="guillemotright" horiz-adv-x="335" d="M17 230L73 346L17 456H97L173 346L97 230H17ZM165 230L221 346L165 456H245L321 346L245 230H165Z" />
<glyph unicode="&#xbc;" glyph-name="onequarter" horiz-adv-x="653" d="M132 595H58V644Q101 644 121 656T156 700H202V256H132V595ZM427 700H497L226 0H156L427 700ZM527 80H394V143L521 444H597V143H630V80H597V0H527V80ZM528 143V318H526L457 143H528Z" />
<glyph unicode="&#xbd;" glyph-name="onehalf" horiz-adv-x="653" d="M132 595H58V644Q101 644 121 656T156 700H202V256H132V595ZM427 700H497L226 0H156L427 700ZM409 50Q409 98 424 132T478 209Q517 249 532 279T547 344Q547 368 539 379T511 391Q475 391 475
347V306H409V343Q409 397 435 425T513 454Q564 454 590 426T617 346Q617 303 598 265T531 175Q500 141 489 121T478 75V63H611V0H409V50Z" />
<glyph unicode="&#xbe;" glyph-name="threequarters" horiz-adv-x="653" d="M87 246T61 275T34 358V395H100V353Q100 309 136 309Q154 309 163 320T172 360V400Q172 431 162 443T127 456H103V519H130Q172 519 172 567V596Q172 624 163 635T136 647Q100 647 100
603V576H34V598Q34 652 60 681T138 710Q189 710 215 681T242 598V579Q242 544 230 523T193 490V488Q242 467 242 395V358Q242 304 216 275T138 246Q87 246 61 275ZM427 700H497L226 0H156L427 700ZM527 80H394V143L521 444H597V143H630V80H597V0H527V80ZM528 143V318H526L457
143H528Z" />
<glyph unicode="&#xbf;" glyph-name="questiondown" horiz-adv-x="363" d="M251 594H145V700H251V594ZM246 473Q246 436 235 403T192 325Q156 274 143 237T130 159Q130 123 144 107T185 90Q212 90 226 106T240 159V235H344V166Q344 81 303 36T183 -10Q103 -10
62 35T20 166Q20 212 36 254T93 350Q125 393 137 421T150 477V515H246V473Z" />
<glyph unicode="&#xc0;" glyph-name="Agrave" horiz-adv-x="401" d="M126 700H275L389 0H279L259 139V137H134L114 0H12L126 700ZM246 232L197 578H195L147 232H246ZM71 862H191L261 747H178L71 862Z" />
<glyph unicode="&#xc1;" glyph-name="Aacute" horiz-adv-x="401" d="M126 700H275L389 0H279L259 139V137H134L114 0H12L126 700ZM246 232L197 578H195L147 232H246ZM211 862H331L224 747H141L211 862Z" />
<glyph unicode="&#xc2;" glyph-name="Acircumflex" horiz-adv-x="401" d="M126 700H275L389 0H279L259 139V137H134L114 0H12L126 700ZM246 232L197 578H195L147 232H246ZM149 862H253L335 747H252L201 802L150 747H67L149 862Z" />
<glyph unicode="&#xc3;" glyph-name="Atilde" horiz-adv-x="401" d="M126 700H275L389 0H279L259 139V137H134L114 0H12L126 700ZM246 232L197 578H195L147 232H246ZM62 775Q81 818 103 838T153 859Q171 859 184 854T213 840Q222 835 230 831T247 827Q259 827
268 836T287 866L340 834Q321 791 299 771T249 750Q231 750 218 755T189 769Q180 774 172 778T155 782Q143 782 134 773T115 743L62 775Z" />
<glyph unicode="&#xc4;" glyph-name="Adieresis" horiz-adv-x="401" d="M126 700H275L389 0H279L259 139V137H134L114 0H12L126 700ZM246 232L197 578H195L147 232H246ZM75 849H173V747H75V849ZM229 849H327V747H229V849Z" />
<glyph unicode="&#xc5;" glyph-name="Aring" horiz-adv-x="401" d="M126 700H275L389 0H279L259 139V137H134L114 0H12L126 700ZM246 232L197 578H195L147 232H246ZM163 736T138 761T112 824Q112 861 137 886T201 912Q239 912 264 887T290 824Q290 787 265 762T201
736Q163 736 138 761ZM215 789T224 798T233 824Q233 840 224 849T201 859Q187 859 178 850T169 824Q169 808 178 799T201 789Q215 789 224 798Z" />
<glyph unicode="&#xc6;" glyph-name="AE" horiz-adv-x="580" d="M197 700H558V600H368V415H519V315H368V100H558V0H258V137H150L115 0H10L197 700ZM258 232V565H256L174 232H258Z" />
<glyph unicode="&#xc7;" glyph-name="Ccedilla" horiz-adv-x="383" d="M254 464V545Q254 610 199 610Q144 610 144 545V154Q144 90 199 90Q254 90 254 154V261H358V162Q358 87 323 43T222 -9V-39Q256 -39 273 -50T291 -86Q291 -123 266 -135T189 -147Q143 -147
118 -134T93 -89V-79H167V-87Q167 -97 173 -102T189 -107Q203 -107 209 -102T215 -83Q215 -69 206 -63T178 -57H173V-9Q105 -2 70 42T34 162V538Q34 620 75 665T196 710Q275 710 316 665T358 538V464H254Z" />
<glyph unicode="&#xc8;" glyph-name="Egrave" horiz-adv-x="363" d="M41 700H341V600H151V415H302V315H151V100H341V0H41V700ZM61 862H181L251 747H168L61 862Z" />
<glyph unicode="&#xc9;" glyph-name="Eacute" horiz-adv-x="363" d="M41 700H341V600H151V415H302V315H151V100H341V0H41V700ZM457 862H577L470 747H387L457 862Z" />
<glyph unicode="&#xca;" glyph-name="Ecircumflex" horiz-adv-x="363" d="M41 700H341V600H151V415H302V315H151V100H341V0H41V700ZM139 862H243L325 747H242L191 802L140 747H57L139 862Z" />
<glyph unicode="&#xcb;" glyph-name="Edieresis" horiz-adv-x="363" d="M41 700H341V600H151V415H302V315H151V100H341V0H41V700ZM65 849H163V747H65V849ZM219 849H317V747H219V849Z" />
<glyph unicode="&#xcc;" glyph-name="Igrave" horiz-adv-x="192" d="M41 700H151V0H41V700ZM-34 862H86L156 747H73L-34 862Z" />
<glyph unicode="&#xcd;" glyph-name="Iacute" horiz-adv-x="192" d="M41 700H151V0H41V700ZM106 862H226L119 747H36L106 862Z" />
<glyph unicode="&#xce;" glyph-name="Icircumflex" horiz-adv-x="192" d="M41 700H151V0H41V700ZM44 862H148L230 747H147L96 802L45 747H-38L44 862Z" />
<glyph unicode="&#xcf;" glyph-name="Idieresis" horiz-adv-x="192" d="M41 700H151V0H41V700ZM-30 849H68V747H-30V849ZM124 849H222V747H124V849Z" />
<glyph unicode="&#xd0;" glyph-name="Eth" horiz-adv-x="423" d="M308 700T349 656T390 527V173Q390 88 349 44T226 0H58V318H10V412H58V700H226Q308 700 349 656ZM280 532Q280 568 266 584T224 600H168V412H224V318H168V100H224Q251 100 265 116T280 168V532Z" />
<glyph unicode="&#xd1;" glyph-name="Ntilde" horiz-adv-x="427" d="M41 700H179L286 281H288V700H386V0H273L141 511H139V0H41V700ZM75 775Q94 818 116 838T166 859Q184 859 197 854T226 840Q235 835 243 831T260 827Q272 827 281 836T300 866L353 834Q334 791
312 771T262 750Q244 750 231 755T202 769Q193 774 185 778T168 782Q156 782 147 773T128 743L75 775Z" />
<glyph unicode="&#xd2;" glyph-name="Ograve" horiz-adv-x="400" d="M119 -10T76 36T33 166V534Q33 618 76 664T200 710Q281 710 324 664T367 534V166Q367 82 324 36T200 -10Q119 -10 76 36ZM257 90T257 159V541Q257 610 200 610Q143 610 143 541V159Q143 90 200
90Q257 90 257 159ZM70 862H190L260 747H177L70 862Z" />
<glyph unicode="&#xd3;" glyph-name="Oacute" horiz-adv-x="400" d="M119 -10T76 36T33 166V534Q33 618 76 664T200 710Q281 710 324 664T367 534V166Q367 82 324 36T200 -10Q119 -10 76 36ZM257 90T257 159V541Q257 610 200 610Q143 610 143 541V159Q143 90 200
90Q257 90 257 159ZM210 862H330L223 747H140L210 862Z" />
<glyph unicode="&#xd4;" glyph-name="Ocircumflex" horiz-adv-x="400" d="M119 -10T76 36T33 166V534Q33 618 76 664T200 710Q281 710 324 664T367 534V166Q367 82 324 36T200 -10Q119 -10 76 36ZM257 90T257 159V541Q257 610 200 610Q143 610 143 541V159Q143
90 200 90Q257 90 257 159ZM148 862H252L334 747H251L200 802L149 747H66L148 862Z" />
<glyph unicode="&#xd5;" glyph-name="Otilde" horiz-adv-x="400" d="M119 -10T76 36T33 166V534Q33 618 76 664T200 710Q281 710 324 664T367 534V166Q367 82 324 36T200 -10Q119 -10 76 36ZM257 90T257 159V541Q257 610 200 610Q143 610 143 541V159Q143 90 200
90Q257 90 257 159ZM61 775Q80 818 102 838T152 859Q170 859 183 854T212 840Q221 835 229 831T246 827Q258 827 267 836T286 866L339 834Q320 791 298 771T248 750Q230 750 217 755T188 769Q179 774 171 778T154 782Q142 782 133 773T114 743L61 775Z" />
<glyph unicode="&#xd6;" glyph-name="Odieresis" horiz-adv-x="400" d="M119 -10T76 36T33 166V534Q33 618 76 664T200 710Q281 710 324 664T367 534V166Q367 82 324 36T200 -10Q119 -10 76 36ZM257 90T257 159V541Q257 610 200 610Q143 610 143 541V159Q143 90
200 90Q257 90 257 159ZM74 849H172V747H74V849ZM228 849H326V747H228V849Z" />
<glyph unicode="&#xd7;" glyph-name="multiply" horiz-adv-x="400" d="M40 240L146 350L41 459L94 512L200 403L306 513L359 460L253 350L359 240L306 187L200 297L93 187L40 240Z" />
<glyph unicode="&#xd8;" glyph-name="Oslash" horiz-adv-x="400" d="M348 629Q367 591 367 534V166Q367 82 324 36T200 -10Q140 -10 100 16L83 -26L23 0L52 71Q33 109 33 166V534Q33 618 76 664T200 710Q260 710 300 684L317 726L377 700L348 629ZM143 296L254
570Q244 610 200 610Q143 610 143 541V296ZM257 404L146 130Q156 90 200 90Q257 90 257 159V404Z" />
<glyph unicode="&#xd9;" glyph-name="Ugrave" horiz-adv-x="402" d="M121 -10T79 35T37 166V700H147V158Q147 122 161 106T203 90Q230 90 244 106T259 158V700H365V166Q365 81 323 36T201 -10Q121 -10 79 35ZM71 862H191L261 747H178L71 862Z" />
<glyph unicode="&#xda;" glyph-name="Uacute" horiz-adv-x="402" d="M121 -10T79 35T37 166V700H147V158Q147 122 161 106T203 90Q230 90 244 106T259 158V700H365V166Q365 81 323 36T201 -10Q121 -10 79 35ZM211 862H331L224 747H141L211 862Z" />
<glyph unicode="&#xdb;" glyph-name="Ucircumflex" horiz-adv-x="402" d="M121 -10T79 35T37 166V700H147V158Q147 122 161 106T203 90Q230 90 244 106T259 158V700H365V166Q365 81 323 36T201 -10Q121 -10 79 35ZM149 862H253L335 747H252L201 802L150 747H67L149 862Z" />
<glyph unicode="&#xdc;" glyph-name="Udieresis" horiz-adv-x="402" d="M121 -10T79 35T37 166V700H147V158Q147 122 161 106T203 90Q230 90 244 106T259 158V700H365V166Q365 81 323 36T201 -10Q121 -10 79 35ZM75 849H173V747H75V849ZM229 849H327V747H229V849Z" />
<glyph unicode="&#xdd;" glyph-name="Yacute" horiz-adv-x="394" d="M142 298L9 700H126L201 443H203L278 700H385L252 298V0H142V298ZM207 862H327L220 747H137L207 862Z" />
<glyph unicode="&#xde;" glyph-name="Thorn" horiz-adv-x="386" d="M41 700H151V601H203Q285 601 326 557T367 428V359Q367 274 326 230T203 186H151V0H41V700ZM203 286Q230 286 243 301T257 352V435Q257 471 244 486T203 501H151V286H203Z" />
<glyph unicode="&#xdf;" glyph-name="germandbls" horiz-adv-x="407" d="M41 700H375V602L298 413Q385 386 385 252V173Q385 88 344 44T221 0H194V100H221Q248 100 261 115T275 166V259Q275 295 262 310T221 325H194V418L267 600H151V0H41V700Z" />
<glyph unicode="&#xe0;" glyph-name="agrave" horiz-adv-x="401" d="M126 700H275L389 0H279L259 139V137H134L114 0H12L126 700ZM246 232L197 578H195L147 232H246ZM71 862H191L261 747H178L71 862Z" />
<glyph unicode="&#xe1;" glyph-name="aacute" horiz-adv-x="401" d="M126 700H275L389 0H279L259 139V137H134L114 0H12L126 700ZM246 232L197 578H195L147 232H246ZM211 862H331L224 747H141L211 862Z" />
<glyph unicode="&#xe2;" glyph-name="acircumflex" horiz-adv-x="401" d="M126 700H275L389 0H279L259 139V137H134L114 0H12L126 700ZM246 232L197 578H195L147 232H246ZM149 862H253L335 747H252L201 802L150 747H67L149 862Z" />
<glyph unicode="&#xe3;" glyph-name="atilde" horiz-adv-x="401" d="M126 700H275L389 0H279L259 139V137H134L114 0H12L126 700ZM246 232L197 578H195L147 232H246ZM62 775Q81 818 103 838T153 859Q171 859 184 854T213 840Q222 835 230 831T247 827Q259 827
268 836T287 866L340 834Q321 791 299 771T249 750Q231 750 218 755T189 769Q180 774 172 778T155 782Q143 782 134 773T115 743L62 775Z" />
<glyph unicode="&#xe4;" glyph-name="adieresis" horiz-adv-x="401" d="M126 700H275L389 0H279L259 139V137H134L114 0H12L126 700ZM246 232L197 578H195L147 232H246ZM75 849H173V747H75V849ZM229 849H327V747H229V849Z" />
<glyph unicode="&#xe5;" glyph-name="aring" horiz-adv-x="401" d="M126 700H275L389 0H279L259 139V137H134L114 0H12L126 700ZM246 232L197 578H195L147 232H246ZM163 736T138 761T112 824Q112 861 137 886T201 912Q239 912 264 887T290 824Q290 787 265 762T201
736Q163 736 138 761ZM215 789T224 798T233 824Q233 840 224 849T201 859Q187 859 178 850T169 824Q169 808 178 799T201 789Q215 789 224 798Z" />
<glyph unicode="&#xe6;" glyph-name="ae" horiz-adv-x="580" d="M197 700H558V600H368V415H519V315H368V100H558V0H258V137H150L115 0H10L197 700ZM258 232V565H256L174 232H258Z" />
<glyph unicode="&#xe7;" glyph-name="ccedilla" horiz-adv-x="383" d="M254 464V545Q254 610 199 610Q144 610 144 545V154Q144 90 199 90Q254 90 254 154V261H358V162Q358 87 323 43T222 -9V-39Q256 -39 273 -50T291 -86Q291 -123 266 -135T189 -147Q143 -147
118 -134T93 -89V-79H167V-87Q167 -97 173 -102T189 -107Q203 -107 209 -102T215 -83Q215 -69 206 -63T178 -57H173V-9Q105 -2 70 42T34 162V538Q34 620 75 665T196 710Q275 710 316 665T358 538V464H254Z" />
<glyph unicode="&#xe8;" glyph-name="egrave" horiz-adv-x="363" d="M41 700H341V600H151V415H302V315H151V100H341V0H41V700ZM61 862H181L251 747H168L61 862Z" />
<glyph unicode="&#xe9;" glyph-name="eacute" horiz-adv-x="363" d="M41 700H341V600H151V415H302V315H151V100H341V0H41V700ZM457 862H577L470 747H387L457 862Z" />
<glyph unicode="&#xea;" glyph-name="ecircumflex" horiz-adv-x="363" d="M41 700H341V600H151V415H302V315H151V100H341V0H41V700ZM139 862H243L325 747H242L191 802L140 747H57L139 862Z" />
<glyph unicode="&#xeb;" glyph-name="edieresis" horiz-adv-x="363" d="M41 700H341V600H151V415H302V315H151V100H341V0H41V700ZM65 849H163V747H65V849ZM219 849H317V747H219V849Z" />
<glyph unicode="&#xec;" glyph-name="igrave" horiz-adv-x="192" d="M41 700H151V0H41V700ZM-34 862H86L156 747H73L-34 862Z" />
<glyph unicode="&#xed;" glyph-name="iacute" horiz-adv-x="192" d="M41 700H151V0H41V700ZM106 862H226L119 747H36L106 862Z" />
<glyph unicode="&#xee;" glyph-name="icircumflex" horiz-adv-x="192" d="M41 700H151V0H41V700ZM44 862H148L230 747H147L96 802L45 747H-38L44 862Z" />
<glyph unicode="&#xef;" glyph-name="idieresis" horiz-adv-x="192" d="M41 700H151V0H41V700ZM-30 849H68V747H-30V849ZM124 849H222V747H124V849Z" />
<glyph unicode="&#xf0;" glyph-name="eth" horiz-adv-x="423" d="M308 700T349 656T390 527V173Q390 88 349 44T226 0H58V318H10V412H58V700H226Q308 700 349 656ZM280 532Q280 568 266 584T224 600H168V412H224V318H168V100H224Q251 100 265 116T280 168V532Z" />
<glyph unicode="&#xf1;" glyph-name="ntilde" horiz-adv-x="427" d="M41 700H179L286 281H288V700H386V0H273L141 511H139V0H41V700ZM75 775Q94 818 116 838T166 859Q184 859 197 854T226 840Q235 835 243 831T260 827Q272 827 281 836T300 866L353 834Q334 791
312 771T262 750Q244 750 231 755T202 769Q193 774 185 778T168 782Q156 782 147 773T128 743L75 775Z" />
<glyph unicode="&#xf2;" glyph-name="ograve" horiz-adv-x="400" d="M119 -10T76 36T33 166V534Q33 618 76 664T200 710Q281 710 324 664T367 534V166Q367 82 324 36T200 -10Q119 -10 76 36ZM257 90T257 159V541Q257 610 200 610Q143 610 143 541V159Q143 90 200
90Q257 90 257 159ZM70 862H190L260 747H177L70 862Z" />
<glyph unicode="&#xf3;" glyph-name="oacute" horiz-adv-x="400" d="M119 -10T76 36T33 166V534Q33 618 76 664T200 710Q281 710 324 664T367 534V166Q367 82 324 36T200 -10Q119 -10 76 36ZM257 90T257 159V541Q257 610 200 610Q143 610 143 541V159Q143 90 200
90Q257 90 257 159ZM210 862H330L223 747H140L210 862Z" />
<glyph unicode="&#xf4;" glyph-name="ocircumflex" horiz-adv-x="400" d="M119 -10T76 36T33 166V534Q33 618 76 664T200 710Q281 710 324 664T367 534V166Q367 82 324 36T200 -10Q119 -10 76 36ZM257 90T257 159V541Q257 610 200 610Q143 610 143 541V159Q143
90 200 90Q257 90 257 159ZM148 862H252L334 747H251L200 802L149 747H66L148 862Z" />
<glyph unicode="&#xf5;" glyph-name="otilde" horiz-adv-x="400" d="M119 -10T76 36T33 166V534Q33 618 76 664T200 710Q281 710 324 664T367 534V166Q367 82 324 36T200 -10Q119 -10 76 36ZM257 90T257 159V541Q257 610 200 610Q143 610 143 541V159Q143 90 200
90Q257 90 257 159ZM61 775Q80 818 102 838T152 859Q170 859 183 854T212 840Q221 835 229 831T246 827Q258 827 267 836T286 866L339 834Q320 791 298 771T248 750Q230 750 217 755T188 769Q179 774 171 778T154 782Q142 782 133 773T114 743L61 775Z" />
<glyph unicode="&#xf6;" glyph-name="odieresis" horiz-adv-x="400" d="M119 -10T76 36T33 166V534Q33 618 76 664T200 710Q281 710 324 664T367 534V166Q367 82 324 36T200 -10Q119 -10 76 36ZM257 90T257 159V541Q257 610 200 610Q143 610 143 541V159Q143 90
200 90Q257 90 257 159ZM74 849H172V747H74V849ZM228 849H326V747H228V849Z" />
<glyph unicode="&#xf7;" glyph-name="divide" horiz-adv-x="400" d="M147 555H253V449H147V555ZM27 389H373V311H27V389ZM147 250H253V144H147V250Z" />
<glyph unicode="&#xf8;" glyph-name="oslash" horiz-adv-x="400" d="M348 629Q367 591 367 534V166Q367 82 324 36T200 -10Q140 -10 100 16L83 -26L23 0L52 71Q33 109 33 166V534Q33 618 76 664T200 710Q260 710 300 684L317 726L377 700L348 629ZM143 296L254
570Q244 610 200 610Q143 610 143 541V296ZM257 404L146 130Q156 90 200 90Q257 90 257 159V404Z" />
<glyph unicode="&#xf9;" glyph-name="ugrave" horiz-adv-x="402" d="M121 -10T79 35T37 166V700H147V158Q147 122 161 106T203 90Q230 90 244 106T259 158V700H365V166Q365 81 323 36T201 -10Q121 -10 79 35ZM71 862H191L261 747H178L71 862Z" />
<glyph unicode="&#xfa;" glyph-name="uacute" horiz-adv-x="402" d="M121 -10T79 35T37 166V700H147V158Q147 122 161 106T203 90Q230 90 244 106T259 158V700H365V166Q365 81 323 36T201 -10Q121 -10 79 35ZM211 862H331L224 747H141L211 862Z" />
<glyph unicode="&#xfb;" glyph-name="ucircumflex" horiz-adv-x="402" d="M121 -10T79 35T37 166V700H147V158Q147 122 161 106T203 90Q230 90 244 106T259 158V700H365V166Q365 81 323 36T201 -10Q121 -10 79 35ZM149 862H253L335 747H252L201 802L150 747H67L149 862Z" />
<glyph unicode="&#xfc;" glyph-name="udieresis" horiz-adv-x="402" d="M121 -10T79 35T37 166V700H147V158Q147 122 161 106T203 90Q230 90 244 106T259 158V700H365V166Q365 81 323 36T201 -10Q121 -10 79 35ZM75 849H173V747H75V849ZM229 849H327V747H229V849Z" />
<glyph unicode="&#xfd;" glyph-name="yacute" horiz-adv-x="394" d="M142 298L9 700H126L201 443H203L278 700H385L252 298V0H142V298ZM207 862H327L220 747H137L207 862Z" />
<glyph unicode="&#xfe;" glyph-name="thorn" horiz-adv-x="386" d="M41 700H151V601H203Q285 601 326 557T367 428V359Q367 274 326 230T203 186H151V0H41V700ZM203 286Q230 286 243 301T257 352V435Q257 471 244 486T203 501H151V286H203Z" />
<glyph unicode="&#xff;" glyph-name="ydieresis" horiz-adv-x="394" d="M142 298L9 700H126L201 443H203L278 700H385L252 298V0H142V298ZM71 849H169V747H71V849ZM225 849H323V747H225V849Z" />
<glyph unicode="&#x2013;" glyph-name="endash" horiz-adv-x="300" d="M0 395H300V305H0V395Z" />
<glyph unicode="&#x2014;" glyph-name="emdash" horiz-adv-x="500" d="M0 395H500V305H0V395Z" />
<glyph unicode="&#x2018;" glyph-name="quoteleft" horiz-adv-x="188" d="M41 569L102 700H153L111 580H147V474H41V569Z" />
<glyph unicode="&#x2019;" glyph-name="quoteright" horiz-adv-x="188" d="M77 594H41V700H147V605L86 474H35L77 594Z" />
<glyph unicode="&#x201a;" glyph-name="quotesinglbase" horiz-adv-x="188" d="M78 0H42V106H148V11L93 -120H42L78 0Z" />
<glyph unicode="&#x201c;" glyph-name="quotedblleft" horiz-adv-x="336" d="M41 569L102 700H153L111 580H147V474H41V569ZM189 569L250 700H301L259 580H295V474H189V569Z" />
<glyph unicode="&#x201d;" glyph-name="quotedblright" horiz-adv-x="336" d="M77 594H41V700H147V605L86 474H35L77 594ZM225 594H189V700H295V605L234 474H183L225 594Z" />
<glyph unicode="&#x201e;" glyph-name="quotedblbase" horiz-adv-x="336" d="M77 0H41V106H147V11L86 -120H35L77 0ZM225 0H189V106H295V11L234 -120H183L225 0Z" />
<glyph unicode="&#x2022;" glyph-name="bullet" horiz-adv-x="300" d="M102 235T69 268T35 350Q35 398 68 431T150 465Q198 465 231 432T265 350Q265 302 232 269T150 235Q102 235 69 268Z" />
<glyph unicode="&#x2039;" glyph-name="guilsinglleft" horiz-adv-x="188" d="M14 346L91 456H171L114 346L171 230H91L14 346Z" />
<glyph unicode="&#x203a;" glyph-name="guilsinglright" horiz-adv-x="188" d="M17 230L74 346L17 456H97L174 346L97 230H17Z" />
</font>
</defs>
</svg>
