<?xml version="1.0" encoding="UTF-8" standalone="no"?>
<!DOCTYPE svg PUBLIC "-//W3C//DTD SVG 1.1//EN"
 "http://www.w3.org/Graphics/SVG/1.1/DTD/svg11.dtd">
<!-- Generated by graphviz version 5.0.0 (20220707.1540)
 -->
<!-- Title: dependencies Pages: 1 -->
<svg width="1761pt" height="247pt"
 viewBox="0.00 0.00 1761.00 246.80" xmlns="http://www.w3.org/2000/svg" xmlns:xlink="http://www.w3.org/1999/xlink">
<g id="graph0" class="graph" transform="scale(1 1) rotate(0) translate(4 242.8)">
<title>dependencies</title>
<polygon fill="white" stroke="transparent" points="-4,4 -4,-242.8 1757,-242.8 1757,4 -4,4"/>
<text text-anchor="middle" x="876.5" y="-8.2" font-family="sans-serif" font-size="14.00">dependencies</text>
<g id="clust1" class="cluster">
<title>cluster_AutomationModule</title>
<polygon fill="none" stroke="black" stroke-dasharray="1,5" points="8,-32.8 8,-230.8 1745,-230.8 1745,-32.8 8,-32.8"/>
</g>
<g id="clust2" class="cluster">
<title>cluster_AutomationModule_declarations</title>
<polygon fill="none" stroke="black" points="16,-40.8 16,-92.8 1737,-92.8 1737,-40.8 16,-40.8"/>
</g>
<g id="clust12" class="cluster">
<title>cluster_AutomationModule_exports</title>
<polygon fill="none" stroke="black" points="664,-170.8 664,-222.8 1130,-222.8 1130,-170.8 664,-170.8"/>
</g>
<!-- AccessTokenInputComponent -->
<g id="node1" class="node">
<title>AccessTokenInputComponent</title>
<polygon fill="#ffffb3" stroke="black" points="1729.3,-84.8 1542.7,-84.8 1542.7,-48.8 1729.3,-48.8 1729.3,-84.8"/>
<text text-anchor="middle" x="1636" y="-62.6" font-family="Times,serif" font-size="14.00">AccessTokenInputComponent</text>
</g>
<!-- AutomationModule -->
<g id="node9" class="node">
<title>AutomationModule</title>
<polygon fill="#8dd3c7" stroke="black" points="967.44,-149.8 964.44,-153.8 943.44,-153.8 940.44,-149.8 840.56,-149.8 840.56,-113.8 967.44,-113.8 967.44,-149.8"/>
<text text-anchor="middle" x="904" y="-127.6" font-family="Times,serif" font-size="14.00">AutomationModule</text>
</g>
<!-- AccessTokenInputComponent&#45;&gt;AutomationModule -->
<g id="edge1" class="edge">
<title>AccessTokenInputComponent&#45;&gt;AutomationModule</title>
<path fill="none" stroke="black" d="M1636,-85.09C1636,-107.01 1636,-140.8 1636,-140.8 1636,-140.8 977.36,-140.8 977.36,-140.8"/>
<polygon fill="black" stroke="black" points="977.36,-137.3 967.36,-140.8 977.36,-144.3 977.36,-137.3"/>
</g>
<!-- ApiAuthorizationTypePipe -->
<g id="node2" class="node">
<title>ApiAuthorizationTypePipe</title>
<polygon fill="#ffffb3" stroke="black" points="1525.41,-84.8 1356.59,-84.8 1356.59,-48.8 1525.41,-48.8 1525.41,-84.8"/>
<text text-anchor="middle" x="1441" y="-62.6" font-family="Times,serif" font-size="14.00">ApiAuthorizationTypePipe</text>
</g>
<!-- ApiAuthorizationTypePipe&#45;&gt;AutomationModule -->
<g id="edge2" class="edge">
<title>ApiAuthorizationTypePipe&#45;&gt;AutomationModule</title>
<path fill="none" stroke="black" d="M1441,-84.91C1441,-104.14 1441,-131.8 1441,-131.8 1441,-131.8 977.44,-131.8 977.44,-131.8"/>
<polygon fill="black" stroke="black" points="977.44,-128.3 967.44,-131.8 977.44,-135.3 977.44,-128.3"/>
</g>
<!-- ApiCallConfiguratorComponent -->
<g id="node3" class="node">
<title>ApiCallConfiguratorComponent</title>
<polygon fill="#ffffb3" stroke="black" points="1338.98,-84.8 1141.02,-84.8 1141.02,-48.8 1338.98,-48.8 1338.98,-84.8"/>
<text text-anchor="middle" x="1240" y="-62.6" font-family="Times,serif" font-size="14.00">ApiCallConfiguratorComponent</text>
</g>
<!-- ApiCallConfiguratorComponent&#45;&gt;AutomationModule -->
<g id="edge3" class="edge">
<title>ApiCallConfiguratorComponent&#45;&gt;AutomationModule</title>
<path fill="none" stroke="black" d="M1240,-84.83C1240,-101.2 1240,-122.8 1240,-122.8 1240,-122.8 977.59,-122.8 977.59,-122.8"/>
<polygon fill="black" stroke="black" points="977.59,-119.3 967.59,-122.8 977.59,-126.3 977.59,-119.3"/>
</g>
<!-- ApiConfigurationPreviewComponent -->
<g id="node4" class="node">
<title>ApiConfigurationPreviewComponent</title>
<polygon fill="#ffffb3" stroke="black" points="1123.25,-84.8 896.75,-84.8 896.75,-48.8 1123.25,-48.8 1123.25,-84.8"/>
<text text-anchor="middle" x="1010" y="-62.6" font-family="Times,serif" font-size="14.00">ApiConfigurationPreviewComponent</text>
</g>
<!-- ApiConfigurationPreviewComponent&#45;&gt;AutomationModule -->
<g id="edge4" class="edge">
<title>ApiConfigurationPreviewComponent&#45;&gt;AutomationModule</title>
<path fill="none" stroke="black" d="M931.92,-84.91C931.92,-84.91 931.92,-103.79 931.92,-103.79"/>
<polygon fill="black" stroke="black" points="928.42,-103.79 931.92,-113.79 935.42,-103.79 928.42,-103.79"/>
</g>
<!-- ApiLoginTestComponent -->
<g id="node5" class="node">
<title>ApiLoginTestComponent</title>
<polygon fill="#ffffb3" stroke="black" points="878.88,-84.8 719.12,-84.8 719.12,-48.8 878.88,-48.8 878.88,-84.8"/>
<text text-anchor="middle" x="799" y="-62.6" font-family="Times,serif" font-size="14.00">ApiLoginTestComponent</text>
</g>
<!-- ApiLoginTestComponent&#45;&gt;AutomationModule -->
<g id="edge5" class="edge">
<title>ApiLoginTestComponent&#45;&gt;AutomationModule</title>
<path fill="none" stroke="black" d="M859.86,-84.91C859.86,-84.91 859.86,-103.79 859.86,-103.79"/>
<polygon fill="black" stroke="black" points="856.36,-103.79 859.86,-113.79 863.36,-103.79 856.36,-103.79"/>
</g>
<!-- EndpointInputComponent -->
<g id="node6" class="node">
<title>EndpointInputComponent</title>
<polygon fill="#ffffb3" stroke="black" points="701.21,-84.8 538.79,-84.8 538.79,-48.8 701.21,-48.8 701.21,-84.8"/>
<text text-anchor="middle" x="620" y="-62.6" font-family="Times,serif" font-size="14.00">EndpointInputComponent</text>
</g>
<!-- EndpointInputComponent&#45;&gt;AutomationModule -->
<g id="edge6" class="edge">
<title>EndpointInputComponent&#45;&gt;AutomationModule</title>
<path fill="none" stroke="black" d="M686.49,-84.83C686.49,-101.2 686.49,-122.8 686.49,-122.8 686.49,-122.8 830.5,-122.8 830.5,-122.8"/>
<polygon fill="black" stroke="black" points="830.5,-126.3 840.5,-122.8 830.5,-119.3 830.5,-126.3"/>
</g>
<!-- SelectApiAuthorizationComponent -->
<g id="node7" class="node">
<title>SelectApiAuthorizationComponent</title>
<polygon fill="#ffffb3" stroke="black" points="521.3,-84.8 306.7,-84.8 306.7,-48.8 521.3,-48.8 521.3,-84.8"/>
<text text-anchor="middle" x="414" y="-62.6" font-family="Times,serif" font-size="14.00">SelectApiAuthorizationComponent</text>
</g>
<!-- SelectApiAuthorizationComponent&#45;&gt;AutomationModule -->
<g id="edge7" class="edge">
<title>SelectApiAuthorizationComponent&#45;&gt;AutomationModule</title>
<path fill="none" stroke="black" d="M414,-84.91C414,-104.14 414,-131.8 414,-131.8 414,-131.8 830.69,-131.8 830.69,-131.8"/>
<polygon fill="black" stroke="black" points="830.69,-135.3 840.69,-131.8 830.69,-128.3 830.69,-135.3"/>
</g>
<!-- UsernamePasswordCombinationComponent -->
<g id="node8" class="node">
<title>UsernamePasswordCombinationComponent</title>
<polygon fill="#ffffb3" stroke="black" points="288.36,-84.8 23.64,-84.8 23.64,-48.8 288.36,-48.8 288.36,-84.8"/>
<text text-anchor="middle" x="156" y="-62.6" font-family="Times,serif" font-size="14.00">UsernamePasswordCombinationComponent</text>
</g>
<!-- UsernamePasswordCombinationComponent&#45;&gt;AutomationModule -->
<g id="edge8" class="edge">
<title>UsernamePasswordCombinationComponent&#45;&gt;AutomationModule</title>
<path fill="none" stroke="black" d="M156,-85.09C156,-107.01 156,-140.8 156,-140.8 156,-140.8 830.55,-140.8 830.55,-140.8"/>
<polygon fill="black" stroke="black" points="830.55,-144.3 840.55,-140.8 830.55,-137.3 830.55,-144.3"/>
</g>
<!-- ApiCallConfiguratorComponent  -->
<g id="node10" class="node">
<title>ApiCallConfiguratorComponent </title>
<polygon fill="#fb8072" stroke="black" points="1121.98,-214.8 920.02,-214.8 920.02,-178.8 1121.98,-178.8 1121.98,-214.8"/>
<text text-anchor="middle" x="1021" y="-192.6" font-family="Times,serif" font-size="14.00">ApiCallConfiguratorComponent </text>
</g>
<!-- AutomationModule&#45;&gt;ApiCallConfiguratorComponent  -->
<g id="edge9" class="edge">
<title>AutomationModule&#45;&gt;ApiCallConfiguratorComponent </title>
<path fill="none" stroke="black" stroke-dasharray="5,2" d="M943.74,-149.91C943.74,-149.91 943.74,-168.79 943.74,-168.79"/>
<polygon fill="black" stroke="black" points="940.24,-168.79 943.74,-178.79 947.24,-168.79 940.24,-168.79"/>
</g>
<!-- ApiConfigurationPreviewComponent  -->
<g id="node11" class="node">
<title>ApiConfigurationPreviewComponent </title>
<polygon fill="#fb8072" stroke="black" points="902.25,-214.8 671.75,-214.8 671.75,-178.8 902.25,-178.8 902.25,-214.8"/>
<text text-anchor="middle" x="787" y="-192.6" font-family="Times,serif" font-size="14.00">ApiConfigurationPreviewComponent </text>
</g>
<!-- AutomationModule&#45;&gt;ApiConfigurationPreviewComponent  -->
<g id="edge10" class="edge">
<title>AutomationModule&#45;&gt;ApiConfigurationPreviewComponent </title>
<path fill="none" stroke="black" stroke-dasharray="5,2" d="M871.45,-149.91C871.45,-149.91 871.45,-168.79 871.45,-168.79"/>
<polygon fill="black" stroke="black" points="867.95,-168.79 871.45,-178.79 874.95,-168.79 867.95,-168.79"/>
</g>
</g>
</svg>
