<?xml version="1.0" encoding="UTF-8" standalone="no"?>
<!DOCTYPE svg PUBLIC "-//W3C//DTD SVG 1.1//EN"
 "http://www.w3.org/Graphics/SVG/1.1/DTD/svg11.dtd">
<!-- Generated by graphviz version 5.0.0 (20220707.1540)
 -->
<!-- Title: dependencies Pages: 1 -->
<svg width="248pt" height="247pt"
 viewBox="0.00 0.00 248.00 246.80" xmlns="http://www.w3.org/2000/svg" xmlns:xlink="http://www.w3.org/1999/xlink">
<g id="graph0" class="graph" transform="scale(1 1) rotate(0) translate(4 242.8)">
<title>dependencies</title>
<polygon fill="white" stroke="transparent" points="-4,4 -4,-242.8 244,-242.8 244,4 -4,4"/>
<text text-anchor="middle" x="120" y="-8.2" font-family="sans-serif" font-size="14.00">dependencies</text>
<g id="clust1" class="cluster">
<title>cluster_VisualizationModule</title>
<polygon fill="none" stroke="black" stroke-dasharray="1,5" points="8,-32.8 8,-230.8 232,-230.8 232,-32.8 8,-32.8"/>
</g>
<g id="clust2" class="cluster">
<title>cluster_VisualizationModule_declarations</title>
<polygon fill="none" stroke="black" points="17,-40.8 17,-92.8 223,-92.8 223,-40.8 17,-40.8"/>
</g>
<g id="clust5" class="cluster">
<title>cluster_VisualizationModule_exports</title>
<polygon fill="none" stroke="black" points="16,-170.8 16,-222.8 224,-222.8 224,-170.8 16,-170.8"/>
</g>
<!-- SceneVisualizationComponent -->
<g id="node1" class="node">
<title>SceneVisualizationComponent</title>
<polygon fill="#ffffb3" stroke="black" points="214.91,-84.8 25.09,-84.8 25.09,-48.8 214.91,-48.8 214.91,-84.8"/>
<text text-anchor="middle" x="120" y="-62.6" font-family="Times,serif" font-size="14.00">SceneVisualizationComponent</text>
</g>
<!-- VisualizationModule -->
<g id="node2" class="node">
<title>VisualizationModule</title>
<polygon fill="#8dd3c7" stroke="black" points="187.2,-149.8 184.2,-153.8 163.2,-153.8 160.2,-149.8 52.8,-149.8 52.8,-113.8 187.2,-113.8 187.2,-149.8"/>
<text text-anchor="middle" x="120" y="-127.6" font-family="Times,serif" font-size="14.00">VisualizationModule</text>
</g>
<!-- SceneVisualizationComponent&#45;&gt;VisualizationModule -->
<g id="edge1" class="edge">
<title>SceneVisualizationComponent&#45;&gt;VisualizationModule</title>
<path fill="none" stroke="black" d="M120,-84.91C120,-84.91 120,-103.79 120,-103.79"/>
<polygon fill="black" stroke="black" points="116.5,-103.79 120,-113.79 123.5,-103.79 116.5,-103.79"/>
</g>
<!-- SceneVisualizationComponent  -->
<g id="node3" class="node">
<title>SceneVisualizationComponent </title>
<polygon fill="#fb8072" stroke="black" points="216.41,-214.8 23.59,-214.8 23.59,-178.8 216.41,-178.8 216.41,-214.8"/>
<text text-anchor="middle" x="120" y="-192.6" font-family="Times,serif" font-size="14.00">SceneVisualizationComponent </text>
</g>
<!-- VisualizationModule&#45;&gt;SceneVisualizationComponent  -->
<g id="edge2" class="edge">
<title>VisualizationModule&#45;&gt;SceneVisualizationComponent </title>
<path fill="none" stroke="black" stroke-dasharray="5,2" d="M120,-149.91C120,-149.91 120,-168.79 120,-168.79"/>
<polygon fill="black" stroke="black" points="116.5,-168.79 120,-178.79 123.5,-168.79 116.5,-168.79"/>
</g>
</g>
</svg>
