<?xml version="1.0" encoding="UTF-8" standalone="no"?>
<!DOCTYPE svg PUBLIC "-//W3C//DTD SVG 1.1//EN"
 "http://www.w3.org/Graphics/SVG/1.1/DTD/svg11.dtd">
<!-- Generated by graphviz version 5.0.0 (20220707.1540)
 -->
<!-- Title: dependencies Pages: 1 -->
<svg width="6476pt" height="247pt"
 viewBox="0.00 0.00 6476.00 246.80" xmlns="http://www.w3.org/2000/svg" xmlns:xlink="http://www.w3.org/1999/xlink">
<g id="graph0" class="graph" transform="scale(1 1) rotate(0) translate(4 242.8)">
<title>dependencies</title>
<polygon fill="white" stroke="transparent" points="-4,4 -4,-242.8 6472,-242.8 6472,4 -4,4"/>
<text text-anchor="middle" x="3234" y="-8.2" font-family="sans-serif" font-size="14.00">dependencies</text>
<g id="clust1" class="cluster">
<title>cluster_ProcessBuilderModule</title>
<polygon fill="none" stroke="black" stroke-dasharray="1,5" points="8,-32.8 8,-230.8 6460,-230.8 6460,-32.8 8,-32.8"/>
</g>
<g id="clust31" class="cluster">
<title>cluster_ProcessBuilderModule_providers</title>
<polygon fill="none" stroke="black" points="5878,-40.8 5878,-92.8 6452,-92.8 6452,-40.8 5878,-40.8"/>
</g>
<g id="clust28" class="cluster">
<title>cluster_ProcessBuilderModule_imports</title>
<polygon fill="none" stroke="black" points="5413,-40.8 5413,-92.8 5870,-92.8 5870,-40.8 5413,-40.8"/>
</g>
<g id="clust29" class="cluster">
<title>cluster_ProcessBuilderModule_exports</title>
<polygon fill="none" stroke="black" points="2337,-170.8 2337,-222.8 3011,-222.8 3011,-170.8 2337,-170.8"/>
</g>
<g id="clust2" class="cluster">
<title>cluster_ProcessBuilderModule_declarations</title>
<polygon fill="none" stroke="black" points="16,-40.8 16,-92.8 5405,-92.8 5405,-40.8 16,-40.8"/>
</g>
<!-- DynamicInputParamsPipe -->
<g id="node1" class="node">
<title>DynamicInputParamsPipe</title>
<polygon fill="#ffffb3" stroke="black" points="5397.47,-84.8 5234.53,-84.8 5234.53,-48.8 5397.47,-48.8 5397.47,-84.8"/>
<text text-anchor="middle" x="5316" y="-62.6" font-family="Times,serif" font-size="14.00">DynamicInputParamsPipe</text>
</g>
<!-- ProcessBuilderModule -->
<g id="node26" class="node">
<title>ProcessBuilderModule</title>
<polygon fill="#8dd3c7" stroke="black" points="2738.32,-149.8 2735.32,-153.8 2714.32,-153.8 2711.32,-149.8 2593.68,-149.8 2593.68,-113.8 2738.32,-113.8 2738.32,-149.8"/>
<text text-anchor="middle" x="2666" y="-127.6" font-family="Times,serif" font-size="14.00">ProcessBuilderModule</text>
</g>
<!-- DynamicInputParamsPipe&#45;&gt;ProcessBuilderModule -->
<g id="edge1" class="edge">
<title>DynamicInputParamsPipe&#45;&gt;ProcessBuilderModule</title>
<path fill="none" stroke="black" d="M5316,-85.11C5316,-104.95 5316,-133.8 5316,-133.8 5316,-133.8 2748.26,-133.8 2748.26,-133.8"/>
<polygon fill="black" stroke="black" points="2748.26,-130.3 2738.26,-133.8 2748.26,-137.3 2748.26,-130.3"/>
</g>
<!-- EmbeddedConfigureErrorGatewayEntranceConnectionComponent -->
<g id="node2" class="node">
<title>EmbeddedConfigureErrorGatewayEntranceConnectionComponent</title>
<polygon fill="#ffffb3" stroke="black" points="5216.55,-84.8 4825.45,-84.8 4825.45,-48.8 5216.55,-48.8 5216.55,-84.8"/>
<text text-anchor="middle" x="5021" y="-62.6" font-family="Times,serif" font-size="14.00">EmbeddedConfigureErrorGatewayEntranceConnectionComponent</text>
</g>
<!-- EmbeddedConfigureErrorGatewayEntranceConnectionComponent&#45;&gt;ProcessBuilderModule -->
<g id="edge2" class="edge">
<title>EmbeddedConfigureErrorGatewayEntranceConnectionComponent&#45;&gt;ProcessBuilderModule</title>
<path fill="none" stroke="black" d="M5021,-84.97C5021,-103.89 5021,-130.8 5021,-130.8 5021,-130.8 2748.41,-130.8 2748.41,-130.8"/>
<polygon fill="black" stroke="black" points="2748.41,-127.3 2738.41,-130.8 2748.41,-134.3 2748.41,-127.3"/>
</g>
<!-- EmbeddedFunctionImplementationComponent -->
<g id="node3" class="node">
<title>EmbeddedFunctionImplementationComponent</title>
<polygon fill="#ffffb3" stroke="black" points="4806.62,-84.8 4527.38,-84.8 4527.38,-48.8 4806.62,-48.8 4806.62,-84.8"/>
<text text-anchor="middle" x="4667" y="-62.6" font-family="Times,serif" font-size="14.00">EmbeddedFunctionImplementationComponent</text>
</g>
<!-- EmbeddedFunctionImplementationComponent&#45;&gt;ProcessBuilderModule -->
<g id="edge3" class="edge">
<title>EmbeddedFunctionImplementationComponent&#45;&gt;ProcessBuilderModule</title>
<path fill="none" stroke="black" d="M4667,-85.07C4667,-103.36 4667,-128.8 4667,-128.8 4667,-128.8 2748.4,-128.8 2748.4,-128.8"/>
<polygon fill="black" stroke="black" points="2748.4,-125.3 2738.4,-128.8 2748.4,-132.3 2748.4,-125.3"/>
</g>
<!-- EmbeddedFunctionInputSelectionComponent -->
<g id="node4" class="node">
<title>EmbeddedFunctionInputSelectionComponent</title>
<polygon fill="#ffffb3" stroke="black" points="4509.13,-84.8 4236.87,-84.8 4236.87,-48.8 4509.13,-48.8 4509.13,-84.8"/>
<text text-anchor="middle" x="4373" y="-62.6" font-family="Times,serif" font-size="14.00">EmbeddedFunctionInputSelectionComponent</text>
</g>
<!-- EmbeddedFunctionInputSelectionComponent&#45;&gt;ProcessBuilderModule -->
<g id="edge4" class="edge">
<title>EmbeddedFunctionInputSelectionComponent&#45;&gt;ProcessBuilderModule</title>
<path fill="none" stroke="black" d="M4373,-84.8C4373,-102.48 4373,-126.8 4373,-126.8 4373,-126.8 2748.26,-126.8 2748.26,-126.8"/>
<polygon fill="black" stroke="black" points="2748.26,-123.3 2738.26,-126.8 2748.26,-130.3 2748.26,-123.3"/>
</g>
<!-- EmbeddedFunctionSelectionComponent -->
<g id="node5" class="node">
<title>EmbeddedFunctionSelectionComponent</title>
<polygon fill="#ffffb3" stroke="black" points="4218.58,-84.8 3975.42,-84.8 3975.42,-48.8 4218.58,-48.8 4218.58,-84.8"/>
<text text-anchor="middle" x="4097" y="-62.6" font-family="Times,serif" font-size="14.00">EmbeddedFunctionSelectionComponent</text>
</g>
<!-- EmbeddedFunctionSelectionComponent&#45;&gt;ProcessBuilderModule -->
<g id="edge5" class="edge">
<title>EmbeddedFunctionSelectionComponent&#45;&gt;ProcessBuilderModule</title>
<path fill="none" stroke="black" d="M4097,-84.83C4097,-101.86 4097,-124.8 4097,-124.8 4097,-124.8 2748.44,-124.8 2748.44,-124.8"/>
<polygon fill="black" stroke="black" points="2748.44,-121.3 2738.44,-124.8 2748.44,-128.3 2748.44,-121.3"/>
</g>
<!-- EmbeddedInputOutputMappingComponent -->
<g id="node6" class="node">
<title>EmbeddedInputOutputMappingComponent</title>
<polygon fill="#ffffb3" stroke="black" points="3957.19,-84.8 3696.81,-84.8 3696.81,-48.8 3957.19,-48.8 3957.19,-84.8"/>
<text text-anchor="middle" x="3827" y="-62.6" font-family="Times,serif" font-size="14.00">EmbeddedInputOutputMappingComponent</text>
</g>
<!-- EmbeddedInputOutputMappingComponent&#45;&gt;ProcessBuilderModule -->
<g id="edge6" class="edge">
<title>EmbeddedInputOutputMappingComponent&#45;&gt;ProcessBuilderModule</title>
<path fill="none" stroke="black" d="M3827,-84.83C3827,-101.2 3827,-122.8 3827,-122.8 3827,-122.8 2748.19,-122.8 2748.19,-122.8"/>
<polygon fill="black" stroke="black" points="2748.19,-119.3 2738.19,-122.8 2748.19,-126.3 2748.19,-119.3"/>
</g>
<!-- EmbeddedInputOutputMappingTableRowComponent -->
<g id="node7" class="node">
<title>EmbeddedInputOutputMappingTableRowComponent</title>
<polygon fill="#ffffb3" stroke="black" points="3679.01,-84.8 3360.99,-84.8 3360.99,-48.8 3679.01,-48.8 3679.01,-84.8"/>
<text text-anchor="middle" x="3520" y="-62.6" font-family="Times,serif" font-size="14.00">EmbeddedInputOutputMappingTableRowComponent</text>
</g>
<!-- EmbeddedInputOutputMappingTableRowComponent&#45;&gt;ProcessBuilderModule -->
<g id="edge7" class="edge">
<title>EmbeddedInputOutputMappingTableRowComponent&#45;&gt;ProcessBuilderModule</title>
<path fill="none" stroke="black" d="M3520,-85.08C3520,-100.75 3520,-120.8 3520,-120.8 3520,-120.8 2748.44,-120.8 2748.44,-120.8"/>
<polygon fill="black" stroke="black" points="2748.44,-117.3 2738.44,-120.8 2748.44,-124.3 2748.44,-117.3"/>
</g>
<!-- EmbeddedOutputParamConfigurationComponent -->
<g id="node8" class="node">
<title>EmbeddedOutputParamConfigurationComponent</title>
<polygon fill="#ffffb3" stroke="black" points="3343.4,-84.8 3048.6,-84.8 3048.6,-48.8 3343.4,-48.8 3343.4,-84.8"/>
<text text-anchor="middle" x="3196" y="-62.6" font-family="Times,serif" font-size="14.00">EmbeddedOutputParamConfigurationComponent</text>
</g>
<!-- EmbeddedOutputParamConfigurationComponent&#45;&gt;ProcessBuilderModule -->
<g id="edge8" class="edge">
<title>EmbeddedOutputParamConfigurationComponent&#45;&gt;ProcessBuilderModule</title>
<path fill="none" stroke="black" d="M3196,-84.99C3196,-99.98 3196,-118.8 3196,-118.8 3196,-118.8 2748.31,-118.8 2748.31,-118.8"/>
<polygon fill="black" stroke="black" points="2748.31,-115.3 2738.31,-118.8 2748.31,-122.3 2748.31,-115.3"/>
</g>
<!-- EmbeddedParamEditorComponent -->
<g id="node9" class="node">
<title>EmbeddedParamEditorComponent</title>
<polygon fill="#ffffb3" stroke="black" points="3030.96,-84.8 2819.04,-84.8 2819.04,-48.8 3030.96,-48.8 3030.96,-84.8"/>
<text text-anchor="middle" x="2925" y="-62.6" font-family="Times,serif" font-size="14.00">EmbeddedParamEditorComponent</text>
</g>
<!-- EmbeddedParamEditorComponent&#45;&gt;ProcessBuilderModule -->
<g id="edge9" class="edge">
<title>EmbeddedParamEditorComponent&#45;&gt;ProcessBuilderModule</title>
<path fill="none" stroke="black" d="M2827.41,-84.85C2827.41,-99.17 2827.41,-116.8 2827.41,-116.8 2827.41,-116.8 2748.21,-116.8 2748.21,-116.8"/>
<polygon fill="black" stroke="black" points="2748.21,-113.3 2738.21,-116.8 2748.21,-120.3 2748.21,-113.3"/>
</g>
<!-- EmbeddedStaticOutputDefinitionComponent -->
<g id="node10" class="node">
<title>EmbeddedStaticOutputDefinitionComponent</title>
<polygon fill="#ffffb3" stroke="black" points="2800.52,-84.8 2531.48,-84.8 2531.48,-48.8 2800.52,-48.8 2800.52,-84.8"/>
<text text-anchor="middle" x="2666" y="-62.6" font-family="Times,serif" font-size="14.00">EmbeddedStaticOutputDefinitionComponent</text>
</g>
<!-- EmbeddedStaticOutputDefinitionComponent&#45;&gt;ProcessBuilderModule -->
<g id="edge10" class="edge">
<title>EmbeddedStaticOutputDefinitionComponent&#45;&gt;ProcessBuilderModule</title>
<path fill="none" stroke="black" d="M2666,-84.91C2666,-84.91 2666,-103.79 2666,-103.79"/>
<polygon fill="black" stroke="black" points="2662.5,-103.79 2666,-113.79 2669.5,-103.79 2662.5,-103.79"/>
</g>
<!-- FunctionPreviewComponent -->
<g id="node11" class="node">
<title>FunctionPreviewComponent</title>
<polygon fill="#ffffb3" stroke="black" points="2513.49,-84.8 2336.51,-84.8 2336.51,-48.8 2513.49,-48.8 2513.49,-84.8"/>
<text text-anchor="middle" x="2425" y="-62.6" font-family="Times,serif" font-size="14.00">FunctionPreviewComponent</text>
</g>
<!-- FunctionPreviewComponent&#45;&gt;ProcessBuilderModule -->
<g id="edge11" class="edge">
<title>FunctionPreviewComponent&#45;&gt;ProcessBuilderModule</title>
<path fill="none" stroke="black" d="M2505.36,-84.85C2505.36,-99.17 2505.36,-116.8 2505.36,-116.8 2505.36,-116.8 2583.67,-116.8 2583.67,-116.8"/>
<polygon fill="black" stroke="black" points="2583.67,-120.3 2593.67,-116.8 2583.67,-113.3 2583.67,-120.3"/>
</g>
<!-- InputParamPipe -->
<g id="node12" class="node">
<title>InputParamPipe</title>
<polygon fill="#ffffb3" stroke="black" points="2318.21,-84.8 2211.79,-84.8 2211.79,-48.8 2318.21,-48.8 2318.21,-84.8"/>
<text text-anchor="middle" x="2265" y="-62.6" font-family="Times,serif" font-size="14.00">InputParamPipe</text>
</g>
<!-- InputParamPipe&#45;&gt;ProcessBuilderModule -->
<g id="edge12" class="edge">
<title>InputParamPipe&#45;&gt;ProcessBuilderModule</title>
<path fill="none" stroke="black" d="M2265,-84.99C2265,-99.98 2265,-118.8 2265,-118.8 2265,-118.8 2583.38,-118.8 2583.38,-118.8"/>
<polygon fill="black" stroke="black" points="2583.38,-122.3 2593.38,-118.8 2583.38,-115.3 2583.38,-122.3"/>
</g>
<!-- InterfacePipe -->
<g id="node13" class="node">
<title>InterfacePipe</title>
<polygon fill="#ffffb3" stroke="black" points="2194.12,-84.8 2103.88,-84.8 2103.88,-48.8 2194.12,-48.8 2194.12,-84.8"/>
<text text-anchor="middle" x="2149" y="-62.6" font-family="Times,serif" font-size="14.00">InterfacePipe</text>
</g>
<!-- InterfacePipe&#45;&gt;ProcessBuilderModule -->
<g id="edge13" class="edge">
<title>InterfacePipe&#45;&gt;ProcessBuilderModule</title>
<path fill="none" stroke="black" d="M2149,-85.08C2149,-100.75 2149,-120.8 2149,-120.8 2149,-120.8 2583.57,-120.8 2583.57,-120.8"/>
<polygon fill="black" stroke="black" points="2583.57,-124.3 2593.57,-120.8 2583.57,-117.3 2583.57,-124.3"/>
</g>
<!-- ParamEditorComponent -->
<g id="node14" class="node">
<title>ParamEditorComponent</title>
<polygon fill="#ffffb3" stroke="black" points="2086.09,-84.8 1933.91,-84.8 1933.91,-48.8 2086.09,-48.8 2086.09,-84.8"/>
<text text-anchor="middle" x="2010" y="-62.6" font-family="Times,serif" font-size="14.00">ParamEditorComponent</text>
</g>
<!-- ParamEditorComponent&#45;&gt;ProcessBuilderModule -->
<g id="edge14" class="edge">
<title>ParamEditorComponent&#45;&gt;ProcessBuilderModule</title>
<path fill="none" stroke="black" d="M2010,-84.83C2010,-101.2 2010,-122.8 2010,-122.8 2010,-122.8 2583.61,-122.8 2583.61,-122.8"/>
<polygon fill="black" stroke="black" points="2583.61,-126.3 2593.61,-122.8 2583.61,-119.3 2583.61,-126.3"/>
</g>
<!-- ParamMemberPathPreviewComponent -->
<g id="node15" class="node">
<title>ParamMemberPathPreviewComponent</title>
<polygon fill="#ffffb3" stroke="black" points="1915.79,-84.8 1680.21,-84.8 1680.21,-48.8 1915.79,-48.8 1915.79,-84.8"/>
<text text-anchor="middle" x="1798" y="-62.6" font-family="Times,serif" font-size="14.00">ParamMemberPathPreviewComponent</text>
</g>
<!-- ParamMemberPathPreviewComponent&#45;&gt;ProcessBuilderModule -->
<g id="edge15" class="edge">
<title>ParamMemberPathPreviewComponent&#45;&gt;ProcessBuilderModule</title>
<path fill="none" stroke="black" d="M1798,-84.83C1798,-101.86 1798,-124.8 1798,-124.8 1798,-124.8 2583.49,-124.8 2583.49,-124.8"/>
<polygon fill="black" stroke="black" points="2583.49,-128.3 2593.49,-124.8 2583.49,-121.3 2583.49,-128.3"/>
</g>
<!-- ParamMemberPreviewComponent -->
<g id="node16" class="node">
<title>ParamMemberPreviewComponent</title>
<polygon fill="#ffffb3" stroke="black" points="1662.4,-84.8 1451.6,-84.8 1451.6,-48.8 1662.4,-48.8 1662.4,-84.8"/>
<text text-anchor="middle" x="1557" y="-62.6" font-family="Times,serif" font-size="14.00">ParamMemberPreviewComponent</text>
</g>
<!-- ParamMemberPreviewComponent&#45;&gt;ProcessBuilderModule -->
<g id="edge16" class="edge">
<title>ParamMemberPreviewComponent&#45;&gt;ProcessBuilderModule</title>
<path fill="none" stroke="black" d="M1557,-84.8C1557,-102.48 1557,-126.8 1557,-126.8 1557,-126.8 2583.66,-126.8 2583.66,-126.8"/>
<polygon fill="black" stroke="black" points="2583.66,-130.3 2593.66,-126.8 2583.66,-123.3 2583.66,-130.3"/>
</g>
<!-- ParamPipe -->
<g id="node17" class="node">
<title>ParamPipe</title>
<polygon fill="#ffffb3" stroke="black" points="1433.16,-84.8 1356.84,-84.8 1356.84,-48.8 1433.16,-48.8 1433.16,-84.8"/>
<text text-anchor="middle" x="1395" y="-62.6" font-family="Times,serif" font-size="14.00">ParamPipe</text>
</g>
<!-- ParamPipe&#45;&gt;ProcessBuilderModule -->
<g id="edge17" class="edge">
<title>ParamPipe&#45;&gt;ProcessBuilderModule</title>
<path fill="none" stroke="black" d="M1395,-85.07C1395,-103.36 1395,-128.8 1395,-128.8 1395,-128.8 2583.56,-128.8 2583.56,-128.8"/>
<polygon fill="black" stroke="black" points="2583.56,-132.3 2593.56,-128.8 2583.56,-125.3 2583.56,-132.3"/>
</g>
<!-- ParamPreviewComponent -->
<g id="node18" class="node">
<title>ParamPreviewComponent</title>
<polygon fill="#ffffb3" stroke="black" points="1338.47,-84.8 1175.53,-84.8 1175.53,-48.8 1338.47,-48.8 1338.47,-84.8"/>
<text text-anchor="middle" x="1257" y="-62.6" font-family="Times,serif" font-size="14.00">ParamPreviewComponent</text>
</g>
<!-- ParamPreviewComponent&#45;&gt;ProcessBuilderModule -->
<g id="edge18" class="edge">
<title>ParamPreviewComponent&#45;&gt;ProcessBuilderModule</title>
<path fill="none" stroke="black" d="M1257,-84.97C1257,-103.89 1257,-130.8 1257,-130.8 1257,-130.8 2583.7,-130.8 2583.7,-130.8"/>
<polygon fill="black" stroke="black" points="2583.7,-134.3 2593.7,-130.8 2583.7,-127.3 2583.7,-134.3"/>
</g>
<!-- ProcessBuilderComponent -->
<g id="node19" class="node">
<title>ProcessBuilderComponent</title>
<polygon fill="#ffffb3" stroke="black" points="1157.1,-84.8 990.9,-84.8 990.9,-48.8 1157.1,-48.8 1157.1,-84.8"/>
<text text-anchor="middle" x="1074" y="-62.6" font-family="Times,serif" font-size="14.00">ProcessBuilderComponent</text>
</g>
<!-- ProcessBuilderComponent&#45;&gt;ProcessBuilderModule -->
<g id="edge19" class="edge">
<title>ProcessBuilderComponent&#45;&gt;ProcessBuilderModule</title>
<path fill="none" stroke="black" d="M1074,-85.11C1074,-104.95 1074,-133.8 1074,-133.8 1074,-133.8 2583.72,-133.8 2583.72,-133.8"/>
<polygon fill="black" stroke="black" points="2583.72,-137.3 2593.72,-133.8 2583.72,-130.3 2583.72,-137.3"/>
</g>
<!-- ReturnValueStatusPipe -->
<g id="node20" class="node">
<title>ReturnValueStatusPipe</title>
<polygon fill="#ffffb3" stroke="black" points="973.15,-84.8 826.85,-84.8 826.85,-48.8 973.15,-48.8 973.15,-84.8"/>
<text text-anchor="middle" x="900" y="-62.6" font-family="Times,serif" font-size="14.00">ReturnValueStatusPipe</text>
</g>
<!-- ReturnValueStatusPipe&#45;&gt;ProcessBuilderModule -->
<g id="edge20" class="edge">
<title>ReturnValueStatusPipe&#45;&gt;ProcessBuilderModule</title>
<path fill="none" stroke="black" d="M900,-84.93C900,-105.37 900,-135.8 900,-135.8 900,-135.8 2583.76,-135.8 2583.76,-135.8"/>
<polygon fill="black" stroke="black" points="2583.76,-139.3 2593.76,-135.8 2583.76,-132.3 2583.76,-139.3"/>
</g>
<!-- TaskCreationComponent -->
<g id="node21" class="node">
<title>TaskCreationComponent</title>
<polygon fill="#ffffb3" stroke="black" points="808.25,-84.8 651.75,-84.8 651.75,-48.8 808.25,-48.8 808.25,-84.8"/>
<text text-anchor="middle" x="730" y="-62.6" font-family="Times,serif" font-size="14.00">TaskCreationComponent</text>
</g>
<!-- TaskCreationComponent&#45;&gt;ProcessBuilderModule -->
<g id="edge21" class="edge">
<title>TaskCreationComponent&#45;&gt;ProcessBuilderModule</title>
<path fill="none" stroke="black" d="M730,-85.08C730,-106.12 730,-137.8 730,-137.8 730,-137.8 2583.64,-137.8 2583.64,-137.8"/>
<polygon fill="black" stroke="black" points="2583.64,-141.3 2593.64,-137.8 2583.64,-134.3 2583.64,-141.3"/>
</g>
<!-- TaskCreationStepPipe -->
<g id="node22" class="node">
<title>TaskCreationStepPipe</title>
<polygon fill="#ffffb3" stroke="black" points="633.7,-84.8 492.3,-84.8 492.3,-48.8 633.7,-48.8 633.7,-84.8"/>
<text text-anchor="middle" x="563" y="-62.6" font-family="Times,serif" font-size="14.00">TaskCreationStepPipe</text>
</g>
<!-- TaskCreationStepPipe&#45;&gt;ProcessBuilderModule -->
<g id="edge22" class="edge">
<title>TaskCreationStepPipe&#45;&gt;ProcessBuilderModule</title>
<path fill="none" stroke="black" d="M563,-84.84C563,-106.46 563,-139.8 563,-139.8 563,-139.8 2583.61,-139.8 2583.61,-139.8"/>
<polygon fill="black" stroke="black" points="2583.61,-143.3 2593.61,-139.8 2583.61,-136.3 2583.61,-143.3"/>
</g>
<!-- UserInputComponent -->
<g id="node23" class="node">
<title>UserInputComponent</title>
<polygon fill="#ffffb3" stroke="black" points="474.82,-84.8 337.18,-84.8 337.18,-48.8 474.82,-48.8 474.82,-84.8"/>
<text text-anchor="middle" x="406" y="-62.6" font-family="Times,serif" font-size="14.00">UserInputComponent</text>
</g>
<!-- UserInputComponent&#45;&gt;ProcessBuilderModule -->
<g id="edge23" class="edge">
<title>UserInputComponent&#45;&gt;ProcessBuilderModule</title>
<path fill="none" stroke="black" d="M406,-84.96C406,-107.15 406,-141.8 406,-141.8 406,-141.8 2583.68,-141.8 2583.68,-141.8"/>
<polygon fill="black" stroke="black" points="2583.68,-145.3 2593.68,-141.8 2583.68,-138.3 2583.68,-145.3"/>
</g>
<!-- ValidationErrorPipe -->
<g id="node24" class="node">
<title>ValidationErrorPipe</title>
<polygon fill="#ffffb3" stroke="black" points="319.53,-84.8 190.47,-84.8 190.47,-48.8 319.53,-48.8 319.53,-84.8"/>
<text text-anchor="middle" x="255" y="-62.6" font-family="Times,serif" font-size="14.00">ValidationErrorPipe</text>
</g>
<!-- ValidationErrorPipe&#45;&gt;ProcessBuilderModule -->
<g id="edge24" class="edge">
<title>ValidationErrorPipe&#45;&gt;ProcessBuilderModule</title>
<path fill="none" stroke="black" d="M255,-85.05C255,-107.82 255,-143.8 255,-143.8 255,-143.8 2583.52,-143.8 2583.52,-143.8"/>
<polygon fill="black" stroke="black" points="2583.52,-147.3 2593.52,-143.8 2583.52,-140.3 2583.52,-147.3"/>
</g>
<!-- ValidationWarningPipe -->
<g id="node25" class="node">
<title>ValidationWarningPipe</title>
<polygon fill="#ffffb3" stroke="black" points="172.47,-84.8 23.53,-84.8 23.53,-48.8 172.47,-48.8 172.47,-84.8"/>
<text text-anchor="middle" x="98" y="-62.6" font-family="Times,serif" font-size="14.00">ValidationWarningPipe</text>
</g>
<!-- ValidationWarningPipe&#45;&gt;ProcessBuilderModule -->
<g id="edge25" class="edge">
<title>ValidationWarningPipe&#45;&gt;ProcessBuilderModule</title>
<path fill="none" stroke="black" d="M98,-85.12C98,-108.46 98,-145.8 98,-145.8 98,-145.8 2583.62,-145.8 2583.62,-145.8"/>
<polygon fill="black" stroke="black" points="2583.62,-149.3 2593.62,-145.8 2583.62,-142.3 2583.62,-149.3"/>
</g>
<!-- ProcedureStoreModule  -->
<g id="node30" class="node">
<title>ProcedureStoreModule </title>
<polygon fill="#fb8072" stroke="black" points="3002.86,-214.8 2853.14,-214.8 2853.14,-178.8 3002.86,-178.8 3002.86,-214.8"/>
<text text-anchor="middle" x="2928" y="-192.6" font-family="Times,serif" font-size="14.00">ProcedureStoreModule </text>
</g>
<!-- ProcessBuilderModule&#45;&gt;ProcedureStoreModule  -->
<g id="edge29" class="edge">
<title>ProcessBuilderModule&#45;&gt;ProcedureStoreModule </title>
<path fill="none" stroke="black" stroke-dasharray="5,2" d="M2738.29,-147.8C2815.84,-147.8 2928,-147.8 2928,-147.8 2928,-147.8 2928,-168.55 2928,-168.55"/>
<polygon fill="black" stroke="black" points="2924.5,-168.55 2928,-178.55 2931.5,-168.55 2924.5,-168.55"/>
</g>
<!-- ProcessBuilderComponent  -->
<g id="node31" class="node">
<title>ProcessBuilderComponent </title>
<polygon fill="#fb8072" stroke="black" points="2835.6,-214.8 2666.4,-214.8 2666.4,-178.8 2835.6,-178.8 2835.6,-214.8"/>
<text text-anchor="middle" x="2751" y="-192.6" font-family="Times,serif" font-size="14.00">ProcessBuilderComponent </text>
</g>
<!-- ProcessBuilderModule&#45;&gt;ProcessBuilderComponent  -->
<g id="edge30" class="edge">
<title>ProcessBuilderModule&#45;&gt;ProcessBuilderComponent </title>
<path fill="none" stroke="black" stroke-dasharray="5,2" d="M2702.18,-149.91C2702.18,-149.91 2702.18,-168.79 2702.18,-168.79"/>
<polygon fill="black" stroke="black" points="2698.68,-168.79 2702.18,-178.79 2705.68,-168.79 2698.68,-168.79"/>
</g>
<!-- ValidationErrorPipe  -->
<g id="node32" class="node">
<title>ValidationErrorPipe </title>
<polygon fill="#fb8072" stroke="black" points="2648.52,-214.8 2515.48,-214.8 2515.48,-178.8 2648.52,-178.8 2648.52,-214.8"/>
<text text-anchor="middle" x="2582" y="-192.6" font-family="Times,serif" font-size="14.00">ValidationErrorPipe </text>
</g>
<!-- ProcessBuilderModule&#45;&gt;ValidationErrorPipe  -->
<g id="edge31" class="edge">
<title>ProcessBuilderModule&#45;&gt;ValidationErrorPipe </title>
<path fill="none" stroke="black" stroke-dasharray="5,2" d="M2621.18,-149.91C2621.18,-149.91 2621.18,-168.79 2621.18,-168.79"/>
<polygon fill="black" stroke="black" points="2617.68,-168.79 2621.18,-178.79 2624.68,-168.79 2617.68,-168.79"/>
</g>
<!-- ValidationWarningPipe  -->
<g id="node33" class="node">
<title>ValidationWarningPipe </title>
<polygon fill="#fb8072" stroke="black" points="2497.47,-214.8 2344.53,-214.8 2344.53,-178.8 2497.47,-178.8 2497.47,-214.8"/>
<text text-anchor="middle" x="2421" y="-192.6" font-family="Times,serif" font-size="14.00">ValidationWarningPipe </text>
</g>
<!-- ProcessBuilderModule&#45;&gt;ValidationWarningPipe  -->
<g id="edge32" class="edge">
<title>ProcessBuilderModule&#45;&gt;ValidationWarningPipe </title>
<path fill="none" stroke="black" stroke-dasharray="5,2" d="M2593.82,-147.8C2521.55,-147.8 2421,-147.8 2421,-147.8 2421,-147.8 2421,-168.55 2421,-168.55"/>
<polygon fill="black" stroke="black" points="2417.5,-168.55 2421,-178.55 2424.5,-168.55 2417.5,-168.55"/>
</g>
<!-- CodeEditorModule -->
<g id="node27" class="node">
<title>CodeEditorModule</title>
<polygon fill="#8dd3c7" stroke="black" points="5862.1,-84.8 5859.1,-88.8 5838.1,-88.8 5835.1,-84.8 5737.9,-84.8 5737.9,-48.8 5862.1,-48.8 5862.1,-84.8"/>
<text text-anchor="middle" x="5800" y="-62.6" font-family="Times,serif" font-size="14.00">CodeEditorModule</text>
</g>
<!-- CodeEditorModule&#45;&gt;ProcessBuilderModule -->
<g id="edge26" class="edge">
<title>CodeEditorModule&#45;&gt;ProcessBuilderModule</title>
<path fill="none" stroke="black" d="M5800,-84.84C5800,-106.46 5800,-139.8 5800,-139.8 5800,-139.8 2748.48,-139.8 2748.48,-139.8"/>
<polygon fill="black" stroke="black" points="2748.48,-136.3 2738.48,-139.8 2748.48,-143.3 2748.48,-136.3"/>
</g>
<!-- ConfirmationModule -->
<g id="node28" class="node">
<title>ConfirmationModule</title>
<polygon fill="#8dd3c7" stroke="black" points="5719.49,-84.8 5716.49,-88.8 5695.49,-88.8 5692.49,-84.8 5584.51,-84.8 5584.51,-48.8 5719.49,-48.8 5719.49,-84.8"/>
<text text-anchor="middle" x="5652" y="-62.6" font-family="Times,serif" font-size="14.00">ConfirmationModule</text>
</g>
<!-- ConfirmationModule&#45;&gt;ProcessBuilderModule -->
<g id="edge27" class="edge">
<title>ConfirmationModule&#45;&gt;ProcessBuilderModule</title>
<path fill="none" stroke="black" d="M5652,-85.08C5652,-106.12 5652,-137.8 5652,-137.8 5652,-137.8 2748.33,-137.8 2748.33,-137.8"/>
<polygon fill="black" stroke="black" points="2748.33,-134.3 2738.33,-137.8 2748.33,-141.3 2748.33,-134.3"/>
</g>
<!-- ProcedureStoreModule -->
<g id="node29" class="node">
<title>ProcedureStoreModule</title>
<polygon fill="#8dd3c7" stroke="black" points="5566.86,-84.8 5563.86,-88.8 5542.86,-88.8 5539.86,-84.8 5421.14,-84.8 5421.14,-48.8 5566.86,-48.8 5566.86,-84.8"/>
<text text-anchor="middle" x="5494" y="-62.6" font-family="Times,serif" font-size="14.00">ProcedureStoreModule</text>
</g>
<!-- ProcedureStoreModule&#45;&gt;ProcessBuilderModule -->
<g id="edge28" class="edge">
<title>ProcedureStoreModule&#45;&gt;ProcessBuilderModule</title>
<path fill="none" stroke="black" d="M5494,-84.93C5494,-105.37 5494,-135.8 5494,-135.8 5494,-135.8 2748.39,-135.8 2748.39,-135.8"/>
<polygon fill="black" stroke="black" points="2748.39,-132.3 2738.39,-135.8 2748.39,-139.3 2748.39,-132.3"/>
</g>
<!-- BpmnJsService -->
<g id="node34" class="node">
<title>BpmnJsService</title>
<ellipse fill="#fdb462" stroke="black" cx="6373" cy="-66.8" rx="71.24" ry="18"/>
<text text-anchor="middle" x="6373" y="-62.6" font-family="Times,serif" font-size="14.00">BpmnJsService</text>
</g>
<!-- BpmnJsService&#45;&gt;ProcessBuilderModule -->
<g id="edge33" class="edge">
<title>BpmnJsService&#45;&gt;ProcessBuilderModule</title>
<path fill="none" stroke="black" d="M6373,-85.12C6373,-108.46 6373,-145.8 6373,-145.8 6373,-145.8 2748.39,-145.8 2748.39,-145.8"/>
<polygon fill="black" stroke="black" points="2748.39,-142.3 2738.39,-145.8 2748.39,-149.3 2748.39,-142.3"/>
</g>
<!-- ConfirmationService -->
<g id="node35" class="node">
<title>ConfirmationService</title>
<ellipse fill="#fdb462" stroke="black" cx="6192" cy="-66.8" rx="92.05" ry="18"/>
<text text-anchor="middle" x="6192" y="-62.6" font-family="Times,serif" font-size="14.00">ConfirmationService</text>
</g>
<!-- ConfirmationService&#45;&gt;ProcessBuilderModule -->
<g id="edge34" class="edge">
<title>ConfirmationService&#45;&gt;ProcessBuilderModule</title>
<path fill="none" stroke="black" d="M6192,-85.05C6192,-107.82 6192,-143.8 6192,-143.8 6192,-143.8 2748.43,-143.8 2748.43,-143.8"/>
<polygon fill="black" stroke="black" points="2748.43,-140.3 2738.43,-143.8 2748.43,-147.3 2748.43,-140.3"/>
</g>
<!-- ProcessBuilderService -->
<g id="node36" class="node">
<title>ProcessBuilderService</title>
<ellipse fill="#fdb462" stroke="black" cx="5984" cy="-66.8" rx="98.43" ry="18"/>
<text text-anchor="middle" x="5984" y="-62.6" font-family="Times,serif" font-size="14.00">ProcessBuilderService</text>
</g>
<!-- ProcessBuilderService&#45;&gt;ProcessBuilderModule -->
<g id="edge35" class="edge">
<title>ProcessBuilderService&#45;&gt;ProcessBuilderModule</title>
<path fill="none" stroke="black" d="M5984,-84.96C5984,-107.15 5984,-141.8 5984,-141.8 5984,-141.8 2748.39,-141.8 2748.39,-141.8"/>
<polygon fill="black" stroke="black" points="2748.39,-138.3 2738.39,-141.8 2748.39,-145.3 2748.39,-138.3"/>
</g>
</g>
</svg>
