<?xml version="1.0" encoding="UTF-8" standalone="no"?>
<!DOCTYPE svg PUBLIC "-//W3C//DTD SVG 1.1//EN"
 "http://www.w3.org/Graphics/SVG/1.1/DTD/svg11.dtd">
<!-- Generated by graphviz version 5.0.0 (20220707.1540)
 -->
<!-- Title: dependencies Pages: 1 -->
<svg width="5815pt" height="247pt"
 viewBox="0.00 0.00 5815.00 246.80" xmlns="http://www.w3.org/2000/svg" xmlns:xlink="http://www.w3.org/1999/xlink">
<g id="graph0" class="graph" transform="scale(1 1) rotate(0) translate(4 242.8)">
<title>dependencies</title>
<polygon fill="white" stroke="transparent" points="-4,4 -4,-242.8 5811,-242.8 5811,4 -4,4"/>
<text text-anchor="middle" x="2903.5" y="-8.2" font-family="sans-serif" font-size="14.00">dependencies</text>
<g id="clust1" class="cluster">
<title>cluster_AppModule</title>
<polygon fill="none" stroke="black" stroke-dasharray="1,5" points="8,-32.8 8,-230.8 5799,-230.8 5799,-32.8 8,-32.8"/>
</g>
<g id="clust2" class="cluster">
<title>cluster_AppModule_declarations</title>
<polygon fill="none" stroke="black" points="604,-40.8 604,-92.8 5791,-92.8 5791,-40.8 604,-40.8"/>
</g>
<g id="clust32" class="cluster">
<title>cluster_AppModule_imports</title>
<polygon fill="none" stroke="black" points="16,-40.8 16,-92.8 596,-92.8 596,-40.8 16,-40.8"/>
</g>
<g id="clust34" class="cluster">
<title>cluster_AppModule_bootstrap</title>
<polygon fill="none" stroke="black" points="2834,-170.8 2834,-222.8 2958,-222.8 2958,-170.8 2834,-170.8"/>
</g>
<!-- AboutComponent -->
<g id="node1" class="node">
<title>AboutComponent</title>
<polygon fill="#ffffb3" stroke="black" points="5783.33,-84.8 5666.67,-84.8 5666.67,-48.8 5783.33,-48.8 5783.33,-84.8"/>
<text text-anchor="middle" x="5725" y="-62.6" font-family="Times,serif" font-size="14.00">AboutComponent</text>
</g>
<!-- AppModule -->
<g id="node30" class="node">
<title>AppModule</title>
<polygon fill="#8dd3c7" stroke="black" points="2937.66,-149.8 2934.66,-153.8 2913.66,-153.8 2910.66,-149.8 2854.34,-149.8 2854.34,-113.8 2937.66,-113.8 2937.66,-149.8"/>
<text text-anchor="middle" x="2896" y="-127.6" font-family="Times,serif" font-size="14.00">AppModule</text>
</g>
<!-- AboutComponent&#45;&gt;AppModule -->
<g id="edge1" class="edge">
<title>AboutComponent&#45;&gt;AppModule</title>
<path fill="none" stroke="black" d="M5725,-85.18C5725,-109.08 5725,-147.8 5725,-147.8 5725,-147.8 2947.91,-147.8 2947.91,-147.8"/>
<polygon fill="black" stroke="black" points="2947.91,-144.3 2937.91,-147.8 2947.91,-151.3 2947.91,-144.3"/>
</g>
<!-- ApiCallConfiguratorDialogComponent -->
<g id="node2" class="node">
<title>ApiCallConfiguratorDialogComponent</title>
<polygon fill="#ffffb3" stroke="black" points="5649.08,-84.8 5412.92,-84.8 5412.92,-48.8 5649.08,-48.8 5649.08,-84.8"/>
<text text-anchor="middle" x="5531" y="-62.6" font-family="Times,serif" font-size="14.00">ApiCallConfiguratorDialogComponent</text>
</g>
<!-- ApiCallConfiguratorDialogComponent&#45;&gt;AppModule -->
<g id="edge2" class="edge">
<title>ApiCallConfiguratorDialogComponent&#45;&gt;AppModule</title>
<path fill="none" stroke="black" d="M5531,-85.12C5531,-108.46 5531,-145.8 5531,-145.8 5531,-145.8 2947.92,-145.8 2947.92,-145.8"/>
<polygon fill="black" stroke="black" points="2947.92,-142.3 2937.92,-145.8 2947.92,-149.3 2947.92,-142.3"/>
</g>
<!-- AppComponent -->
<g id="node3" class="node">
<title>AppComponent</title>
<polygon fill="#ffffb3" stroke="black" points="5394.94,-84.8 5289.06,-84.8 5289.06,-48.8 5394.94,-48.8 5394.94,-84.8"/>
<text text-anchor="middle" x="5342" y="-62.6" font-family="Times,serif" font-size="14.00">AppComponent</text>
</g>
<!-- AppComponent&#45;&gt;AppModule -->
<g id="edge3" class="edge">
<title>AppComponent&#45;&gt;AppModule</title>
<path fill="none" stroke="black" d="M5342,-85.05C5342,-107.82 5342,-143.8 5342,-143.8 5342,-143.8 2947.68,-143.8 2947.68,-143.8"/>
<polygon fill="black" stroke="black" points="2947.68,-140.3 2937.68,-143.8 2947.68,-147.3 2947.68,-140.3"/>
</g>
<!-- CalculationComponent -->
<g id="node4" class="node">
<title>CalculationComponent</title>
<polygon fill="#ffffb3" stroke="black" points="5270.87,-84.8 5125.13,-84.8 5125.13,-48.8 5270.87,-48.8 5270.87,-84.8"/>
<text text-anchor="middle" x="5198" y="-62.6" font-family="Times,serif" font-size="14.00">CalculationComponent</text>
</g>
<!-- CalculationComponent&#45;&gt;AppModule -->
<g id="edge4" class="edge">
<title>CalculationComponent&#45;&gt;AppModule</title>
<path fill="none" stroke="black" d="M5198,-84.96C5198,-107.15 5198,-141.8 5198,-141.8 5198,-141.8 2947.92,-141.8 2947.92,-141.8"/>
<polygon fill="black" stroke="black" points="2947.92,-138.3 2937.92,-141.8 2947.92,-145.3 2947.92,-138.3"/>
</g>
<!-- CalculationContextOverviewComponent -->
<g id="node5" class="node">
<title>CalculationContextOverviewComponent</title>
<polygon fill="#ffffb3" stroke="black" points="5106.9,-84.8 4861.1,-84.8 4861.1,-48.8 5106.9,-48.8 5106.9,-84.8"/>
<text text-anchor="middle" x="4984" y="-62.6" font-family="Times,serif" font-size="14.00">CalculationContextOverviewComponent</text>
</g>
<!-- CalculationContextOverviewComponent&#45;&gt;AppModule -->
<g id="edge5" class="edge">
<title>CalculationContextOverviewComponent&#45;&gt;AppModule</title>
<path fill="none" stroke="black" d="M4984,-84.84C4984,-106.46 4984,-139.8 4984,-139.8 4984,-139.8 2947.71,-139.8 2947.71,-139.8"/>
<polygon fill="black" stroke="black" points="2947.71,-136.3 2937.71,-139.8 2947.71,-143.3 2947.71,-136.3"/>
</g>
<!-- CalculationErrorPipe -->
<g id="node6" class="node">
<title>CalculationErrorPipe</title>
<polygon fill="#ffffb3" stroke="black" points="4843.47,-84.8 4708.53,-84.8 4708.53,-48.8 4843.47,-48.8 4843.47,-84.8"/>
<text text-anchor="middle" x="4776" y="-62.6" font-family="Times,serif" font-size="14.00">CalculationErrorPipe</text>
</g>
<!-- CalculationErrorPipe&#45;&gt;AppModule -->
<g id="edge6" class="edge">
<title>CalculationErrorPipe&#45;&gt;AppModule</title>
<path fill="none" stroke="black" d="M4776,-85.08C4776,-106.12 4776,-137.8 4776,-137.8 4776,-137.8 2947.9,-137.8 2947.9,-137.8"/>
<polygon fill="black" stroke="black" points="2947.9,-134.3 2937.9,-137.8 2947.9,-141.3 2947.9,-134.3"/>
</g>
<!-- ComputedStylePipe -->
<g id="node7" class="node">
<title>ComputedStylePipe</title>
<polygon fill="#ffffb3" stroke="black" points="4691,-84.8 4563,-84.8 4563,-48.8 4691,-48.8 4691,-84.8"/>
<text text-anchor="middle" x="4627" y="-62.6" font-family="Times,serif" font-size="14.00">ComputedStylePipe</text>
</g>
<!-- ComputedStylePipe&#45;&gt;AppModule -->
<g id="edge7" class="edge">
<title>ComputedStylePipe&#45;&gt;AppModule</title>
<path fill="none" stroke="black" d="M4627,-84.93C4627,-105.37 4627,-135.8 4627,-135.8 4627,-135.8 2947.93,-135.8 2947.93,-135.8"/>
<polygon fill="black" stroke="black" points="2947.93,-132.3 2937.93,-135.8 2947.93,-139.3 2947.93,-132.3"/>
</g>
<!-- ContainerPreviewComponent -->
<g id="node8" class="node">
<title>ContainerPreviewComponent</title>
<polygon fill="#ffffb3" stroke="black" points="4545.41,-84.8 4362.59,-84.8 4362.59,-48.8 4545.41,-48.8 4545.41,-84.8"/>
<text text-anchor="middle" x="4454" y="-62.6" font-family="Times,serif" font-size="14.00">ContainerPreviewComponent</text>
</g>
<!-- ContainerPreviewComponent&#45;&gt;AppModule -->
<g id="edge8" class="edge">
<title>ContainerPreviewComponent&#45;&gt;AppModule</title>
<path fill="none" stroke="black" d="M4454,-85.11C4454,-104.95 4454,-133.8 4454,-133.8 4454,-133.8 2947.67,-133.8 2947.67,-133.8"/>
<polygon fill="black" stroke="black" points="2947.67,-130.3 2937.67,-133.8 2947.67,-137.3 2947.67,-130.3"/>
</g>
<!-- EditDataDialogComponent -->
<g id="node9" class="node">
<title>EditDataDialogComponent</title>
<polygon fill="#ffffb3" stroke="black" points="4344.69,-84.8 4175.31,-84.8 4175.31,-48.8 4344.69,-48.8 4344.69,-84.8"/>
<text text-anchor="middle" x="4260" y="-62.6" font-family="Times,serif" font-size="14.00">EditDataDialogComponent</text>
</g>
<!-- EditDataDialogComponent&#45;&gt;AppModule -->
<g id="edge9" class="edge">
<title>EditDataDialogComponent&#45;&gt;AppModule</title>
<path fill="none" stroke="black" d="M4260,-84.97C4260,-103.89 4260,-130.8 4260,-130.8 4260,-130.8 2947.94,-130.8 2947.94,-130.8"/>
<polygon fill="black" stroke="black" points="2947.94,-127.3 2937.94,-130.8 2947.94,-134.3 2947.94,-127.3"/>
</g>
<!-- GoodPreviewComponent -->
<g id="node10" class="node">
<title>GoodPreviewComponent</title>
<polygon fill="#ffffb3" stroke="black" points="4157.32,-84.8 3998.68,-84.8 3998.68,-48.8 4157.32,-48.8 4157.32,-84.8"/>
<text text-anchor="middle" x="4078" y="-62.6" font-family="Times,serif" font-size="14.00">GoodPreviewComponent</text>
</g>
<!-- GoodPreviewComponent&#45;&gt;AppModule -->
<g id="edge10" class="edge">
<title>GoodPreviewComponent&#45;&gt;AppModule</title>
<path fill="none" stroke="black" d="M4078,-85.07C4078,-103.36 4078,-128.8 4078,-128.8 4078,-128.8 2947.72,-128.8 2947.72,-128.8"/>
<polygon fill="black" stroke="black" points="2947.72,-125.3 2937.72,-128.8 2947.72,-132.3 2947.72,-125.3"/>
</g>
<!-- GoodsPanelComponent -->
<g id="node11" class="node">
<title>GoodsPanelComponent</title>
<polygon fill="#ffffb3" stroke="black" points="3980.49,-84.8 3831.51,-84.8 3831.51,-48.8 3980.49,-48.8 3980.49,-84.8"/>
<text text-anchor="middle" x="3906" y="-62.6" font-family="Times,serif" font-size="14.00">GoodsPanelComponent</text>
</g>
<!-- GoodsPanelComponent&#45;&gt;AppModule -->
<g id="edge11" class="edge">
<title>GoodsPanelComponent&#45;&gt;AppModule</title>
<path fill="none" stroke="black" d="M3906,-84.8C3906,-102.48 3906,-126.8 3906,-126.8 3906,-126.8 2947.79,-126.8 2947.79,-126.8"/>
<polygon fill="black" stroke="black" points="2947.79,-123.3 2937.79,-126.8 2947.79,-130.3 2947.79,-123.3"/>
</g>
<!-- GroupsFormComponent -->
<g id="node12" class="node">
<title>GroupsFormComponent</title>
<polygon fill="#ffffb3" stroke="black" points="3813.39,-84.8 3660.61,-84.8 3660.61,-48.8 3813.39,-48.8 3813.39,-84.8"/>
<text text-anchor="middle" x="3737" y="-62.6" font-family="Times,serif" font-size="14.00">GroupsFormComponent</text>
</g>
<!-- GroupsFormComponent&#45;&gt;AppModule -->
<g id="edge12" class="edge">
<title>GroupsFormComponent&#45;&gt;AppModule</title>
<path fill="none" stroke="black" d="M3737,-84.83C3737,-101.86 3737,-124.8 3737,-124.8 3737,-124.8 2947.71,-124.8 2947.71,-124.8"/>
<polygon fill="black" stroke="black" points="2947.71,-121.3 2937.71,-124.8 2947.71,-128.3 2947.71,-121.3"/>
</g>
<!-- GroupsPanelComponent -->
<g id="node13" class="node">
<title>GroupsPanelComponent</title>
<polygon fill="#ffffb3" stroke="black" points="3642.66,-84.8 3489.34,-84.8 3489.34,-48.8 3642.66,-48.8 3642.66,-84.8"/>
<text text-anchor="middle" x="3566" y="-62.6" font-family="Times,serif" font-size="14.00">GroupsPanelComponent</text>
</g>
<!-- GroupsPanelComponent&#45;&gt;AppModule -->
<g id="edge13" class="edge">
<title>GroupsPanelComponent&#45;&gt;AppModule</title>
<path fill="none" stroke="black" d="M3566,-84.83C3566,-101.2 3566,-122.8 3566,-122.8 3566,-122.8 2947.91,-122.8 2947.91,-122.8"/>
<polygon fill="black" stroke="black" points="2947.91,-119.3 2937.91,-122.8 2947.91,-126.3 2947.91,-119.3"/>
</g>
<!-- LocalDataComponent -->
<g id="node14" class="node">
<title>LocalDataComponent</title>
<polygon fill="#ffffb3" stroke="black" points="3470.63,-84.8 3331.37,-84.8 3331.37,-48.8 3470.63,-48.8 3470.63,-84.8"/>
<text text-anchor="middle" x="3401" y="-62.6" font-family="Times,serif" font-size="14.00">LocalDataComponent</text>
</g>
<!-- LocalDataComponent&#45;&gt;AppModule -->
<g id="edge14" class="edge">
<title>LocalDataComponent&#45;&gt;AppModule</title>
<path fill="none" stroke="black" d="M3401,-85.08C3401,-100.75 3401,-120.8 3401,-120.8 3401,-120.8 2947.76,-120.8 2947.76,-120.8"/>
<polygon fill="black" stroke="black" points="2947.76,-117.3 2937.76,-120.8 2947.76,-124.3 2947.76,-117.3"/>
</g>
<!-- NavbarComponent -->
<g id="node15" class="node">
<title>NavbarComponent</title>
<polygon fill="#ffffb3" stroke="black" points="3313.03,-84.8 3190.97,-84.8 3190.97,-48.8 3313.03,-48.8 3313.03,-84.8"/>
<text text-anchor="middle" x="3252" y="-62.6" font-family="Times,serif" font-size="14.00">NavbarComponent</text>
</g>
<!-- NavbarComponent&#45;&gt;AppModule -->
<g id="edge15" class="edge">
<title>NavbarComponent&#45;&gt;AppModule</title>
<path fill="none" stroke="black" d="M3252,-84.99C3252,-99.98 3252,-118.8 3252,-118.8 3252,-118.8 2947.88,-118.8 2947.88,-118.8"/>
<polygon fill="black" stroke="black" points="2947.88,-115.3 2937.88,-118.8 2947.88,-122.3 2947.88,-115.3"/>
</g>
<!-- NoSolutionDialogComponent -->
<g id="node16" class="node">
<title>NoSolutionDialogComponent</title>
<polygon fill="#ffffb3" stroke="black" points="3173,-84.8 2989,-84.8 2989,-48.8 3173,-48.8 3173,-84.8"/>
<text text-anchor="middle" x="3081" y="-62.6" font-family="Times,serif" font-size="14.00">NoSolutionDialogComponent</text>
</g>
<!-- NoSolutionDialogComponent&#45;&gt;AppModule -->
<g id="edge16" class="edge">
<title>NoSolutionDialogComponent&#45;&gt;AppModule</title>
<path fill="none" stroke="black" d="M3081,-84.85C3081,-99.17 3081,-116.8 3081,-116.8 3081,-116.8 2947.98,-116.8 2947.98,-116.8"/>
<polygon fill="black" stroke="black" points="2947.98,-113.3 2937.98,-116.8 2947.98,-120.3 2947.98,-113.3"/>
</g>
<!-- OrdersFormComponent -->
<g id="node17" class="node">
<title>OrdersFormComponent</title>
<polygon fill="#ffffb3" stroke="black" points="2970.77,-84.8 2821.23,-84.8 2821.23,-48.8 2970.77,-48.8 2970.77,-84.8"/>
<text text-anchor="middle" x="2896" y="-62.6" font-family="Times,serif" font-size="14.00">OrdersFormComponent</text>
</g>
<!-- OrdersFormComponent&#45;&gt;AppModule -->
<g id="edge17" class="edge">
<title>OrdersFormComponent&#45;&gt;AppModule</title>
<path fill="none" stroke="black" d="M2896,-84.91C2896,-84.91 2896,-103.79 2896,-103.79"/>
<polygon fill="black" stroke="black" points="2892.5,-103.79 2896,-113.79 2899.5,-103.79 2892.5,-103.79"/>
</g>
<!-- PrettyLengthPipe -->
<g id="node18" class="node">
<title>PrettyLengthPipe</title>
<polygon fill="#ffffb3" stroke="black" points="2802.99,-84.8 2689.01,-84.8 2689.01,-48.8 2802.99,-48.8 2802.99,-84.8"/>
<text text-anchor="middle" x="2746" y="-62.6" font-family="Times,serif" font-size="14.00">PrettyLengthPipe</text>
</g>
<!-- PrettyLengthPipe&#45;&gt;AppModule -->
<g id="edge18" class="edge">
<title>PrettyLengthPipe&#45;&gt;AppModule</title>
<path fill="none" stroke="black" d="M2746,-84.85C2746,-99.17 2746,-116.8 2746,-116.8 2746,-116.8 2844.22,-116.8 2844.22,-116.8"/>
<polygon fill="black" stroke="black" points="2844.22,-120.3 2854.22,-116.8 2844.22,-113.3 2844.22,-120.3"/>
</g>
<!-- PrettyVolumePipe -->
<g id="node19" class="node">
<title>PrettyVolumePipe</title>
<polygon fill="#ffffb3" stroke="black" points="2670.94,-84.8 2551.06,-84.8 2551.06,-48.8 2670.94,-48.8 2670.94,-84.8"/>
<text text-anchor="middle" x="2611" y="-62.6" font-family="Times,serif" font-size="14.00">PrettyVolumePipe</text>
</g>
<!-- PrettyVolumePipe&#45;&gt;AppModule -->
<g id="edge19" class="edge">
<title>PrettyVolumePipe&#45;&gt;AppModule</title>
<path fill="none" stroke="black" d="M2611,-84.99C2611,-99.98 2611,-118.8 2611,-118.8 2611,-118.8 2844.25,-118.8 2844.25,-118.8"/>
<polygon fill="black" stroke="black" points="2844.25,-122.3 2854.25,-118.8 2844.25,-115.3 2844.25,-122.3"/>
</g>
<!-- ProductFormComponent -->
<g id="node20" class="node">
<title>ProductFormComponent</title>
<polygon fill="#ffffb3" stroke="black" points="2533.72,-84.8 2378.28,-84.8 2378.28,-48.8 2533.72,-48.8 2533.72,-84.8"/>
<text text-anchor="middle" x="2456" y="-62.6" font-family="Times,serif" font-size="14.00">ProductFormComponent</text>
</g>
<!-- ProductFormComponent&#45;&gt;AppModule -->
<g id="edge20" class="edge">
<title>ProductFormComponent&#45;&gt;AppModule</title>
<path fill="none" stroke="black" d="M2456,-85.08C2456,-100.75 2456,-120.8 2456,-120.8 2456,-120.8 2844.21,-120.8 2844.21,-120.8"/>
<polygon fill="black" stroke="black" points="2844.21,-124.3 2854.21,-120.8 2844.21,-117.3 2844.21,-124.3"/>
</g>
<!-- SolutionAnimationComponent -->
<g id="node21" class="node">
<title>SolutionAnimationComponent</title>
<polygon fill="#ffffb3" stroke="black" points="2360.17,-84.8 2171.83,-84.8 2171.83,-48.8 2360.17,-48.8 2360.17,-84.8"/>
<text text-anchor="middle" x="2266" y="-62.6" font-family="Times,serif" font-size="14.00">SolutionAnimationComponent</text>
</g>
<!-- SolutionAnimationComponent&#45;&gt;AppModule -->
<g id="edge21" class="edge">
<title>SolutionAnimationComponent&#45;&gt;AppModule</title>
<path fill="none" stroke="black" d="M2266,-84.83C2266,-101.2 2266,-122.8 2266,-122.8 2266,-122.8 2844.18,-122.8 2844.18,-122.8"/>
<polygon fill="black" stroke="black" points="2844.18,-126.3 2854.18,-122.8 2844.18,-119.3 2844.18,-126.3"/>
</g>
<!-- SolutionPreviewComponent -->
<g id="node22" class="node">
<title>SolutionPreviewComponent</title>
<polygon fill="#ffffb3" stroke="black" points="2153.16,-84.8 1978.84,-84.8 1978.84,-48.8 2153.16,-48.8 2153.16,-84.8"/>
<text text-anchor="middle" x="2066" y="-62.6" font-family="Times,serif" font-size="14.00">SolutionPreviewComponent</text>
</g>
<!-- SolutionPreviewComponent&#45;&gt;AppModule -->
<g id="edge22" class="edge">
<title>SolutionPreviewComponent&#45;&gt;AppModule</title>
<path fill="none" stroke="black" d="M2066,-84.83C2066,-101.86 2066,-124.8 2066,-124.8 2066,-124.8 2844.27,-124.8 2844.27,-124.8"/>
<polygon fill="black" stroke="black" points="2844.27,-128.3 2854.27,-124.8 2844.27,-121.3 2844.27,-128.3"/>
</g>
<!-- SolutionPreviewRenderingComponent -->
<g id="node23" class="node">
<title>SolutionPreviewRenderingComponent</title>
<polygon fill="#ffffb3" stroke="black" points="1960.48,-84.8 1727.52,-84.8 1727.52,-48.8 1960.48,-48.8 1960.48,-84.8"/>
<text text-anchor="middle" x="1844" y="-62.6" font-family="Times,serif" font-size="14.00">SolutionPreviewRenderingComponent</text>
</g>
<!-- SolutionPreviewRenderingComponent&#45;&gt;AppModule -->
<g id="edge23" class="edge">
<title>SolutionPreviewRenderingComponent&#45;&gt;AppModule</title>
<path fill="none" stroke="black" d="M1844,-84.8C1844,-102.48 1844,-126.8 1844,-126.8 1844,-126.8 2844.11,-126.8 2844.11,-126.8"/>
<polygon fill="black" stroke="black" points="2844.11,-130.3 2854.11,-126.8 2844.11,-123.3 2844.11,-130.3"/>
</g>
<!-- SolutionValidationComponent -->
<g id="node24" class="node">
<title>SolutionValidationComponent</title>
<polygon fill="#ffffb3" stroke="black" points="1709.88,-84.8 1522.12,-84.8 1522.12,-48.8 1709.88,-48.8 1709.88,-84.8"/>
<text text-anchor="middle" x="1616" y="-62.6" font-family="Times,serif" font-size="14.00">SolutionValidationComponent</text>
</g>
<!-- SolutionValidationComponent&#45;&gt;AppModule -->
<g id="edge24" class="edge">
<title>SolutionValidationComponent&#45;&gt;AppModule</title>
<path fill="none" stroke="black" d="M1616,-85.07C1616,-103.36 1616,-128.8 1616,-128.8 1616,-128.8 2844.14,-128.8 2844.14,-128.8"/>
<polygon fill="black" stroke="black" points="2844.14,-132.3 2854.14,-128.8 2844.14,-125.3 2844.14,-132.3"/>
</g>
<!-- SolutionValidationErrorPipe -->
<g id="node25" class="node">
<title>SolutionValidationErrorPipe</title>
<polygon fill="#ffffb3" stroke="black" points="1504.48,-84.8 1327.52,-84.8 1327.52,-48.8 1504.48,-48.8 1504.48,-84.8"/>
<text text-anchor="middle" x="1416" y="-62.6" font-family="Times,serif" font-size="14.00">SolutionValidationErrorPipe</text>
</g>
<!-- SolutionValidationErrorPipe&#45;&gt;AppModule -->
<g id="edge25" class="edge">
<title>SolutionValidationErrorPipe&#45;&gt;AppModule</title>
<path fill="none" stroke="black" d="M1416,-84.97C1416,-103.89 1416,-130.8 1416,-130.8 1416,-130.8 2844.09,-130.8 2844.09,-130.8"/>
<polygon fill="black" stroke="black" points="2844.09,-134.3 2854.09,-130.8 2844.09,-127.3 2844.09,-134.3"/>
</g>
<!-- SolutionVisualizationDialogComponent -->
<g id="node26" class="node">
<title>SolutionVisualizationDialogComponent</title>
<polygon fill="#ffffb3" stroke="black" points="1309.54,-84.8 1068.46,-84.8 1068.46,-48.8 1309.54,-48.8 1309.54,-84.8"/>
<text text-anchor="middle" x="1189" y="-62.6" font-family="Times,serif" font-size="14.00">SolutionVisualizationDialogComponent</text>
</g>
<!-- SolutionVisualizationDialogComponent&#45;&gt;AppModule -->
<g id="edge26" class="edge">
<title>SolutionVisualizationDialogComponent&#45;&gt;AppModule</title>
<path fill="none" stroke="black" d="M1189,-85.11C1189,-104.95 1189,-133.8 1189,-133.8 1189,-133.8 2844.23,-133.8 2844.23,-133.8"/>
<polygon fill="black" stroke="black" points="2844.23,-137.3 2854.23,-133.8 2844.23,-130.3 2844.23,-137.3"/>
</g>
<!-- SortedFormArrayPipe -->
<g id="node27" class="node">
<title>SortedFormArrayPipe</title>
<polygon fill="#ffffb3" stroke="black" points="1050.43,-84.8 909.57,-84.8 909.57,-48.8 1050.43,-48.8 1050.43,-84.8"/>
<text text-anchor="middle" x="980" y="-62.6" font-family="Times,serif" font-size="14.00">SortedFormArrayPipe</text>
</g>
<!-- SortedFormArrayPipe&#45;&gt;AppModule -->
<g id="edge27" class="edge">
<title>SortedFormArrayPipe&#45;&gt;AppModule</title>
<path fill="none" stroke="black" d="M980,-84.93C980,-105.37 980,-135.8 980,-135.8 980,-135.8 2844.2,-135.8 2844.2,-135.8"/>
<polygon fill="black" stroke="black" points="2844.2,-139.3 2854.2,-135.8 2844.2,-132.3 2844.2,-139.3"/>
</g>
<!-- VisualizerComponent -->
<g id="node28" class="node">
<title>VisualizerComponent</title>
<polygon fill="#ffffb3" stroke="black" points="891.36,-84.8 752.64,-84.8 752.64,-48.8 891.36,-48.8 891.36,-84.8"/>
<text text-anchor="middle" x="822" y="-62.6" font-family="Times,serif" font-size="14.00">VisualizerComponent</text>
</g>
<!-- VisualizerComponent&#45;&gt;AppModule -->
<g id="edge28" class="edge">
<title>VisualizerComponent&#45;&gt;AppModule</title>
<path fill="none" stroke="black" d="M822,-85.08C822,-106.12 822,-137.8 822,-137.8 822,-137.8 2844.1,-137.8 2844.1,-137.8"/>
<polygon fill="black" stroke="black" points="2844.1,-141.3 2854.1,-137.8 2844.1,-134.3 2844.1,-141.3"/>
</g>
<!-- WidgetComponent -->
<g id="node29" class="node">
<title>WidgetComponent</title>
<polygon fill="#ffffb3" stroke="black" points="734.04,-84.8 611.96,-84.8 611.96,-48.8 734.04,-48.8 734.04,-84.8"/>
<text text-anchor="middle" x="673" y="-62.6" font-family="Times,serif" font-size="14.00">WidgetComponent</text>
</g>
<!-- WidgetComponent&#45;&gt;AppModule -->
<g id="edge29" class="edge">
<title>WidgetComponent&#45;&gt;AppModule</title>
<path fill="none" stroke="black" d="M673,-84.84C673,-106.46 673,-139.8 673,-139.8 673,-139.8 2844.07,-139.8 2844.07,-139.8"/>
<polygon fill="black" stroke="black" points="2844.07,-143.3 2854.07,-139.8 2844.07,-136.3 2844.07,-143.3"/>
</g>
<!-- AppComponent  -->
<g id="node35" class="node">
<title>AppComponent </title>
<polygon fill="#80b1d3" stroke="black" points="2950.44,-214.8 2841.56,-214.8 2841.56,-178.8 2950.44,-178.8 2950.44,-214.8"/>
<text text-anchor="middle" x="2896" y="-192.6" font-family="Times,serif" font-size="14.00">AppComponent </text>
</g>
<!-- AppModule&#45;&gt;AppComponent  -->
<g id="edge34" class="edge">
<title>AppModule&#45;&gt;AppComponent </title>
<path fill="none" stroke="black" stroke-dasharray="1,5" d="M2896,-149.91C2896,-149.91 2896,-168.79 2896,-168.79"/>
<polygon fill="black" stroke="black" points="2892.5,-168.79 2896,-178.79 2899.5,-168.79 2892.5,-168.79"/>
</g>
<!-- AutomationModule -->
<g id="node31" class="node">
<title>AutomationModule</title>
<polygon fill="#8dd3c7" stroke="black" points="588.44,-84.8 585.44,-88.8 564.44,-88.8 561.44,-84.8 461.56,-84.8 461.56,-48.8 588.44,-48.8 588.44,-84.8"/>
<text text-anchor="middle" x="525" y="-62.6" font-family="Times,serif" font-size="14.00">AutomationModule</text>
</g>
<!-- AutomationModule&#45;&gt;AppModule -->
<g id="edge30" class="edge">
<title>AutomationModule&#45;&gt;AppModule</title>
<path fill="none" stroke="black" d="M525,-84.96C525,-107.15 525,-141.8 525,-141.8 525,-141.8 2844.09,-141.8 2844.09,-141.8"/>
<polygon fill="black" stroke="black" points="2844.09,-145.3 2854.09,-141.8 2844.09,-138.3 2844.09,-145.3"/>
</g>
<!-- SharedModule -->
<g id="node32" class="node">
<title>SharedModule</title>
<polygon fill="#8dd3c7" stroke="black" points="444.43,-84.8 441.43,-88.8 420.43,-88.8 417.43,-84.8 345.57,-84.8 345.57,-48.8 444.43,-48.8 444.43,-84.8"/>
<text text-anchor="middle" x="395" y="-62.6" font-family="Times,serif" font-size="14.00">SharedModule</text>
</g>
<!-- SharedModule&#45;&gt;AppModule -->
<g id="edge31" class="edge">
<title>SharedModule&#45;&gt;AppModule</title>
<path fill="none" stroke="black" d="M395,-85.05C395,-107.82 395,-143.8 395,-143.8 395,-143.8 2844.16,-143.8 2844.16,-143.8"/>
<polygon fill="black" stroke="black" points="2844.16,-147.3 2854.16,-143.8 2844.16,-140.3 2844.16,-147.3"/>
</g>
<!-- StorageManagerModule -->
<g id="node33" class="node">
<title>StorageManagerModule</title>
<polygon fill="#8dd3c7" stroke="black" points="328.07,-84.8 325.07,-88.8 304.07,-88.8 301.07,-84.8 175.93,-84.8 175.93,-48.8 328.07,-48.8 328.07,-84.8"/>
<text text-anchor="middle" x="252" y="-62.6" font-family="Times,serif" font-size="14.00">StorageManagerModule</text>
</g>
<!-- StorageManagerModule&#45;&gt;AppModule -->
<g id="edge32" class="edge">
<title>StorageManagerModule&#45;&gt;AppModule</title>
<path fill="none" stroke="black" d="M252,-85.12C252,-108.46 252,-145.8 252,-145.8 252,-145.8 2844.2,-145.8 2844.2,-145.8"/>
<polygon fill="black" stroke="black" points="2844.2,-149.3 2854.2,-145.8 2844.2,-142.3 2844.2,-149.3"/>
</g>
<!-- VisualizationModule -->
<g id="node34" class="node">
<title>VisualizationModule</title>
<polygon fill="#8dd3c7" stroke="black" points="158.2,-84.8 155.2,-88.8 134.2,-88.8 131.2,-84.8 23.8,-84.8 23.8,-48.8 158.2,-48.8 158.2,-84.8"/>
<text text-anchor="middle" x="91" y="-62.6" font-family="Times,serif" font-size="14.00">VisualizationModule</text>
</g>
<!-- VisualizationModule&#45;&gt;AppModule -->
<g id="edge33" class="edge">
<title>VisualizationModule&#45;&gt;AppModule</title>
<path fill="none" stroke="black" d="M91,-85.18C91,-109.08 91,-147.8 91,-147.8 91,-147.8 2844.17,-147.8 2844.17,-147.8"/>
<polygon fill="black" stroke="black" points="2844.17,-151.3 2854.17,-147.8 2844.17,-144.3 2844.17,-151.3"/>
</g>
</g>
</svg>
