<?xml version="1.0" encoding="UTF-8" standalone="no"?>
<!DOCTYPE svg PUBLIC "-//W3C//DTD SVG 1.1//EN"
 "http://www.w3.org/Graphics/SVG/1.1/DTD/svg11.dtd">
<!-- Generated by graphviz version 5.0.0 (20220707.1540)
 -->
<!-- Title: dependencies Pages: 1 -->
<svg width="6320pt" height="247pt"
 viewBox="0.00 0.00 6320.00 246.80" xmlns="http://www.w3.org/2000/svg" xmlns:xlink="http://www.w3.org/1999/xlink">
<g id="graph0" class="graph" transform="scale(1 1) rotate(0) translate(4 242.8)">
<title>dependencies</title>
<polygon fill="white" stroke="transparent" points="-4,4 -4,-242.8 6316,-242.8 6316,4 -4,4"/>
<text text-anchor="middle" x="3156" y="-8.2" font-family="sans-serif" font-size="14.00">dependencies</text>
<g id="clust1" class="cluster">
<title>cluster_AppModule</title>
<polygon fill="none" stroke="black" stroke-dasharray="1,5" points="8,-32.8 8,-230.8 6304,-230.8 6304,-32.8 8,-32.8"/>
</g>
<g id="clust2" class="cluster">
<title>cluster_AppModule_declarations</title>
<polygon fill="none" stroke="black" points="604,-40.8 604,-92.8 6296,-92.8 6296,-40.8 604,-40.8"/>
</g>
<g id="clust35" class="cluster">
<title>cluster_AppModule_imports</title>
<polygon fill="none" stroke="black" points="16,-40.8 16,-92.8 596,-92.8 596,-40.8 16,-40.8"/>
</g>
<g id="clust37" class="cluster">
<title>cluster_AppModule_bootstrap</title>
<polygon fill="none" stroke="black" points="3121,-170.8 3121,-222.8 3245,-222.8 3245,-170.8 3121,-170.8"/>
</g>
<!-- AboutComponent -->
<g id="node1" class="node">
<title>AboutComponent</title>
<polygon fill="#ffffb3" stroke="black" points="6288.33,-84.8 6171.67,-84.8 6171.67,-48.8 6288.33,-48.8 6288.33,-84.8"/>
<text text-anchor="middle" x="6230" y="-62.6" font-family="Times,serif" font-size="14.00">AboutComponent</text>
</g>
<!-- AppModule -->
<g id="node33" class="node">
<title>AppModule</title>
<polygon fill="#8dd3c7" stroke="black" points="3224.66,-149.8 3221.66,-153.8 3200.66,-153.8 3197.66,-149.8 3141.34,-149.8 3141.34,-113.8 3224.66,-113.8 3224.66,-149.8"/>
<text text-anchor="middle" x="3183" y="-127.6" font-family="Times,serif" font-size="14.00">AppModule</text>
</g>
<!-- AboutComponent&#45;&gt;AppModule -->
<g id="edge1" class="edge">
<title>AboutComponent&#45;&gt;AppModule</title>
<path fill="none" stroke="black" d="M6230,-85.18C6230,-109.08 6230,-147.8 6230,-147.8 6230,-147.8 3234.91,-147.8 3234.91,-147.8"/>
<polygon fill="black" stroke="black" points="3234.91,-144.3 3224.91,-147.8 3234.91,-151.3 3234.91,-144.3"/>
</g>
<!-- ApiCallConfiguratorDialogComponent -->
<g id="node2" class="node">
<title>ApiCallConfiguratorDialogComponent</title>
<polygon fill="#ffffb3" stroke="black" points="6154.08,-84.8 5917.92,-84.8 5917.92,-48.8 6154.08,-48.8 6154.08,-84.8"/>
<text text-anchor="middle" x="6036" y="-62.6" font-family="Times,serif" font-size="14.00">ApiCallConfiguratorDialogComponent</text>
</g>
<!-- ApiCallConfiguratorDialogComponent&#45;&gt;AppModule -->
<g id="edge2" class="edge">
<title>ApiCallConfiguratorDialogComponent&#45;&gt;AppModule</title>
<path fill="none" stroke="black" d="M6036,-85.12C6036,-108.46 6036,-145.8 6036,-145.8 6036,-145.8 3234.71,-145.8 3234.71,-145.8"/>
<polygon fill="black" stroke="black" points="3234.71,-142.3 3224.71,-145.8 3234.71,-149.3 3234.71,-142.3"/>
</g>
<!-- AppComponent -->
<g id="node3" class="node">
<title>AppComponent</title>
<polygon fill="#ffffb3" stroke="black" points="5899.94,-84.8 5794.06,-84.8 5794.06,-48.8 5899.94,-48.8 5899.94,-84.8"/>
<text text-anchor="middle" x="5847" y="-62.6" font-family="Times,serif" font-size="14.00">AppComponent</text>
</g>
<!-- AppComponent&#45;&gt;AppModule -->
<g id="edge3" class="edge">
<title>AppComponent&#45;&gt;AppModule</title>
<path fill="none" stroke="black" d="M5847,-85.05C5847,-107.82 5847,-143.8 5847,-143.8 5847,-143.8 3234.85,-143.8 3234.85,-143.8"/>
<polygon fill="black" stroke="black" points="3234.85,-140.3 3224.85,-143.8 3234.85,-147.3 3234.85,-140.3"/>
</g>
<!-- CalculationComponent -->
<g id="node4" class="node">
<title>CalculationComponent</title>
<polygon fill="#ffffb3" stroke="black" points="5775.87,-84.8 5630.13,-84.8 5630.13,-48.8 5775.87,-48.8 5775.87,-84.8"/>
<text text-anchor="middle" x="5703" y="-62.6" font-family="Times,serif" font-size="14.00">CalculationComponent</text>
</g>
<!-- CalculationComponent&#45;&gt;AppModule -->
<g id="edge4" class="edge">
<title>CalculationComponent&#45;&gt;AppModule</title>
<path fill="none" stroke="black" d="M5703,-84.96C5703,-107.15 5703,-141.8 5703,-141.8 5703,-141.8 3234.9,-141.8 3234.9,-141.8"/>
<polygon fill="black" stroke="black" points="3234.9,-138.3 3224.9,-141.8 3234.9,-145.3 3234.9,-138.3"/>
</g>
<!-- CalculationContextOverviewComponent -->
<g id="node5" class="node">
<title>CalculationContextOverviewComponent</title>
<polygon fill="#ffffb3" stroke="black" points="5611.9,-84.8 5366.1,-84.8 5366.1,-48.8 5611.9,-48.8 5611.9,-84.8"/>
<text text-anchor="middle" x="5489" y="-62.6" font-family="Times,serif" font-size="14.00">CalculationContextOverviewComponent</text>
</g>
<!-- CalculationContextOverviewComponent&#45;&gt;AppModule -->
<g id="edge5" class="edge">
<title>CalculationContextOverviewComponent&#45;&gt;AppModule</title>
<path fill="none" stroke="black" d="M5489,-84.84C5489,-106.46 5489,-139.8 5489,-139.8 5489,-139.8 3234.99,-139.8 3234.99,-139.8"/>
<polygon fill="black" stroke="black" points="3234.99,-136.3 3224.99,-139.8 3234.99,-143.3 3234.99,-136.3"/>
</g>
<!-- CalculationErrorPipe -->
<g id="node6" class="node">
<title>CalculationErrorPipe</title>
<polygon fill="#ffffb3" stroke="black" points="5348.47,-84.8 5213.53,-84.8 5213.53,-48.8 5348.47,-48.8 5348.47,-84.8"/>
<text text-anchor="middle" x="5281" y="-62.6" font-family="Times,serif" font-size="14.00">CalculationErrorPipe</text>
</g>
<!-- CalculationErrorPipe&#45;&gt;AppModule -->
<g id="edge6" class="edge">
<title>CalculationErrorPipe&#45;&gt;AppModule</title>
<path fill="none" stroke="black" d="M5281,-85.08C5281,-106.12 5281,-137.8 5281,-137.8 5281,-137.8 3234.91,-137.8 3234.91,-137.8"/>
<polygon fill="black" stroke="black" points="3234.91,-134.3 3224.91,-137.8 3234.91,-141.3 3234.91,-134.3"/>
</g>
<!-- ComputedStylePipe -->
<g id="node7" class="node">
<title>ComputedStylePipe</title>
<polygon fill="#ffffb3" stroke="black" points="5196,-84.8 5068,-84.8 5068,-48.8 5196,-48.8 5196,-84.8"/>
<text text-anchor="middle" x="5132" y="-62.6" font-family="Times,serif" font-size="14.00">ComputedStylePipe</text>
</g>
<!-- ComputedStylePipe&#45;&gt;AppModule -->
<g id="edge7" class="edge">
<title>ComputedStylePipe&#45;&gt;AppModule</title>
<path fill="none" stroke="black" d="M5132,-84.93C5132,-105.37 5132,-135.8 5132,-135.8 5132,-135.8 3235.06,-135.8 3235.06,-135.8"/>
<polygon fill="black" stroke="black" points="3235.06,-132.3 3225.06,-135.8 3235.06,-139.3 3235.06,-132.3"/>
</g>
<!-- ContainerPreviewComponent -->
<g id="node8" class="node">
<title>ContainerPreviewComponent</title>
<polygon fill="#ffffb3" stroke="black" points="5050.41,-84.8 4867.59,-84.8 4867.59,-48.8 5050.41,-48.8 5050.41,-84.8"/>
<text text-anchor="middle" x="4959" y="-62.6" font-family="Times,serif" font-size="14.00">ContainerPreviewComponent</text>
</g>
<!-- ContainerPreviewComponent&#45;&gt;AppModule -->
<g id="edge8" class="edge">
<title>ContainerPreviewComponent&#45;&gt;AppModule</title>
<path fill="none" stroke="black" d="M4959,-85.11C4959,-104.95 4959,-133.8 4959,-133.8 4959,-133.8 3234.72,-133.8 3234.72,-133.8"/>
<polygon fill="black" stroke="black" points="3234.72,-130.3 3224.72,-133.8 3234.72,-137.3 3234.72,-130.3"/>
</g>
<!-- EditDataDialogComponent -->
<g id="node9" class="node">
<title>EditDataDialogComponent</title>
<polygon fill="#ffffb3" stroke="black" points="4849.69,-84.8 4680.31,-84.8 4680.31,-48.8 4849.69,-48.8 4849.69,-84.8"/>
<text text-anchor="middle" x="4765" y="-62.6" font-family="Times,serif" font-size="14.00">EditDataDialogComponent</text>
</g>
<!-- EditDataDialogComponent&#45;&gt;AppModule -->
<g id="edge9" class="edge">
<title>EditDataDialogComponent&#45;&gt;AppModule</title>
<path fill="none" stroke="black" d="M4765,-84.91C4765,-104.14 4765,-131.8 4765,-131.8 4765,-131.8 3234.91,-131.8 3234.91,-131.8"/>
<polygon fill="black" stroke="black" points="3234.91,-128.3 3224.91,-131.8 3234.91,-135.3 3234.91,-128.3"/>
</g>
<!-- GoodPreviewComponent -->
<g id="node10" class="node">
<title>GoodPreviewComponent</title>
<polygon fill="#ffffb3" stroke="black" points="4662.32,-84.8 4503.68,-84.8 4503.68,-48.8 4662.32,-48.8 4662.32,-84.8"/>
<text text-anchor="middle" x="4583" y="-62.6" font-family="Times,serif" font-size="14.00">GoodPreviewComponent</text>
</g>
<!-- GoodPreviewComponent&#45;&gt;AppModule -->
<g id="edge10" class="edge">
<title>GoodPreviewComponent&#45;&gt;AppModule</title>
<path fill="none" stroke="black" d="M4583,-85.02C4583,-103.63 4583,-129.8 4583,-129.8 4583,-129.8 3234.9,-129.8 3234.9,-129.8"/>
<polygon fill="black" stroke="black" points="3234.9,-126.3 3224.9,-129.8 3234.9,-133.3 3234.9,-126.3"/>
</g>
<!-- GoodsPanelComponent -->
<g id="node11" class="node">
<title>GoodsPanelComponent</title>
<polygon fill="#ffffb3" stroke="black" points="4485.49,-84.8 4336.51,-84.8 4336.51,-48.8 4485.49,-48.8 4485.49,-84.8"/>
<text text-anchor="middle" x="4411" y="-62.6" font-family="Times,serif" font-size="14.00">GoodsPanelComponent</text>
</g>
<!-- GoodsPanelComponent&#45;&gt;AppModule -->
<g id="edge11" class="edge">
<title>GoodsPanelComponent&#45;&gt;AppModule</title>
<path fill="none" stroke="black" d="M4411,-85.1C4411,-103.07 4411,-127.8 4411,-127.8 4411,-127.8 3234.92,-127.8 3234.92,-127.8"/>
<polygon fill="black" stroke="black" points="3234.92,-124.3 3224.92,-127.8 3234.92,-131.3 3234.92,-124.3"/>
</g>
<!-- GroupsFormComponent -->
<g id="node12" class="node">
<title>GroupsFormComponent</title>
<polygon fill="#ffffb3" stroke="black" points="4318.39,-84.8 4165.61,-84.8 4165.61,-48.8 4318.39,-48.8 4318.39,-84.8"/>
<text text-anchor="middle" x="4242" y="-62.6" font-family="Times,serif" font-size="14.00">GroupsFormComponent</text>
</g>
<!-- GroupsFormComponent&#45;&gt;AppModule -->
<g id="edge12" class="edge">
<title>GroupsFormComponent&#45;&gt;AppModule</title>
<path fill="none" stroke="black" d="M4242,-84.82C4242,-102.17 4242,-125.8 4242,-125.8 4242,-125.8 3234.84,-125.8 3234.84,-125.8"/>
<polygon fill="black" stroke="black" points="3234.84,-122.3 3224.84,-125.8 3234.84,-129.3 3234.84,-122.3"/>
</g>
<!-- GroupsPanelComponent -->
<g id="node13" class="node">
<title>GroupsPanelComponent</title>
<polygon fill="#ffffb3" stroke="black" points="4147.66,-84.8 3994.34,-84.8 3994.34,-48.8 4147.66,-48.8 4147.66,-84.8"/>
<text text-anchor="middle" x="4071" y="-62.6" font-family="Times,serif" font-size="14.00">GroupsPanelComponent</text>
</g>
<!-- GroupsPanelComponent&#45;&gt;AppModule -->
<g id="edge13" class="edge">
<title>GroupsPanelComponent&#45;&gt;AppModule</title>
<path fill="none" stroke="black" d="M4071,-84.84C4071,-101.53 4071,-123.8 4071,-123.8 4071,-123.8 3234.94,-123.8 3234.94,-123.8"/>
<polygon fill="black" stroke="black" points="3234.94,-120.3 3224.94,-123.8 3234.94,-127.3 3234.94,-120.3"/>
</g>
<!-- LocalDataComponent -->
<g id="node14" class="node">
<title>LocalDataComponent</title>
<polygon fill="#ffffb3" stroke="black" points="3975.63,-84.8 3836.37,-84.8 3836.37,-48.8 3975.63,-48.8 3975.63,-84.8"/>
<text text-anchor="middle" x="3906" y="-62.6" font-family="Times,serif" font-size="14.00">LocalDataComponent</text>
</g>
<!-- LocalDataComponent&#45;&gt;AppModule -->
<g id="edge14" class="edge">
<title>LocalDataComponent&#45;&gt;AppModule</title>
<path fill="none" stroke="black" d="M3906,-84.81C3906,-100.85 3906,-121.8 3906,-121.8 3906,-121.8 3234.73,-121.8 3234.73,-121.8"/>
<polygon fill="black" stroke="black" points="3234.73,-118.3 3224.73,-121.8 3234.73,-125.3 3234.73,-118.3"/>
</g>
<!-- NavbarComponent -->
<g id="node15" class="node">
<title>NavbarComponent</title>
<polygon fill="#ffffb3" stroke="black" points="3818.03,-84.8 3695.97,-84.8 3695.97,-48.8 3818.03,-48.8 3818.03,-84.8"/>
<text text-anchor="middle" x="3757" y="-62.6" font-family="Times,serif" font-size="14.00">NavbarComponent</text>
</g>
<!-- NavbarComponent&#45;&gt;AppModule -->
<g id="edge15" class="edge">
<title>NavbarComponent&#45;&gt;AppModule</title>
<path fill="none" stroke="black" d="M3757,-85.04C3757,-100.37 3757,-119.8 3757,-119.8 3757,-119.8 3234.74,-119.8 3234.74,-119.8"/>
<polygon fill="black" stroke="black" points="3234.74,-116.3 3224.74,-119.8 3234.74,-123.3 3234.74,-116.3"/>
</g>
<!-- NoSolutionDialogComponent -->
<g id="node16" class="node">
<title>NoSolutionDialogComponent</title>
<polygon fill="#ffffb3" stroke="black" points="3678,-84.8 3494,-84.8 3494,-48.8 3678,-48.8 3678,-84.8"/>
<text text-anchor="middle" x="3586" y="-62.6" font-family="Times,serif" font-size="14.00">NoSolutionDialogComponent</text>
</g>
<!-- NoSolutionDialogComponent&#45;&gt;AppModule -->
<g id="edge16" class="edge">
<title>NoSolutionDialogComponent&#45;&gt;AppModule</title>
<path fill="none" stroke="black" d="M3586,-84.92C3586,-99.58 3586,-117.8 3586,-117.8 3586,-117.8 3234.99,-117.8 3234.99,-117.8"/>
<polygon fill="black" stroke="black" points="3234.99,-114.3 3224.99,-117.8 3234.99,-121.3 3234.99,-114.3"/>
</g>
<!-- OrdersFormComponent -->
<g id="node17" class="node">
<title>OrdersFormComponent</title>
<polygon fill="#ffffb3" stroke="black" points="3475.77,-84.8 3326.23,-84.8 3326.23,-48.8 3475.77,-48.8 3475.77,-84.8"/>
<text text-anchor="middle" x="3401" y="-62.6" font-family="Times,serif" font-size="14.00">OrdersFormComponent</text>
</g>
<!-- OrdersFormComponent&#45;&gt;AppModule -->
<g id="edge17" class="edge">
<title>OrdersFormComponent&#45;&gt;AppModule</title>
<path fill="none" stroke="black" d="M3401,-85.05C3401,-98.98 3401,-115.8 3401,-115.8 3401,-115.8 3234.77,-115.8 3234.77,-115.8"/>
<polygon fill="black" stroke="black" points="3234.77,-112.3 3224.77,-115.8 3234.77,-119.3 3234.77,-112.3"/>
</g>
<!-- PrettyLengthPipe -->
<g id="node18" class="node">
<title>PrettyLengthPipe</title>
<polygon fill="#ffffb3" stroke="black" points="3307.99,-84.8 3194.01,-84.8 3194.01,-48.8 3307.99,-48.8 3307.99,-84.8"/>
<text text-anchor="middle" x="3251" y="-62.6" font-family="Times,serif" font-size="14.00">PrettyLengthPipe</text>
</g>
<!-- PrettyLengthPipe&#45;&gt;AppModule -->
<g id="edge18" class="edge">
<title>PrettyLengthPipe&#45;&gt;AppModule</title>
<path fill="none" stroke="black" d="M3209.42,-84.91C3209.42,-84.91 3209.42,-103.79 3209.42,-103.79"/>
<polygon fill="black" stroke="black" points="3205.92,-103.79 3209.42,-113.79 3212.92,-103.79 3205.92,-103.79"/>
</g>
<!-- PrettyVolumePipe -->
<g id="node19" class="node">
<title>PrettyVolumePipe</title>
<polygon fill="#ffffb3" stroke="black" points="3175.94,-84.8 3056.06,-84.8 3056.06,-48.8 3175.94,-48.8 3175.94,-84.8"/>
<text text-anchor="middle" x="3116" y="-62.6" font-family="Times,serif" font-size="14.00">PrettyVolumePipe</text>
</g>
<!-- PrettyVolumePipe&#45;&gt;AppModule -->
<g id="edge19" class="edge">
<title>PrettyVolumePipe&#45;&gt;AppModule</title>
<path fill="none" stroke="black" d="M3158.44,-84.91C3158.44,-84.91 3158.44,-103.79 3158.44,-103.79"/>
<polygon fill="black" stroke="black" points="3154.94,-103.79 3158.44,-113.79 3161.94,-103.79 3154.94,-103.79"/>
</g>
<!-- ProductFormComponent -->
<g id="node20" class="node">
<title>ProductFormComponent</title>
<polygon fill="#ffffb3" stroke="black" points="3038.72,-84.8 2883.28,-84.8 2883.28,-48.8 3038.72,-48.8 3038.72,-84.8"/>
<text text-anchor="middle" x="2961" y="-62.6" font-family="Times,serif" font-size="14.00">ProductFormComponent</text>
</g>
<!-- ProductFormComponent&#45;&gt;AppModule -->
<g id="edge20" class="edge">
<title>ProductFormComponent&#45;&gt;AppModule</title>
<path fill="none" stroke="black" d="M2961,-85.05C2961,-98.98 2961,-115.8 2961,-115.8 2961,-115.8 3131.24,-115.8 3131.24,-115.8"/>
<polygon fill="black" stroke="black" points="3131.24,-119.3 3141.24,-115.8 3131.24,-112.3 3131.24,-119.3"/>
</g>
<!-- SelectGroupComponent -->
<g id="node21" class="node">
<title>SelectGroupComponent</title>
<polygon fill="#ffffb3" stroke="black" points="2865.81,-84.8 2714.19,-84.8 2714.19,-48.8 2865.81,-48.8 2865.81,-84.8"/>
<text text-anchor="middle" x="2790" y="-62.6" font-family="Times,serif" font-size="14.00">SelectGroupComponent</text>
</g>
<!-- SelectGroupComponent&#45;&gt;AppModule -->
<g id="edge21" class="edge">
<title>SelectGroupComponent&#45;&gt;AppModule</title>
<path fill="none" stroke="black" d="M2790,-84.92C2790,-99.58 2790,-117.8 2790,-117.8 2790,-117.8 3131.31,-117.8 3131.31,-117.8"/>
<polygon fill="black" stroke="black" points="3131.31,-121.3 3141.31,-117.8 3131.31,-114.3 3131.31,-121.3"/>
</g>
<!-- SelectProductComponent -->
<g id="node22" class="node">
<title>SelectProductComponent</title>
<polygon fill="#ffffb3" stroke="black" points="2696.59,-84.8 2537.41,-84.8 2537.41,-48.8 2696.59,-48.8 2696.59,-84.8"/>
<text text-anchor="middle" x="2617" y="-62.6" font-family="Times,serif" font-size="14.00">SelectProductComponent</text>
</g>
<!-- SelectProductComponent&#45;&gt;AppModule -->
<g id="edge22" class="edge">
<title>SelectProductComponent&#45;&gt;AppModule</title>
<path fill="none" stroke="black" d="M2617,-85.04C2617,-100.37 2617,-119.8 2617,-119.8 2617,-119.8 3130.92,-119.8 3130.92,-119.8"/>
<polygon fill="black" stroke="black" points="3130.92,-123.3 3140.92,-119.8 3130.92,-116.3 3130.92,-123.3"/>
</g>
<!-- SelectUnitComponent -->
<g id="node23" class="node">
<title>SelectUnitComponent</title>
<polygon fill="#ffffb3" stroke="black" points="2519.43,-84.8 2378.57,-84.8 2378.57,-48.8 2519.43,-48.8 2519.43,-84.8"/>
<text text-anchor="middle" x="2449" y="-62.6" font-family="Times,serif" font-size="14.00">SelectUnitComponent</text>
</g>
<!-- SelectUnitComponent&#45;&gt;AppModule -->
<g id="edge23" class="edge">
<title>SelectUnitComponent&#45;&gt;AppModule</title>
<path fill="none" stroke="black" d="M2449,-84.81C2449,-100.85 2449,-121.8 2449,-121.8 2449,-121.8 3131.17,-121.8 3131.17,-121.8"/>
<polygon fill="black" stroke="black" points="3131.17,-125.3 3141.17,-121.8 3131.17,-118.3 3131.17,-125.3"/>
</g>
<!-- SolutionAnimationComponent -->
<g id="node24" class="node">
<title>SolutionAnimationComponent</title>
<polygon fill="#ffffb3" stroke="black" points="2360.17,-84.8 2171.83,-84.8 2171.83,-48.8 2360.17,-48.8 2360.17,-84.8"/>
<text text-anchor="middle" x="2266" y="-62.6" font-family="Times,serif" font-size="14.00">SolutionAnimationComponent</text>
</g>
<!-- SolutionAnimationComponent&#45;&gt;AppModule -->
<g id="edge24" class="edge">
<title>SolutionAnimationComponent&#45;&gt;AppModule</title>
<path fill="none" stroke="black" d="M2266,-84.84C2266,-101.53 2266,-123.8 2266,-123.8 2266,-123.8 3131.22,-123.8 3131.22,-123.8"/>
<polygon fill="black" stroke="black" points="3131.22,-127.3 3141.22,-123.8 3131.22,-120.3 3131.22,-127.3"/>
</g>
<!-- SolutionPreviewComponent -->
<g id="node25" class="node">
<title>SolutionPreviewComponent</title>
<polygon fill="#ffffb3" stroke="black" points="2153.16,-84.8 1978.84,-84.8 1978.84,-48.8 2153.16,-48.8 2153.16,-84.8"/>
<text text-anchor="middle" x="2066" y="-62.6" font-family="Times,serif" font-size="14.00">SolutionPreviewComponent</text>
</g>
<!-- SolutionPreviewComponent&#45;&gt;AppModule -->
<g id="edge25" class="edge">
<title>SolutionPreviewComponent&#45;&gt;AppModule</title>
<path fill="none" stroke="black" d="M2066,-84.82C2066,-102.17 2066,-125.8 2066,-125.8 2066,-125.8 3131.25,-125.8 3131.25,-125.8"/>
<polygon fill="black" stroke="black" points="3131.25,-129.3 3141.25,-125.8 3131.25,-122.3 3131.25,-129.3"/>
</g>
<!-- SolutionPreviewRenderingComponent -->
<g id="node26" class="node">
<title>SolutionPreviewRenderingComponent</title>
<polygon fill="#ffffb3" stroke="black" points="1960.48,-84.8 1727.52,-84.8 1727.52,-48.8 1960.48,-48.8 1960.48,-84.8"/>
<text text-anchor="middle" x="1844" y="-62.6" font-family="Times,serif" font-size="14.00">SolutionPreviewRenderingComponent</text>
</g>
<!-- SolutionPreviewRenderingComponent&#45;&gt;AppModule -->
<g id="edge26" class="edge">
<title>SolutionPreviewRenderingComponent&#45;&gt;AppModule</title>
<path fill="none" stroke="black" d="M1844,-85.1C1844,-103.07 1844,-127.8 1844,-127.8 1844,-127.8 3131.09,-127.8 3131.09,-127.8"/>
<polygon fill="black" stroke="black" points="3131.09,-131.3 3141.09,-127.8 3131.09,-124.3 3131.09,-131.3"/>
</g>
<!-- SolutionValidationComponent -->
<g id="node27" class="node">
<title>SolutionValidationComponent</title>
<polygon fill="#ffffb3" stroke="black" points="1709.88,-84.8 1522.12,-84.8 1522.12,-48.8 1709.88,-48.8 1709.88,-84.8"/>
<text text-anchor="middle" x="1616" y="-62.6" font-family="Times,serif" font-size="14.00">SolutionValidationComponent</text>
</g>
<!-- SolutionValidationComponent&#45;&gt;AppModule -->
<g id="edge27" class="edge">
<title>SolutionValidationComponent&#45;&gt;AppModule</title>
<path fill="none" stroke="black" d="M1616,-85.02C1616,-103.63 1616,-129.8 1616,-129.8 1616,-129.8 3131.09,-129.8 3131.09,-129.8"/>
<polygon fill="black" stroke="black" points="3131.09,-133.3 3141.09,-129.8 3131.09,-126.3 3131.09,-133.3"/>
</g>
<!-- SolutionValidationErrorPipe -->
<g id="node28" class="node">
<title>SolutionValidationErrorPipe</title>
<polygon fill="#ffffb3" stroke="black" points="1504.48,-84.8 1327.52,-84.8 1327.52,-48.8 1504.48,-48.8 1504.48,-84.8"/>
<text text-anchor="middle" x="1416" y="-62.6" font-family="Times,serif" font-size="14.00">SolutionValidationErrorPipe</text>
</g>
<!-- SolutionValidationErrorPipe&#45;&gt;AppModule -->
<g id="edge28" class="edge">
<title>SolutionValidationErrorPipe&#45;&gt;AppModule</title>
<path fill="none" stroke="black" d="M1416,-84.91C1416,-104.14 1416,-131.8 1416,-131.8 1416,-131.8 3131.06,-131.8 3131.06,-131.8"/>
<polygon fill="black" stroke="black" points="3131.06,-135.3 3141.06,-131.8 3131.06,-128.3 3131.06,-135.3"/>
</g>
<!-- SolutionVisualizationDialogComponent -->
<g id="node29" class="node">
<title>SolutionVisualizationDialogComponent</title>
<polygon fill="#ffffb3" stroke="black" points="1309.54,-84.8 1068.46,-84.8 1068.46,-48.8 1309.54,-48.8 1309.54,-84.8"/>
<text text-anchor="middle" x="1189" y="-62.6" font-family="Times,serif" font-size="14.00">SolutionVisualizationDialogComponent</text>
</g>
<!-- SolutionVisualizationDialogComponent&#45;&gt;AppModule -->
<g id="edge29" class="edge">
<title>SolutionVisualizationDialogComponent&#45;&gt;AppModule</title>
<path fill="none" stroke="black" d="M1189,-85.11C1189,-104.95 1189,-133.8 1189,-133.8 1189,-133.8 3130.89,-133.8 3130.89,-133.8"/>
<polygon fill="black" stroke="black" points="3130.89,-137.3 3140.89,-133.8 3130.89,-130.3 3130.89,-137.3"/>
</g>
<!-- SortedFormArrayPipe -->
<g id="node30" class="node">
<title>SortedFormArrayPipe</title>
<polygon fill="#ffffb3" stroke="black" points="1050.43,-84.8 909.57,-84.8 909.57,-48.8 1050.43,-48.8 1050.43,-84.8"/>
<text text-anchor="middle" x="980" y="-62.6" font-family="Times,serif" font-size="14.00">SortedFormArrayPipe</text>
</g>
<!-- SortedFormArrayPipe&#45;&gt;AppModule -->
<g id="edge30" class="edge">
<title>SortedFormArrayPipe&#45;&gt;AppModule</title>
<path fill="none" stroke="black" d="M980,-84.93C980,-105.37 980,-135.8 980,-135.8 980,-135.8 3130.96,-135.8 3130.96,-135.8"/>
<polygon fill="black" stroke="black" points="3130.96,-139.3 3140.96,-135.8 3130.96,-132.3 3130.96,-139.3"/>
</g>
<!-- VisualizerComponent -->
<g id="node31" class="node">
<title>VisualizerComponent</title>
<polygon fill="#ffffb3" stroke="black" points="891.36,-84.8 752.64,-84.8 752.64,-48.8 891.36,-48.8 891.36,-84.8"/>
<text text-anchor="middle" x="822" y="-62.6" font-family="Times,serif" font-size="14.00">VisualizerComponent</text>
</g>
<!-- VisualizerComponent&#45;&gt;AppModule -->
<g id="edge31" class="edge">
<title>VisualizerComponent&#45;&gt;AppModule</title>
<path fill="none" stroke="black" d="M822,-85.08C822,-106.12 822,-137.8 822,-137.8 822,-137.8 3131.27,-137.8 3131.27,-137.8"/>
<polygon fill="black" stroke="black" points="3131.27,-141.3 3141.27,-137.8 3131.27,-134.3 3131.27,-141.3"/>
</g>
<!-- WidgetComponent -->
<g id="node32" class="node">
<title>WidgetComponent</title>
<polygon fill="#ffffb3" stroke="black" points="734.04,-84.8 611.96,-84.8 611.96,-48.8 734.04,-48.8 734.04,-84.8"/>
<text text-anchor="middle" x="673" y="-62.6" font-family="Times,serif" font-size="14.00">WidgetComponent</text>
</g>
<!-- WidgetComponent&#45;&gt;AppModule -->
<g id="edge32" class="edge">
<title>WidgetComponent&#45;&gt;AppModule</title>
<path fill="none" stroke="black" d="M673,-84.84C673,-106.46 673,-139.8 673,-139.8 673,-139.8 3131.27,-139.8 3131.27,-139.8"/>
<polygon fill="black" stroke="black" points="3131.27,-143.3 3141.27,-139.8 3131.27,-136.3 3131.27,-143.3"/>
</g>
<!-- AppComponent  -->
<g id="node38" class="node">
<title>AppComponent </title>
<polygon fill="#80b1d3" stroke="black" points="3237.44,-214.8 3128.56,-214.8 3128.56,-178.8 3237.44,-178.8 3237.44,-214.8"/>
<text text-anchor="middle" x="3183" y="-192.6" font-family="Times,serif" font-size="14.00">AppComponent </text>
</g>
<!-- AppModule&#45;&gt;AppComponent  -->
<g id="edge37" class="edge">
<title>AppModule&#45;&gt;AppComponent </title>
<path fill="none" stroke="black" stroke-dasharray="1,5" d="M3183,-149.91C3183,-149.91 3183,-168.79 3183,-168.79"/>
<polygon fill="black" stroke="black" points="3179.5,-168.79 3183,-178.79 3186.5,-168.79 3179.5,-168.79"/>
</g>
<!-- AutomationModule -->
<g id="node34" class="node">
<title>AutomationModule</title>
<polygon fill="#8dd3c7" stroke="black" points="588.44,-84.8 585.44,-88.8 564.44,-88.8 561.44,-84.8 461.56,-84.8 461.56,-48.8 588.44,-48.8 588.44,-84.8"/>
<text text-anchor="middle" x="525" y="-62.6" font-family="Times,serif" font-size="14.00">AutomationModule</text>
</g>
<!-- AutomationModule&#45;&gt;AppModule -->
<g id="edge33" class="edge">
<title>AutomationModule&#45;&gt;AppModule</title>
<path fill="none" stroke="black" d="M525,-84.96C525,-107.15 525,-141.8 525,-141.8 525,-141.8 3131.25,-141.8 3131.25,-141.8"/>
<polygon fill="black" stroke="black" points="3131.25,-145.3 3141.25,-141.8 3131.25,-138.3 3131.25,-145.3"/>
</g>
<!-- SharedModule -->
<g id="node35" class="node">
<title>SharedModule</title>
<polygon fill="#8dd3c7" stroke="black" points="444.43,-84.8 441.43,-88.8 420.43,-88.8 417.43,-84.8 345.57,-84.8 345.57,-48.8 444.43,-48.8 444.43,-84.8"/>
<text text-anchor="middle" x="395" y="-62.6" font-family="Times,serif" font-size="14.00">SharedModule</text>
</g>
<!-- SharedModule&#45;&gt;AppModule -->
<g id="edge34" class="edge">
<title>SharedModule&#45;&gt;AppModule</title>
<path fill="none" stroke="black" d="M395,-85.05C395,-107.82 395,-143.8 395,-143.8 395,-143.8 3131.15,-143.8 3131.15,-143.8"/>
<polygon fill="black" stroke="black" points="3131.15,-147.3 3141.15,-143.8 3131.15,-140.3 3131.15,-147.3"/>
</g>
<!-- StorageManagerModule -->
<g id="node36" class="node">
<title>StorageManagerModule</title>
<polygon fill="#8dd3c7" stroke="black" points="328.07,-84.8 325.07,-88.8 304.07,-88.8 301.07,-84.8 175.93,-84.8 175.93,-48.8 328.07,-48.8 328.07,-84.8"/>
<text text-anchor="middle" x="252" y="-62.6" font-family="Times,serif" font-size="14.00">StorageManagerModule</text>
</g>
<!-- StorageManagerModule&#45;&gt;AppModule -->
<g id="edge35" class="edge">
<title>StorageManagerModule&#45;&gt;AppModule</title>
<path fill="none" stroke="black" d="M252,-85.12C252,-108.46 252,-145.8 252,-145.8 252,-145.8 3131.29,-145.8 3131.29,-145.8"/>
<polygon fill="black" stroke="black" points="3131.29,-149.3 3141.29,-145.8 3131.29,-142.3 3131.29,-149.3"/>
</g>
<!-- VisualizationModule -->
<g id="node37" class="node">
<title>VisualizationModule</title>
<polygon fill="#8dd3c7" stroke="black" points="158.2,-84.8 155.2,-88.8 134.2,-88.8 131.2,-84.8 23.8,-84.8 23.8,-48.8 158.2,-48.8 158.2,-84.8"/>
<text text-anchor="middle" x="91" y="-62.6" font-family="Times,serif" font-size="14.00">VisualizationModule</text>
</g>
<!-- VisualizationModule&#45;&gt;AppModule -->
<g id="edge36" class="edge">
<title>VisualizationModule&#45;&gt;AppModule</title>
<path fill="none" stroke="black" d="M91,-85.18C91,-109.08 91,-147.8 91,-147.8 91,-147.8 3131.05,-147.8 3131.05,-147.8"/>
<polygon fill="black" stroke="black" points="3131.05,-151.3 3141.05,-147.8 3131.05,-144.3 3131.05,-151.3"/>
</g>
</g>
</svg>
