<?xml version="1.0" encoding="UTF-8" standalone="no"?>
<!DOCTYPE svg PUBLIC "-//W3C//DTD SVG 1.1//EN"
 "http://www.w3.org/Graphics/SVG/1.1/DTD/svg11.dtd">
<!-- Generated by graphviz version 5.0.0 (20220707.1540)
 -->
<!-- Title: dependencies Pages: 1 -->
<svg width="721pt" height="247pt"
 viewBox="0.00 0.00 721.00 246.80" xmlns="http://www.w3.org/2000/svg" xmlns:xlink="http://www.w3.org/1999/xlink">
<g id="graph0" class="graph" transform="scale(1 1) rotate(0) translate(4 242.8)">
<title>dependencies</title>
<polygon fill="white" stroke="transparent" points="-4,4 -4,-242.8 717,-242.8 717,4 -4,4"/>
<text text-anchor="middle" x="356.5" y="-8.2" font-family="sans-serif" font-size="14.00">dependencies</text>
<g id="clust1" class="cluster">
<title>cluster_StorageManagerModule</title>
<polygon fill="none" stroke="black" stroke-dasharray="1,5" points="8,-32.8 8,-230.8 705,-230.8 705,-32.8 8,-32.8"/>
</g>
<g id="clust7" class="cluster">
<title>cluster_StorageManagerModule_exports</title>
<polygon fill="none" stroke="black" points="16,-170.8 16,-222.8 697,-222.8 697,-170.8 16,-170.8"/>
</g>
<g id="clust2" class="cluster">
<title>cluster_StorageManagerModule_declarations</title>
<polygon fill="none" stroke="black" points="191,-40.8 191,-92.8 694,-92.8 694,-40.8 191,-40.8"/>
</g>
<g id="clust6" class="cluster">
<title>cluster_StorageManagerModule_imports</title>
<polygon fill="none" stroke="black" points="21,-40.8 21,-92.8 183,-92.8 183,-40.8 21,-40.8"/>
</g>
<!-- SelectGroupComponent -->
<g id="node1" class="node">
<title>SelectGroupComponent</title>
<polygon fill="#ffffb3" stroke="black" points="685.81,-84.8 534.19,-84.8 534.19,-48.8 685.81,-48.8 685.81,-84.8"/>
<text text-anchor="middle" x="610" y="-62.6" font-family="Times,serif" font-size="14.00">SelectGroupComponent</text>
</g>
<!-- StorageManagerModule -->
<g id="node4" class="node">
<title>StorageManagerModule</title>
<polygon fill="#8dd3c7" stroke="black" points="346.07,-149.8 343.07,-153.8 322.07,-153.8 319.07,-149.8 193.93,-149.8 193.93,-113.8 346.07,-113.8 346.07,-149.8"/>
<text text-anchor="middle" x="270" y="-127.6" font-family="Times,serif" font-size="14.00">StorageManagerModule</text>
</g>
<!-- SelectGroupComponent&#45;&gt;StorageManagerModule -->
<g id="edge1" class="edge">
<title>SelectGroupComponent&#45;&gt;StorageManagerModule</title>
<path fill="none" stroke="black" d="M636.88,-85.07C636.88,-103.36 636.88,-128.8 636.88,-128.8 636.88,-128.8 356.46,-128.8 356.46,-128.8"/>
<polygon fill="black" stroke="black" points="356.46,-125.3 346.46,-128.8 356.46,-132.3 356.46,-125.3"/>
</g>
<!-- SelectProductComponent -->
<g id="node2" class="node">
<title>SelectProductComponent</title>
<polygon fill="#ffffb3" stroke="black" points="516.59,-84.8 357.41,-84.8 357.41,-48.8 516.59,-48.8 516.59,-84.8"/>
<text text-anchor="middle" x="437" y="-62.6" font-family="Times,serif" font-size="14.00">SelectProductComponent</text>
</g>
<!-- SelectProductComponent&#45;&gt;StorageManagerModule -->
<g id="edge2" class="edge">
<title>SelectProductComponent&#45;&gt;StorageManagerModule</title>
<path fill="none" stroke="black" d="M362.02,-84.81C362.02,-100.85 362.02,-121.8 362.02,-121.8 362.02,-121.8 356.41,-121.8 356.41,-121.8"/>
<polygon fill="black" stroke="black" points="356.41,-118.3 346.41,-121.8 356.41,-125.3 356.41,-118.3"/>
</g>
<!-- SelectUnitComponent -->
<g id="node3" class="node">
<title>SelectUnitComponent</title>
<polygon fill="#ffffb3" stroke="black" points="339.43,-84.8 198.57,-84.8 198.57,-48.8 339.43,-48.8 339.43,-84.8"/>
<text text-anchor="middle" x="269" y="-62.6" font-family="Times,serif" font-size="14.00">SelectUnitComponent</text>
</g>
<!-- SelectUnitComponent&#45;&gt;StorageManagerModule -->
<g id="edge3" class="edge">
<title>SelectUnitComponent&#45;&gt;StorageManagerModule</title>
<path fill="none" stroke="black" d="M269,-84.91C269,-84.91 269,-103.79 269,-103.79"/>
<polygon fill="black" stroke="black" points="265.5,-103.79 269,-113.79 272.5,-103.79 265.5,-103.79"/>
</g>
<!-- ProcedureStoreModule  -->
<g id="node6" class="node">
<title>ProcedureStoreModule </title>
<polygon fill="#fb8072" stroke="black" points="688.86,-214.8 539.14,-214.8 539.14,-178.8 688.86,-178.8 688.86,-214.8"/>
<text text-anchor="middle" x="614" y="-192.6" font-family="Times,serif" font-size="14.00">ProcedureStoreModule </text>
</g>
<!-- StorageManagerModule&#45;&gt;ProcedureStoreModule  -->
<g id="edge5" class="edge">
<title>StorageManagerModule&#45;&gt;ProcedureStoreModule </title>
<path fill="none" stroke="black" stroke-dasharray="5,2" d="M346.19,-135.8C440.3,-135.8 588.1,-135.8 588.1,-135.8 588.1,-135.8 588.1,-168.5 588.1,-168.5"/>
<polygon fill="black" stroke="black" points="584.6,-168.5 588.1,-178.5 591.6,-168.5 584.6,-168.5"/>
</g>
<!-- SelectGroupComponent  -->
<g id="node7" class="node">
<title>SelectGroupComponent </title>
<polygon fill="#fb8072" stroke="black" points="521.31,-214.8 366.69,-214.8 366.69,-178.8 521.31,-178.8 521.31,-214.8"/>
<text text-anchor="middle" x="444" y="-192.6" font-family="Times,serif" font-size="14.00">SelectGroupComponent </text>
</g>
<!-- StorageManagerModule&#45;&gt;SelectGroupComponent  -->
<g id="edge6" class="edge">
<title>StorageManagerModule&#45;&gt;SelectGroupComponent </title>
<path fill="none" stroke="black" stroke-dasharray="5,2" d="M346.25,-142.8C392.07,-142.8 441.57,-142.8 441.57,-142.8 441.57,-142.8 441.57,-168.52 441.57,-168.52"/>
<polygon fill="black" stroke="black" points="438.07,-168.52 441.57,-178.52 445.07,-168.52 438.07,-168.52"/>
</g>
<!-- SelectProductComponent  -->
<g id="node8" class="node">
<title>SelectProductComponent </title>
<polygon fill="#fb8072" stroke="black" points="348.09,-214.8 185.91,-214.8 185.91,-178.8 348.09,-178.8 348.09,-214.8"/>
<text text-anchor="middle" x="267" y="-192.6" font-family="Times,serif" font-size="14.00">SelectProductComponent </text>
</g>
<!-- StorageManagerModule&#45;&gt;SelectProductComponent  -->
<g id="edge7" class="edge">
<title>StorageManagerModule&#45;&gt;SelectProductComponent </title>
<path fill="none" stroke="black" stroke-dasharray="5,2" d="M270,-149.91C270,-149.91 270,-168.79 270,-168.79"/>
<polygon fill="black" stroke="black" points="266.5,-168.79 270,-178.79 273.5,-168.79 266.5,-168.79"/>
</g>
<!-- SelectUnitComponent  -->
<g id="node9" class="node">
<title>SelectUnitComponent </title>
<polygon fill="#fb8072" stroke="black" points="167.93,-214.8 24.07,-214.8 24.07,-178.8 167.93,-178.8 167.93,-214.8"/>
<text text-anchor="middle" x="96" y="-192.6" font-family="Times,serif" font-size="14.00">SelectUnitComponent </text>
</g>
<!-- StorageManagerModule&#45;&gt;SelectUnitComponent  -->
<g id="edge8" class="edge">
<title>StorageManagerModule&#45;&gt;SelectUnitComponent </title>
<path fill="none" stroke="black" stroke-dasharray="5,2" d="M193.91,-137.8C139.33,-137.8 75.37,-137.8 75.37,-137.8 75.37,-137.8 75.37,-168.78 75.37,-168.78"/>
<polygon fill="black" stroke="black" points="71.87,-168.78 75.37,-178.78 78.87,-168.78 71.87,-168.78"/>
</g>
<!-- ProcedureStoreModule -->
<g id="node5" class="node">
<title>ProcedureStoreModule</title>
<polygon fill="#8dd3c7" stroke="black" points="174.86,-84.8 171.86,-88.8 150.86,-88.8 147.86,-84.8 29.14,-84.8 29.14,-48.8 174.86,-48.8 174.86,-84.8"/>
<text text-anchor="middle" x="102" y="-62.6" font-family="Times,serif" font-size="14.00">ProcedureStoreModule</text>
</g>
<!-- ProcedureStoreModule&#45;&gt;StorageManagerModule -->
<g id="edge4" class="edge">
<title>ProcedureStoreModule&#45;&gt;StorageManagerModule</title>
<path fill="none" stroke="black" d="M121.67,-84.82C121.67,-102.17 121.67,-125.8 121.67,-125.8 121.67,-125.8 183.66,-125.8 183.66,-125.8"/>
<polygon fill="black" stroke="black" points="183.66,-129.3 193.66,-125.8 183.66,-122.3 183.66,-129.3"/>
</g>
</g>
</svg>
