<?xml version="1.0" encoding="UTF-8" standalone="no"?>
<!DOCTYPE svg PUBLIC "-//W3C//DTD SVG 1.1//EN"
 "http://www.w3.org/Graphics/SVG/1.1/DTD/svg11.dtd">
<!-- Generated by graphviz version 5.0.0 (20220707.1540)
 -->
<!-- Title: dependencies Pages: 1 -->
<svg width="208pt" height="174pt"
 viewBox="0.00 0.00 208.00 173.80" xmlns="http://www.w3.org/2000/svg" xmlns:xlink="http://www.w3.org/1999/xlink">
<g id="graph0" class="graph" transform="scale(1 1) rotate(0) translate(4 169.8)">
<title>dependencies</title>
<polygon fill="white" stroke="transparent" points="-4,4 -4,-169.8 204,-169.8 204,4 -4,4"/>
<text text-anchor="middle" x="100" y="-8.2" font-family="sans-serif" font-size="14.00">dependencies</text>
<g id="clust1" class="cluster">
<title>cluster_PipelineStoreModule</title>
<polygon fill="none" stroke="black" stroke-dasharray="1,5" points="8,-32.8 8,-157.8 192,-157.8 192,-32.8 8,-32.8"/>
</g>
<g id="clust3" class="cluster">
<title>cluster_PipelineStoreModule_imports</title>
<polygon fill="none" stroke="black" points="16,-40.8 16,-92.8 184,-92.8 184,-40.8 16,-40.8"/>
</g>
<!-- StorageManagerModule -->
<g id="node1" class="node">
<title>StorageManagerModule</title>
<polygon fill="#8dd3c7" stroke="black" points="176.07,-84.8 173.07,-88.8 152.07,-88.8 149.07,-84.8 23.93,-84.8 23.93,-48.8 176.07,-48.8 176.07,-84.8"/>
<text text-anchor="middle" x="100" y="-62.6" font-family="Times,serif" font-size="14.00">StorageManagerModule</text>
</g>
<!-- PipelineStoreModule -->
<g id="node2" class="node">
<title>PipelineStoreModule</title>
<polygon fill="#8dd3c7" stroke="black" points="167.49,-149.8 164.49,-153.8 143.49,-153.8 140.49,-149.8 32.51,-149.8 32.51,-113.8 167.49,-113.8 167.49,-149.8"/>
<text text-anchor="middle" x="100" y="-127.6" font-family="Times,serif" font-size="14.00">PipelineStoreModule</text>
</g>
<!-- StorageManagerModule&#45;&gt;PipelineStoreModule -->
<g id="edge1" class="edge">
<title>StorageManagerModule&#45;&gt;PipelineStoreModule</title>
<path fill="none" stroke="black" d="M100,-84.91C100,-84.91 100,-103.79 100,-103.79"/>
<polygon fill="black" stroke="black" points="96.5,-103.79 100,-113.79 103.5,-103.79 96.5,-103.79"/>
</g>
</g>
</svg>
